<svg xmlns="http://www.w3.org/2000/svg" width="177.5" height="37.343" viewBox="0 0 177.5 37.343">
  <g id="color_Logo" data-name="color Logo" transform="translate(-77.48 -69.175)">
    <path id="Path_43773" data-name="Path 43773" d="M79.545,104.442a51.4,51.4,0,0,0,5.667-.453,17.008,17.008,0,0,0,2.721-.733,1.6,1.6,0,0,0,.61-.28,1.554,1.554,0,0,0,.3-.3l1.708-1.708.958-.036.942-1.219c-.008-1.3-.077-2.411-.157-3.278a15.084,15.084,0,0,0-.75-3.383,2.634,2.634,0,0,0-.8-1.186,3.3,3.3,0,0,0-.7-.384,6.222,6.222,0,0,0-1.779-.593,1.882,1.882,0,0,0-1.29.052c-.184.1-.362.272-.645.818a7.142,7.142,0,0,0-.645,1.779,7.87,7.87,0,0,0-.1,2.441c.165.557.329,1.038.47,1.43a4.656,4.656,0,0,0,.593,1.255c.132.184.159.181.28.365a4.489,4.489,0,0,1,.489,1.063,2.389,2.389,0,0,0,.28.662,1.638,1.638,0,0,0,.209.261l1.03.958c-.181.016-.36.036-.541.052-.159-.069-.329-.148-.505-.244-.137-.074-.266-.151-.384-.228l-.505.577.906.837a1.374,1.374,0,0,1-.8-.069,1.329,1.329,0,0,1-.557-.437,5.213,5.213,0,0,1-.522.121c-.071.014-.14.025-.209.036l.662.714a1.194,1.194,0,0,1-.469.036,1.577,1.577,0,0,1-.785-.4,2.281,2.281,0,0,1-.209-.192l-.522.036.629.681a2.379,2.379,0,0,1-.505-.069,4.4,4.4,0,0,1-1.952-1.411c-.986-.945-.939-.692-1.359-1.186a5.991,5.991,0,0,1-1.274-2.91,15.815,15.815,0,0,1-.016-3.122c.025-.577.049-1.183.121-2a14.413,14.413,0,0,0,.157-2.109c-.005-.143-.074-.664-.209-1.708a12.723,12.723,0,0,1-.157-1.535,9.412,9.412,0,0,1,.069-1.274c.088-.777.187-.925.28-1.535a11.244,11.244,0,0,0,.036-2.317c-.055-1.285-.146-1.181-.121-1.831a5.8,5.8,0,0,1,.505-2.353,6.84,6.84,0,0,1,1.186-1.587c1.3-1.5,1.864-2.076,1.864-2.076,1.2-1.216,2.754-2.8,4.621-4.673a2.65,2.65,0,0,1,.766-.453,2.516,2.516,0,0,1,2.2.192C93.949,71,95.11,71.818,95.11,71.818c.3.209.73.519,1.252.906a3.463,3.463,0,0,0-.785.313,4.127,4.127,0,0,0-1.063.89,6.014,6.014,0,0,0-.453.541,7.21,7.21,0,0,0-1.864-.173,9.43,9.43,0,0,0-2.545.505c-.253.08-.464.154-.61.209a3.827,3.827,0,0,0-1.516-1.343,2.064,2.064,0,0,0-1.675-.261,1.83,1.83,0,0,0-.89.977,3.614,3.614,0,0,0,.016,2.982,3.4,3.4,0,0,0,.261.47,6.629,6.629,0,0,1,.14-2.493,1.494,1.494,0,0,1,.384-.7,1.344,1.344,0,0,1,1.046-.384c.291.041.491.214.89.557a5.742,5.742,0,0,1,.681.7,4.227,4.227,0,0,0-.958.453,4.993,4.993,0,0,0-1.848,2.317,6.087,6.087,0,0,0-.3,4.585,4.986,4.986,0,0,0,.417.837,6.032,6.032,0,0,1-.349-2.493,5.674,5.674,0,0,1,.417-1.779,5.6,5.6,0,0,1,1.447-1.969,6.905,6.905,0,0,1,1.9-1.238c.258-.113.483-.192.645-.244-.431.459-.859.917-1.29,1.378q-.614.655-1.219,1.307a3,3,0,0,0-.522,2.109,1.628,1.628,0,0,0,.61,1.186,1.461,1.461,0,0,0,1.219.14,4.206,4.206,0,0,1,.522-.192,3.914,3.914,0,0,1,.384-.088,3.685,3.685,0,0,0,1.307,1.362,1.519,1.519,0,0,1-.384-1.656,1.282,1.282,0,0,1,.681-.541,2.153,2.153,0,0,1,1.831.156c.1.058.862.491.8.977a.8.8,0,0,1-.28.437c-.3.318-.574.332-.837.681a1.277,1.277,0,0,0-.14.228,1.622,1.622,0,0,1,.977.192,1.7,1.7,0,0,1,.75.942,1.85,1.85,0,0,1,.088.4,1.228,1.228,0,0,0-1.307-.209.974.974,0,0,0-.365.384,1.542,1.542,0,0,0-.1.958,2.431,2.431,0,0,0,.052.3c.656.058.906.258,1.01.437a1.515,1.515,0,0,0,.209.332c.165.184.409.332.47.28s-.041-.253-.1-.384c-.11-.228-.176-.244-.209-.384a.693.693,0,0,1,.088-.489,1.05,1.05,0,0,1,.47-.384,3.326,3.326,0,0,1,.662-.28,1.223,1.223,0,0,0-.662.629c-.027.066-.121.288-.036.365.049.044.135.025.173.016a.638.638,0,0,0,.332-.228,1.3,1.3,0,0,1,.645-.349,1.332,1.332,0,0,1,.994.1,1.206,1.206,0,0,1,.228.173.552.552,0,0,0-.036-.349.743.743,0,0,0-.313-.3,1.308,1.308,0,0,0-.244-.121.716.716,0,0,1,.453,0,.763.763,0,0,1,.417.4,1,1,0,0,1,.088.629l.052-.156a3.507,3.507,0,0,0,.016-1.727,6.172,6.172,0,0,0-.437-1.115,5.963,5.963,0,0,1-.522-1.186,3.9,3.9,0,0,1-.1-.522.858.858,0,0,0,.994.228.89.89,0,0,0,.4-.662.935.935,0,0,0-.036-.4c-.025.058-.3.678-.785.714a.5.5,0,0,1-.437-.14.422.422,0,0,1-.052-.349c.022-.1.071-.181.313-.4a2.913,2.913,0,0,1,.662-.489c.222-.115.338-.17.437-.121.132.066.154.272.173.489a2.352,2.352,0,0,1-.016.577,5.315,5.315,0,0,0,.069,1.744,6.84,6.84,0,0,0,.173.8,6.207,6.207,0,0,0,1.115-3.451,3.314,3.314,0,0,0-.629-2.232,3.652,3.652,0,0,0-.7-.593,2.451,2.451,0,0,0-1.639-.7,1.322,1.322,0,0,0-.837.417,1.42,1.42,0,0,0-.28.837,20.824,20.824,0,0,0,.157,2.2,4.634,4.634,0,0,1-.121.942,4.1,4.1,0,0,0-.28-1.29,4.616,4.616,0,0,0-1.046-1.535,3.415,3.415,0,0,0-1.6-1.219,4.605,4.605,0,0,0-1.6-.036c-.308.027-.557.071-.733.1a3.391,3.391,0,0,1,1.359-.8,5.115,5.115,0,0,1,1.988-.069,10.462,10.462,0,0,1,1.046.14,2.581,2.581,0,0,1,1.046-.522,3.043,3.043,0,0,1,1.5.069,3.771,3.771,0,0,1,.766.28,3.213,3.213,0,0,0-1.952-1.29,2.641,2.641,0,0,0-.453-.036c.118-.209.95-1.647,1.848-1.848a.845.845,0,0,1,.7.069.9.9,0,0,1,.244.453,2.814,2.814,0,0,1,.14.629,21.033,21.033,0,0,0,.417,2.3,8.155,8.155,0,0,0,.977,2.372c.1.165.412.667,1.046,1.675a4.787,4.787,0,0,1,.766,1.568,6.1,6.1,0,0,1,.069,1.115,13.292,13.292,0,0,1,.173,2.65,5.445,5.445,0,0,1-.244,1.046c-.255.75-.48.87-.766,1.568-.269.653-.071.544-.417,1.639a7.841,7.841,0,0,0-.453,1.675,5.47,5.47,0,0,0-.036.662,10.206,10.206,0,0,0,1.5-2.93,1.758,1.758,0,0,1,.349-.8,1.668,1.668,0,0,1,.453-.384,5.973,5.973,0,0,0,.593-.733,5.186,5.186,0,0,0,.906-2.3,5,5,0,0,0,.036-.629l-.28-5.857a3.942,3.942,0,0,1,.662.7,5.208,5.208,0,0,1,.87,2.685c.115,1.112-.08,1.109,0,2.51a18.45,18.45,0,0,0,.28,2.232,14.252,14.252,0,0,1,.417,3,8.05,8.05,0,0,1-.069.942,4.137,4.137,0,0,0,1.01-2.265,8.818,8.818,0,0,0-.1-1.744c-.1-.936-.173-.961-.209-1.5a11.815,11.815,0,0,1,.209-2.232,11.51,11.51,0,0,0,.173-2.3,6.832,6.832,0,0,0-.28-1.5,11.906,11.906,0,0,0-2.092-3.8,22.948,22.948,0,0,0-3.591-3.836,22.224,22.224,0,0,0-2.545-1.848c4.377,2.381,7.276,5.3,8.16,7.427a12.636,12.636,0,0,1,.942,3.092,10.355,10.355,0,0,0,.371,2.836c.228.667.354.7.557,1.395a8.151,8.151,0,0,1,.28,2.836,14.044,14.044,0,0,1-.233,1.765c-.121.643-.159.64-.187.931a6.119,6.119,0,0,0,.417,2.092,19.465,19.465,0,0,1-.058,2.383c-.077,1.614-.093,1.787-.1,2.405-.019,1.12.025,1.038.036,2.161a5.114,5.114,0,0,0,.069.837c.025.151.052.272.069.349l3.383,2.614,1.395,3.383-35.529-.069Zm24.107-4.736a6.266,6.266,0,0,0-.489-1.7,4.125,4.125,0,0,0-.7-1.115c-.157-.17-.165-.146-.489-.442a5.362,5.362,0,0,1-1.255-1.395,2.435,2.435,0,0,0-.349-.6,2.179,2.179,0,0,0-.629-.464,2.885,2.885,0,0,0-.327-.14,44.77,44.77,0,0,0-1.186,4.371c-.151.7-.283,1.384-.4,2.046a5.777,5.777,0,0,0,.6-.093,6.067,6.067,0,0,0,.7-.187,14,14,0,0,1,3.627-.3c.255.005.461.016.582.022h.3Z" fill="#fff"/>
    <g id="Group_13423" data-name="Group 13423" transform="translate(121.34 78.833)">
      <path id="Path_43774" data-name="Path 43774" d="M249.935,110.752a2.5,2.5,0,0,1,1.255.9,2.751,2.751,0,0,1,.513,1.724,4.123,4.123,0,0,1-.22,1.365,2.522,2.522,0,0,1-.741,1.082,3.72,3.72,0,0,1-1.406.722,7.894,7.894,0,0,1-2.216.264h-9.9v-7.163h9.97a1.339,1.339,0,0,0,.681-.167.658.658,0,0,0,.294-.626.615.615,0,0,0-.3-.6,1.414,1.414,0,0,0-.673-.159h-9.97l2.359-3.061h7.46a7.614,7.614,0,0,1,1.826.2,4.093,4.093,0,0,1,1.4.615,2.814,2.814,0,0,1,.892,1.021,3.052,3.052,0,0,1,.31,1.417,2.829,2.829,0,0,1-.48,1.647,2.019,2.019,0,0,1-.489.511A2.41,2.41,0,0,1,249.935,110.752Zm-9.212,1.409v1.62h6.417a1.3,1.3,0,0,0,.826-.211.758.758,0,0,0,.253-.615.718.718,0,0,0-.253-.59,1.332,1.332,0,0,0-.826-.2h-6.417Z" transform="translate(-237.22 -104.843)" fill="#fff"/>
      <path id="Path_43775" data-name="Path 43775" d="M300.017,116.814H296.53V105.04h3.487Z" transform="translate(-280.245 -104.851)" fill="#fff"/>
      <path id="Path_43776" data-name="Path 43776" d="M319.925,116.348a6.644,6.644,0,0,1-2.147-1.258,5.784,5.784,0,0,1-1.414-1.9,5.558,5.558,0,0,1-.513-2.386,5.332,5.332,0,0,1,.513-2.35,5.522,5.522,0,0,1,1.414-1.831,6.342,6.342,0,0,1,2.147-1.178,8.6,8.6,0,0,1,2.71-.415H330.7l-2.257,3.061h-5.81a3.974,3.974,0,0,0-1.312.211,3.164,3.164,0,0,0-1.052.6,2.873,2.873,0,0,0-.7.906,2.613,2.613,0,0,0-.253,1.153,2.686,2.686,0,0,0,.244,1.153,2.536,2.536,0,0,0,.692.89,3.207,3.207,0,0,0,1.052.571,4.194,4.194,0,0,0,1.332.2H326.9V112.07h-5.826l2.089-2.622h7.207V116.8H322.64a7.766,7.766,0,0,1-2.715-.456" transform="translate(-294.261 -104.843)" fill="#fff"/>
      <path id="Path_43777" data-name="Path 43777" d="M388.725,110.752a2.5,2.5,0,0,1,1.255.9,2.751,2.751,0,0,1,.513,1.724,4.122,4.122,0,0,1-.22,1.365,2.522,2.522,0,0,1-.741,1.082,3.72,3.72,0,0,1-1.406.722,7.894,7.894,0,0,1-2.216.264h-9.9v-7.163h9.97a1.339,1.339,0,0,0,.681-.167.658.658,0,0,0,.294-.626.615.615,0,0,0-.3-.6,1.414,1.414,0,0,0-.673-.159h-9.97l2.359-3.061h7.46a7.614,7.614,0,0,1,1.826.2,4.093,4.093,0,0,1,1.4.615,2.815,2.815,0,0,1,.892,1.021,3.052,3.052,0,0,1,.31,1.417,2.828,2.828,0,0,1-.481,1.647,2.019,2.019,0,0,1-.489.511A2.356,2.356,0,0,1,388.725,110.752Zm-9.212,1.409v1.62h6.417a1.3,1.3,0,0,0,.826-.211.75.75,0,0,0,.253-.615.718.718,0,0,0-.253-.59,1.332,1.332,0,0,0-.826-.2h-6.417Z" transform="translate(-337.903 -104.843)" fill="#fff"/>
      <path id="Path_43778" data-name="Path 43778" d="M448.216,113.778l-2.24,3.026H435.13V105.03h13.05l-2.257,3.061h-7.287V109.5h8.926l-2,2.674h-6.922v1.6h9.58Z" transform="translate(-380.79 -104.843)" fill="#fff"/>
      <path id="Path_43779" data-name="Path 43779" d="M487.505,116.313l2.106-3.026h3.88c.365,0,.681.011.95.036-.156-.211-.34-.478-.546-.8s-.406-.623-.6-.906l-2.021-3.114-5.288,7.814H481.86l7.224-10.648a3.958,3.958,0,0,1,.892-.914,2.5,2.5,0,0,1,2.685-.025,3.507,3.507,0,0,1,.9.942l7.04,10.648h-13.1Z" transform="translate(-414.69 -104.35)" fill="#fff"/>
      <path id="Path_43780" data-name="Path 43780" d="M570.573,116.814h-4.665L563.4,113.7h-5.354v3.114H554.56v-6.019h9.8a2.515,2.515,0,0,0,1.365-.351,1.09,1.09,0,0,0,.555-.969,1.158,1.158,0,0,0-.505-1.03,2.5,2.5,0,0,0-1.414-.343h-9.8l2.273-3.061h7.24a11.206,11.206,0,0,1,1.988.184,5.956,5.956,0,0,1,1.87.659,4.041,4.041,0,0,1,1.389,1.285,3.635,3.635,0,0,1,.546,2.076,4.062,4.062,0,0,1-.2,1.3,3.689,3.689,0,0,1-.582,1.109,3.459,3.459,0,0,1-.925.835,3.7,3.7,0,0,1-1.238.483,8.407,8.407,0,0,1,.64.582c.236.236.549.557.945.969Z" transform="translate(-467.428 -104.851)" fill="#fff"/>
      <path id="Path_43781" data-name="Path 43781" d="M616.13,137.914a1.564,1.564,0,0,1,.546-1.277,2.04,2.04,0,0,1,1.34-.448,2.07,2.07,0,0,1,1.356.448,1.556,1.556,0,0,1,.546,1.277,1.508,1.508,0,0,1-.546,1.249,2.1,2.1,0,0,1-1.356.439,2.07,2.07,0,0,1-1.34-.439A1.508,1.508,0,0,1,616.13,137.914Z" transform="translate(-512.093 -127.448)" fill="#fff"/>
    </g>
    <g id="Group_13424" data-name="Group 13424" transform="translate(231.453 78.833)">
      <path id="Path_43782" data-name="Path 43782" d="M643.905,116.313l2.106-3.026h3.88c.365,0,.681.011.95.036-.156-.211-.341-.478-.546-.8s-.406-.623-.6-.906l-2.021-3.114-5.288,7.814H638.26l7.224-10.648a3.96,3.96,0,0,1,.892-.914,2.5,2.5,0,0,1,2.685-.025,3.507,3.507,0,0,1,.9.942L657,116.318h-13.1Z" transform="translate(-638.26 -104.35)" fill="#fff"/>
      <path id="Path_43783" data-name="Path 43783" d="M714.737,116.814H711.25V105.04h3.487Z" transform="translate(-691.209 -104.851)" fill="#fff"/>
    </g>
    <g id="Group_13425" data-name="Group 13425" transform="translate(139.887 96.861)">
      <path id="Path_43784" data-name="Path 43784" d="M308.468,171.6a1.327,1.327,0,0,1-.132.588,1.412,1.412,0,0,1-.365.47,1.7,1.7,0,0,1-.555.31,2.128,2.128,0,0,1-.7.113H304.77v-1.812h.9v1.065h1.043a1.171,1.171,0,0,0,.346-.049.777.777,0,0,0,.272-.143.692.692,0,0,0,.178-.22.646.646,0,0,0,0-.568.648.648,0,0,0-.181-.222.879.879,0,0,0-.275-.148,1.037,1.037,0,0,0-.338-.055h-1.947l.574-.755h1.373a2.287,2.287,0,0,1,.7.1,1.7,1.7,0,0,1,.555.294,1.4,1.4,0,0,1,.362.45A1.336,1.336,0,0,1,308.468,171.6Z" transform="translate(-304.77 -170.126)" fill="#fff"/>
      <path id="Path_43785" data-name="Path 43785" d="M329.334,172.348l-.577.747h-2.8v-2.9h3.366l-.582.755h-1.881v.346h2.3l-.516.662h-1.785v.4Z" transform="translate(-320.142 -170.141)" fill="#fff"/>
      <path id="Path_43786" data-name="Path 43786" d="M348.886,172.355l-.577.747h-1.458a2.127,2.127,0,0,1-.7-.113,1.729,1.729,0,0,1-.555-.31,1.447,1.447,0,0,1-.365-.47,1.326,1.326,0,0,1-.132-.588,1.274,1.274,0,0,1,.132-.579,1.349,1.349,0,0,1,.365-.45,1.666,1.666,0,0,1,.555-.291,2.283,2.283,0,0,1,.7-.1h2.037l-.577.755h-1.458a1.036,1.036,0,0,0-.338.052.815.815,0,0,0-.269.146.732.732,0,0,0-.178.222.615.615,0,0,0-.066.286.659.659,0,0,0,.063.286.625.625,0,0,0,.178.22.913.913,0,0,0,.272.143,1.116,1.116,0,0,0,.338.049h2.032Z" transform="translate(-334.027 -170.148)" fill="#fff"/>
      <path id="Path_43787" data-name="Path 43787" d="M367.038,173.095h-.9v-2.9h.9Z" transform="translate(-349.29 -170.141)" fill="#fff"/>
      <path id="Path_43788" data-name="Path 43788" d="M379.751,171.349a1.4,1.4,0,0,1,.813.2.684.684,0,0,1,.277.6,1.1,1.1,0,0,1-.069.4.688.688,0,0,1-.222.3,1.052,1.052,0,0,1-.39.187,2.133,2.133,0,0,1-.566.066h-2.7l.577-.747h2.2a.421.421,0,0,0,.233-.049.188.188,0,0,0,.074-.162.181.181,0,0,0-.074-.162.458.458,0,0,0-.233-.047h-1.582a1.678,1.678,0,0,1-.486-.06.93.93,0,0,1-.338-.17.651.651,0,0,1-.2-.264.856.856,0,0,1-.066-.34.939.939,0,0,1,.071-.371.7.7,0,0,1,.222-.286,1.057,1.057,0,0,1,.387-.181,2.119,2.119,0,0,1,.566-.066h2.526l-.577.755h-2.015a.476.476,0,0,0-.233.044.165.165,0,0,0-.077.157.169.169,0,0,0,.077.159.472.472,0,0,0,.233.047h1.579Z" transform="translate(-357.088 -170.141)" fill="#fff"/>
      <path id="Path_43789" data-name="Path 43789" d="M399.748,173.095h-.9v-2.9h.9Z" transform="translate(-373.019 -170.141)" fill="#fff"/>
      <path id="Path_43790" data-name="Path 43790" d="M412.012,170.01a2.872,2.872,0,0,1,1.593.36,1.491,1.491,0,0,1,0,2.282,3.717,3.717,0,0,1-3.19,0,1.5,1.5,0,0,1,0-2.282A2.853,2.853,0,0,1,412.012,170.01Zm0,2.246a4.862,4.862,0,0,0,.574-.027,1.017,1.017,0,0,0,.379-.11.5.5,0,0,0,.211-.228,1.123,1.123,0,0,0,0-.758.467.467,0,0,0-.211-.225,1.017,1.017,0,0,0-.379-.11,6.008,6.008,0,0,0-1.148,0,1.017,1.017,0,0,0-.379.11.493.493,0,0,0-.211.225,1.123,1.123,0,0,0,0,.758.485.485,0,0,0,.211.228.983.983,0,0,0,.379.11A4.831,4.831,0,0,0,412.012,172.256Z" transform="translate(-381.027 -170.01)" fill="#fff"/>
      <path id="Path_43791" data-name="Path 43791" d="M435.984,173.011a.6.6,0,0,1-.17-.027.505.505,0,0,1-.189-.129l-1.779-1.6v1.708h-.815v-2.411a.665.665,0,0,1,.041-.247.469.469,0,0,1,.11-.17.439.439,0,0,1,.156-.1.6.6,0,0,1,.184-.03.521.521,0,0,1,.167.027.6.6,0,0,1,.192.129l1.779,1.6v-1.708h.821v2.405a.665.665,0,0,1-.041.247.544.544,0,0,1-.107.173.434.434,0,0,1-.159.1A.636.636,0,0,1,435.984,173.011Z" transform="translate(-397.814 -170.01)" fill="#fff"/>
      <path id="Path_43792" data-name="Path 43792" d="M469.388,171.6a1.327,1.327,0,0,1-.132.588,1.412,1.412,0,0,1-.365.47,1.7,1.7,0,0,1-.555.31,2.127,2.127,0,0,1-.7.113H465.69v-1.812h.9v1.065h1.043a1.17,1.17,0,0,0,.346-.049.777.777,0,0,0,.272-.143.691.691,0,0,0,.178-.22.646.646,0,0,0,0-.568.647.647,0,0,0-.181-.222.879.879,0,0,0-.275-.148,1.037,1.037,0,0,0-.338-.055h-1.947l.574-.755h1.373a2.288,2.288,0,0,1,.7.1,1.7,1.7,0,0,1,.555.294,1.4,1.4,0,0,1,.362.45A1.335,1.335,0,0,1,469.388,171.6Z" transform="translate(-421.506 -170.126)" fill="#fff"/>
      <path id="Path_43793" data-name="Path 43793" d="M488.672,170.01a2.872,2.872,0,0,1,1.593.36,1.491,1.491,0,0,1,0,2.282,3.717,3.717,0,0,1-3.19,0,1.5,1.5,0,0,1,0-2.282A2.859,2.859,0,0,1,488.672,170.01Zm0,2.246a4.862,4.862,0,0,0,.574-.027,1.016,1.016,0,0,0,.379-.11.5.5,0,0,0,.211-.228,1.122,1.122,0,0,0,0-.758.466.466,0,0,0-.211-.225,1.016,1.016,0,0,0-.379-.11,6.008,6.008,0,0,0-1.148,0,1.017,1.017,0,0,0-.379.11.492.492,0,0,0-.211.225,1.122,1.122,0,0,0,0,.758.5.5,0,0,0,.211.228.968.968,0,0,0,.379.11A4.862,4.862,0,0,0,488.672,172.256Z" transform="translate(-436.639 -170.01)" fill="#fff"/>
      <path id="Path_43794" data-name="Path 43794" d="M511.208,171.138l.167.3c.047.085.091.162.126.228s.069.126.1.181.055.11.08.162c.022-.052.049-.1.077-.159s.06-.115.1-.181.077-.143.126-.228.1-.181.167-.3l.464-.826a.649.649,0,0,1,.2-.222.492.492,0,0,1,.3-.085.52.52,0,0,1,.307.1.553.553,0,0,1,.2.3l.733,2.553h-.9l-.275-1.013c-.047-.165-.085-.31-.118-.434s-.06-.247-.082-.365l-.165.338c-.06.124-.14.28-.239.467l-.39.73a.946.946,0,0,1-.115.173.538.538,0,0,1-.118.1.456.456,0,0,1-.129.047.865.865,0,0,1-.151.011.845.845,0,0,1-.151-.011.346.346,0,0,1-.129-.047.618.618,0,0,1-.121-.1.786.786,0,0,1-.115-.173l-.39-.733-.14-.264c-.041-.077-.077-.148-.11-.211s-.063-.118-.085-.17-.049-.1-.071-.151q-.033.173-.082.362c-.033.126-.069.272-.113.437l-.275,1.013H509l.752-2.553a.551.551,0,0,1,.2-.3.52.52,0,0,1,.307-.1.507.507,0,0,1,.294.082.634.634,0,0,1,.2.225Z" transform="translate(-452.925 -170.01)" fill="#fff"/>
      <path id="Path_43795" data-name="Path 43795" d="M536.658,173.095h-.9v-2.9h.9Z" transform="translate(-472.337 -170.141)" fill="#fff"/>
      <path id="Path_43796" data-name="Path 43796" d="M550.037,173.011a.632.632,0,0,1-.173-.027.551.551,0,0,1-.189-.129l-1.779-1.6v1.708h-.815v-2.411a.665.665,0,0,1,.041-.247.468.468,0,0,1,.11-.17.416.416,0,0,1,.156-.1.528.528,0,0,1,.184-.03.521.521,0,0,1,.167.027.606.606,0,0,1,.195.129l1.779,1.6v-1.708h.821v2.405a.666.666,0,0,1-.041.247.5.5,0,0,1-.11.173.434.434,0,0,1-.159.1A.618.618,0,0,1,550.037,173.011Z" transform="translate(-480.549 -170.01)" fill="#fff"/>
      <path id="Path_43797" data-name="Path 43797" d="M568.275,172.972l.544-.747h1q.14,0,.247.008c-.041-.052-.088-.118-.143-.2s-.1-.154-.154-.222l-.522-.769-1.365,1.927H566.82l1.862-2.628a1,1,0,0,1,.231-.225.6.6,0,0,1,.351-.1.585.585,0,0,1,.34.093.943.943,0,0,1,.233.233l1.815,2.628h-3.377Z" transform="translate(-494.869 -170.017)" fill="#fff"/>
      <path id="Path_43798" data-name="Path 43798" d="M594.567,173.011a.631.631,0,0,1-.173-.027.551.551,0,0,1-.189-.129l-1.779-1.6v1.708h-.815v-2.411a.665.665,0,0,1,.041-.247.467.467,0,0,1,.11-.17.438.438,0,0,1,.156-.1.528.528,0,0,1,.184-.03.521.521,0,0,1,.167.027.607.607,0,0,1,.195.129l1.779,1.6v-1.708h.821v2.405a.665.665,0,0,1-.041.247.5.5,0,0,1-.11.173.434.434,0,0,1-.159.1A.619.619,0,0,1,594.567,173.011Z" transform="translate(-512.853 -170.01)" fill="#fff"/>
      <path id="Path_43799" data-name="Path 43799" d="M615.619,172.355l-.577.747h-1.461a2.128,2.128,0,0,1-.7-.113,1.73,1.73,0,0,1-.555-.31,1.447,1.447,0,0,1-.365-.47,1.326,1.326,0,0,1-.132-.588,1.274,1.274,0,0,1,.132-.579,1.349,1.349,0,0,1,.365-.45,1.667,1.667,0,0,1,.555-.291,2.283,2.283,0,0,1,.7-.1h2.037l-.577.755h-1.461a1.036,1.036,0,0,0-.338.052.817.817,0,0,0-.269.146.733.733,0,0,0-.178.222.625.625,0,0,0-.066.286.66.66,0,0,0,.063.286.626.626,0,0,0,.178.22.914.914,0,0,0,.272.143,1.116,1.116,0,0,0,.338.049h2.037Z" transform="translate(-527.521 -170.148)" fill="#fff"/>
      <path id="Path_43800" data-name="Path 43800" d="M636.195,172.348l-.577.747h-2.8v-2.9h3.366l-.582.755h-1.881v.346h2.3l-.516.662h-1.785v.4Z" transform="translate(-542.748 -170.141)" fill="#fff"/>
    </g>
  </g>
</svg>
