<svg id="Layer_1" data-name="Layer 1" xmlns="http://www.w3.org/2000/svg" viewBox="0 0 235.52 101.58"><defs><style>.cls-1{fill:#666;}.cls-1,.cls-2{stroke:#666;}.cls-1,.cls-2,.cls-3{stroke-miterlimit:10;}.cls-2{fill:gray;}.cls-3{fill:#333;stroke:#333;}</style></defs><title>logo-grey</title><path class="cls-1" d="M80.42,165.43" transform="translate(-1.88 -2)"/><path class="cls-2" d="M2,2.5,136.59,14.67,105.91,28.43Z" transform="translate(-1.88 -2)"/><path class="cls-2" d="M105.59,29.06" transform="translate(-1.88 -2)"/><path class="cls-2" d="M123.55,26.09l14.67-8.48,2.1,10.57Z" transform="translate(-1.88 -2)"/><path class="cls-2" d="M137.8,33.64,93.38,74.86l5.09,27Z" transform="translate(-1.88 -2)"/><path class="cls-2" d="M117.37,29.67,134,32,95,67.15Z" transform="translate(-1.88 -2)"/><path class="cls-2" d="M34.45,18.56,88.24,69.89,95,101.4Z" transform="translate(-1.88 -2)"/><path class="cls-3" d="M76.44,54.94a13.64,13.64,0,0,0,6.93,2c4,0,6.26-2.1,6.26-5.14,0-2.82-1.6-4.42-5.64-6-4.89-1.74-7.91-4.29-7.91-8.54,0-4.69,3.87-8.18,9.69-8.18a13.54,13.54,0,0,1,6.62,1.47l-1.07,3.17a11.88,11.88,0,0,0-5.69-1.43c-4.09,0-5.64,2.46-5.64,4.51,0,2.82,1.82,4.2,6,5.81,5.07,2,7.64,4.43,7.64,8.85,0,4.65-3.42,8.67-10.49,8.67a15.4,15.4,0,0,1-7.64-1.92Z" transform="translate(-1.88 -2)"/><path class="cls-3" d="M103.32,31.83V38h5.6v3h-5.6V52.7c0,2.68.76,4.2,2.93,4.2a8.66,8.66,0,0,0,2.27-.27l.18,3a9.52,9.52,0,0,1-3.47.54A5.4,5.4,0,0,1,101,58.47c-1.11-1.16-1.51-3.08-1.51-5.63V41H96.17V38H99.5V32.86Z" transform="translate(-1.88 -2)"/><path class="cls-3" d="M113.32,44.79c0-2.55,0-4.74-.18-6.75h3.42l.13,4.25h.18a6.46,6.46,0,0,1,6-4.74,4.22,4.22,0,0,1,1.11.13V41.4a5.85,5.85,0,0,0-1.33-.13c-2.75,0-4.71,2.1-5.24,5.05a11.1,11.1,0,0,0-.18,1.83V59.68h-3.87Z" transform="translate(-1.88 -2)"/><path class="cls-3" d="M139.54,59.68l-.31-2.73h-.13a8,8,0,0,1-6.58,3.22c-4.35,0-6.58-3.08-6.58-6.21,0-5.23,4.62-8.09,12.93-8v-.45c0-1.79-.49-5-4.89-5a10.67,10.67,0,0,0-5.6,1.61l-.89-2.59a13.29,13.29,0,0,1,7.07-1.92c6.58,0,8.18,4.51,8.18,8.85v8.09a30.66,30.66,0,0,0,.36,5.18Zm-.58-11c-4.27-.09-9.11.67-9.11,4.87a3.47,3.47,0,0,0,3.69,3.75,5.35,5.35,0,0,0,5.2-3.62,4.15,4.15,0,0,0,.22-1.25Z" transform="translate(-1.88 -2)"/><path class="cls-3" d="M153.58,31.83V38h5.6v3h-5.6V52.7c0,2.68.75,4.2,2.93,4.2a8.65,8.65,0,0,0,2.27-.27l.18,3a9.52,9.52,0,0,1-3.47.54,5.4,5.4,0,0,1-4.22-1.65c-1.11-1.16-1.51-3.08-1.51-5.63V41h-3.33V38h3.33V32.86Z" transform="translate(-1.88 -2)"/><path class="cls-3" d="M165.49,49.58c.09,5.32,3.47,7.51,7.37,7.51a14.07,14.07,0,0,0,6-1.12l.67,2.82a17.34,17.34,0,0,1-7.15,1.34c-6.62,0-10.57-4.38-10.57-10.91s3.82-11.67,10.09-11.67c7,0,8.89,6.21,8.89,10.19a14.88,14.88,0,0,1-.13,1.83ZM177,46.76c0-2.5-1-6.39-5.42-6.39-4,0-5.69,3.67-6,6.39Z" transform="translate(-1.88 -2)"/><path class="cls-3" d="M204.1,38c-.09,1.56-.18,3.31-.18,5.94V56.55c0,5-1,8-3.07,9.88S195.75,69,193,69a13.82,13.82,0,0,1-7.15-1.79l1-3a12.07,12.07,0,0,0,6.31,1.7c4,0,6.93-2.1,6.93-7.55V56H200a7.67,7.67,0,0,1-6.84,3.62C187.84,59.59,184,55,184,49c0-7.33,4.75-11.49,9.69-11.49a7.15,7.15,0,0,1,6.71,3.75h.09l.18-3.26Zm-4,8.54a5.75,5.75,0,0,0-5.69-5.94c-3.73,0-6.4,3.17-6.4,8.18,0,4.25,2.13,7.78,6.35,7.78a5.72,5.72,0,0,0,5.42-4,6.89,6.89,0,0,0,.31-2.1Z" transform="translate(-1.88 -2)"/><path class="cls-3" d="M214.5,32a2.42,2.42,0,0,1-4.84,0,2.39,2.39,0,0,1,2.44-2.46A2.33,2.33,0,0,1,214.5,32Zm-4.35,27.71V38h3.91V59.68Z" transform="translate(-1.88 -2)"/><path class="cls-3" d="M235.88,58.87a14.32,14.32,0,0,1-6.18,1.25c-6.49,0-10.71-4.42-10.71-11s4.53-11.49,11.55-11.49A13,13,0,0,1,236,38.71l-.89,3a9,9,0,0,0-4.53-1c-4.93,0-7.6,3.67-7.6,8.18,0,5,3.2,8.09,7.47,8.09a11.05,11.05,0,0,0,4.8-1.07Z" transform="translate(-1.88 -2)"/><path class="cls-3" d="M81.72,82.57l-2.74,4H75.46l9-12.67h4.11l9,12.67H93.89l-2.82-4Zm8.65-1.28-2.58-3.65a20.1,20.1,0,0,1-1.37-2.31h-.08A26.2,26.2,0,0,1,85,77.63L82.43,81.3Z" transform="translate(-1.88 -2)"/><path class="cls-3" d="M101.4,86.56V73.89h3.72l8.45,6.41a40.82,40.82,0,0,1,4.74,4.12l.08,0a27.37,27.37,0,0,1-.39-5.21v-5.3h3.21V86.56h-3.45l-8.38-6.43a46.47,46.47,0,0,1-4.93-4.23l-.12,0a41,41,0,0,1,.27,5.22v5.41Z" transform="translate(-1.88 -2)"/><path class="cls-3" d="M131.41,82.57l-2.74,4h-3.52l9-12.67h4.11l9,12.67h-3.64l-2.82-4Zm8.65-1.28-2.58-3.65a20.1,20.1,0,0,1-1.37-2.31H136a26.2,26.2,0,0,1-1.33,2.29l-2.58,3.67Z" transform="translate(-1.88 -2)"/><path class="cls-3" d="M151.09,73.89h3.41V85.19h11.27v1.37H151.09Z" transform="translate(-1.88 -2)"/><path class="cls-3" d="M172.15,86.56V81.18l-8.34-7.29h3.87l3.72,3.49c1,1,1.8,1.73,2.62,2.61h.08c.74-.83,1.64-1.65,2.66-2.61l3.8-3.49h3.87l-8.85,7.27v5.39Z" transform="translate(-1.88 -2)"/><path class="cls-3" d="M193.78,75.28h-8V73.89h19.53v1.39h-8.06V86.56h-3.45Z" transform="translate(-1.88 -2)"/><path class="cls-3" d="M211.62,73.89V86.56h-3.41V73.89Z" transform="translate(-1.88 -2)"/><path class="cls-3" d="M232,86.56l-3.37-2.8c-1.37-1.07-2.23-1.77-3.05-2.5h-.08a36,36,0,0,1-2.86,2.52l-3.17,2.78h-3.91l8.06-6.41-7.75-6.26h4l3.48,3c1,.83,1.72,1.47,2.43,2.14h.12a29.82,29.82,0,0,1,2.39-2.14l3.6-3h3.91l-8,6.16,8.22,6.5Z" transform="translate(-1.88 -2)"/></svg>