<?xml version="1.0" encoding="utf-8"?>
<!-- Generator: Adobe Illustrator 16.0.0, SVG Export Plug-In . SVG Version: 6.00 Build 0)  -->
<!DOCTYPE svg PUBLIC "-//W3C//DTD SVG 1.1//EN" "http://www.w3.org/Graphics/SVG/1.1/DTD/svg11.dtd">
<svg version="1.1" id="Layer_1" xmlns="http://www.w3.org/2000/svg" xmlns:xlink="http://www.w3.org/1999/xlink" x="0px" y="0px"
	 width="1400px" height="980px" viewBox="0 0 1400 980" enable-background="new 0 0 1400 980" xml:space="preserve">
<g>
	<g>
		<g>
			<rect fill="#FFFFFF" width="1400" height="980"/>
		</g>
	</g>
	<g>
		<g>
			<path fill="#63B4FF" d="M857.1,246.1c1.7-5.6,2.6-11.6,2.6-17.8c0-34.5-28-62.5-62.5-62.5h-3.8c0-0.8,0.1-1.6,0.1-2.5
				c0-27.1-21.9-49-49-49c-9.4,0-18.2,2.7-25.6,7.3c-16.5-24.4-44.5-40.4-76.1-40.4c-50.8,0-91.9,41.2-91.9,91.9
				c0,5.9,0.6,11.6,1.7,17.2c-27.4,0.4-49.5,22.7-49.5,50.2c0,1.9,0.1,3.7,0.3,5.5H857.1z"/>
			<path d="M857.1,249.8H503.3c-1.9,0-3.4-1.4-3.7-3.3c-0.2-1.9-0.3-3.9-0.3-5.9c0-27.8,21.5-51.1,48.8-53.7c-0.7-4.7-1-9.3-1-13.8
				c0-52.7,42.9-95.6,95.6-95.6c30.6,0,59.2,14.6,77.2,39.2c7.6-4,16-6.1,24.5-6.1c28.7,0,52,23,52.7,51.5h0
				c36.5,0,66.2,29.7,66.2,66.2c0,6.3-0.9,12.6-2.8,18.8C860.1,248.7,858.7,249.8,857.1,249.8z M506.7,242.4h347.6
				c1.2-4.7,1.7-9.4,1.7-14.1c0-32.4-26.4-58.8-58.8-58.8h-3.8c-1,0-2-0.4-2.7-1.1c-0.7-0.7-1.1-1.7-1-2.7l0.1-0.8
				c0-0.5,0.1-1,0.1-1.4c0-25-20.3-45.4-45.4-45.4c-8.3,0-16.5,2.3-23.7,6.7c-1.7,1-3.9,0.6-5-1.1c-16.5-24.3-43.8-38.8-73.1-38.8
				c-48.7,0-88.3,39.6-88.3,88.3c0,5.3,0.5,10.9,1.6,16.5c0.2,1.1-0.1,2.2-0.8,3c-0.7,0.8-1.7,1.3-2.8,1.4
				c-25.3,0.4-45.9,21.3-45.9,46.5C506.6,241.2,506.6,241.8,506.7,242.4z"/>
		</g>
		<g>
			<path d="M732.2,284.1H630.4c-2,0-3.7-1.6-3.7-3.7c0-2,1.6-3.7,3.7-3.7h101.8c2,0,3.7,1.6,3.7,3.7
				C735.9,282.5,734.2,284.1,732.2,284.1z"/>
		</g>
		<g>
			<path d="M607.5,284.1h-22.7c-2,0-3.7-1.6-3.7-3.7c0-2,1.6-3.7,3.7-3.7h22.7c2,0,3.7,1.6,3.7,3.7
				C611.1,282.5,609.5,284.1,607.5,284.1z"/>
		</g>
		<g>
			<path d="M565.5,284.1h-22.7c-2,0-3.7-1.6-3.7-3.7c0-2,1.6-3.7,3.7-3.7h22.7c2,0,3.7,1.6,3.7,3.7
				C569.1,282.5,567.5,284.1,565.5,284.1z"/>
		</g>
		<g>
			<path d="M819.8,284.1h-22.7c-2,0-3.7-1.6-3.7-3.7c0-2,1.6-3.7,3.7-3.7h22.7c2,0,3.7,1.6,3.7,3.7
				C823.5,282.5,821.8,284.1,819.8,284.1z"/>
		</g>
		<g>
			<path d="M777.8,284.1h-22.7c-2,0-3.7-1.6-3.7-3.7c0-2,1.6-3.7,3.7-3.7h22.7c2,0,3.7,1.6,3.7,3.7
				C781.5,282.5,779.9,284.1,777.8,284.1z"/>
		</g>
		<g>
			<path d="M665.7,368.7H541.4c-2,0-3.7-1.6-3.7-3.7c0-2,1.6-3.7,3.7-3.7H662v-80.9c0-2,1.6-3.7,3.7-3.7s3.7,1.6,3.7,3.7V365
				C669.4,367,667.7,368.7,665.7,368.7z"/>
		</g>
		<g>
			<path d="M813.4,415.2H700c-2,0-3.7-1.6-3.7-3.7V280.4c0-2,1.6-3.7,3.7-3.7s3.7,1.6,3.7,3.7v127.5h109.8c2,0,3.7,1.6,3.7,3.7
				C817.1,413.6,815.5,415.2,813.4,415.2z"/>
		</g>
		<g>
			<rect x="814.1" y="384.9" fill="#FFF6BA" width="53.3" height="53.3"/>
			<path d="M867.4,441.9h-53.3c-2,0-3.7-1.6-3.7-3.7v-53.3c0-2,1.6-3.7,3.7-3.7h53.3c2,0,3.7,1.6,3.7,3.7v53.3
				C871.1,440.3,869.4,441.9,867.4,441.9z M817.7,434.6h46v-46h-46V434.6z"/>
		</g>
		<g>
			<rect x="486.2" y="338.3" fill="#FFF6BA" width="53.3" height="53.3"/>
			<path d="M539.5,395.3h-53.3c-2,0-3.7-1.6-3.7-3.7v-53.3c0-2,1.6-3.7,3.7-3.7h53.3c2,0,3.7,1.6,3.7,3.7v53.3
				C543.2,393.7,541.5,395.3,539.5,395.3z M489.9,388h46v-46h-46V388z"/>
		</g>
		<g>
			<rect x="1025.2" y="384.9" fill="#FFF6BA" width="53.3" height="53.3"/>
			<path d="M1078.5,441.9h-53.3c-2,0-3.7-1.6-3.7-3.7v-53.3c0-2,1.6-3.7,3.7-3.7h53.3c2,0,3.7,1.6,3.7,3.7v53.3
				C1082.2,440.3,1080.5,441.9,1078.5,441.9z M1028.9,434.6h46v-46h-46V434.6z"/>
		</g>
		<g>
			<rect x="673.3" y="724.1" fill="#FFF6BA" width="53.3" height="53.3"/>
			<path d="M726.7,781.1h-53.3c-2,0-3.7-1.6-3.7-3.7v-53.3c0-2,1.6-3.7,3.7-3.7h53.3c2,0,3.7,1.6,3.7,3.7v53.3
				C730.3,779.5,728.7,781.1,726.7,781.1z M677,773.8h46v-46h-46V773.8z"/>
		</g>
		<g>
			<path d="M700,727.8c-2,0-3.7-1.6-3.7-3.7V411.6c0-2,1.6-3.7,3.7-3.7s3.7,1.6,3.7,3.7v312.6C703.7,726.2,702,727.8,700,727.8z"/>
		</g>
		<g>
			<path d="M1025.2,415.2H867.4c-2,0-3.7-1.6-3.7-3.7c0-2,1.6-3.7,3.7-3.7h157.8c2,0,3.7,1.6,3.7,3.7
				C1028.9,413.6,1027.2,415.2,1025.2,415.2z"/>
		</g>
	</g>
	<g>
		<path fill="#FFAA98" d="M577.1,466.6h-63.3h-63.3c0,0-1.1,26.9-30.4,39.7c0,0,9.5,127.1,93.7,154c84.2-26.9,93.7-154,93.7-154
			C578.2,493.5,577.1,466.6,577.1,466.6z M513.8,632.3c-44.6-20.4-60.5-83.4-65.6-112.7c10.3-8.1,17.2-17.7,21.6-27h87.9
			c4.4,9.3,11.3,18.9,21.7,27C574.4,549,558.7,611.9,513.8,632.3z"/>
		<path d="M513.7,663.9c-0.4,0-0.8-0.1-1.1-0.2c-85.6-27.3-95.9-152-96.3-157.2c-0.1-1.6,0.8-3,2.2-3.6
			c26.8-11.7,28.2-36.2,28.2-36.4c0.1-2,1.7-3.5,3.7-3.5h126.7c2,0,3.6,1.6,3.7,3.5c0,1,1.5,24.8,28.2,36.4c1.4,0.6,2.3,2.1,2.2,3.6
			c-0.4,5.3-10.6,129.9-96.3,157.2C514.5,663.9,514.1,663.9,513.7,663.9z M423.9,508.5c1.9,17.7,16.3,123.4,89.8,147.9
			c73.5-24.5,87.9-130.2,89.8-147.9c-22.8-11.1-28.4-30.3-29.7-38.2H453.7C452.3,478.2,446.8,497.4,423.9,508.5z M513.8,636
			c-0.5,0-1-0.1-1.5-0.3c-46.7-21.4-62.9-87.8-67.7-115.4c-0.2-1.3,0.3-2.7,1.4-3.5c8.8-6.9,15.8-15.5,20.6-25.7
			c0.6-1.3,1.9-2.1,3.3-2.1h87.9c1.4,0,2.7,0.8,3.3,2.1c4.8,10.1,11.8,18.8,20.6,25.7c1.1,0.8,1.6,2.2,1.4,3.5
			c-4.7,27.5-20.6,93.9-67.7,115.4C514.8,635.9,514.3,636,513.8,636z M452.2,521.1c5,27.2,20.3,87,61.6,107.1
			c41.6-20.2,56.8-79.9,61.6-107.1c-8.4-6.9-15.1-15.2-20-24.9h-83.3C467.2,505.9,460.5,514.3,452.2,521.1z"/>
	</g>
	<g>
		<path d="M513.8,636c-0.5,0-1-0.1-1.5-0.3c-46.7-21.4-62.9-87.8-67.7-115.4c-0.2-1.3,0.3-2.7,1.4-3.5c8.8-6.9,15.8-15.5,20.6-25.7
			c0.6-1.3,1.9-2.1,3.3-2.1h87.9c1.4,0,2.7,0.8,3.3,2.1c4.8,10.1,11.8,18.8,20.6,25.7c1.1,0.8,1.6,2.2,1.4,3.5
			c-4.7,27.5-20.6,93.9-67.7,115.4C514.8,635.9,514.3,636,513.8,636z M452.2,521.1c5,27.2,20.3,87,61.6,107.1
			c41.6-20.2,56.8-79.9,61.6-107.1c-8.4-6.9-15.1-15.2-20-24.9h-83.3C467.2,505.9,460.5,514.3,452.2,521.1z"/>
	</g>
	<g>
		<path d="M486.2,368.7H348.1c-2,0-3.7-1.6-3.7-3.7c0-2,1.6-3.7,3.7-3.7h138.1c2,0,3.7,1.6,3.7,3.7
			C489.9,367,488.2,368.7,486.2,368.7z"/>
	</g>
	<g>
		<g>
			<g>
				<path fill="#E6E7E8" d="M99,510.9c0,11.6,9.5,21.1,21.1,21.1h207c11.6,0,21-9.5,21-21.1v-44.3H99V510.9z"/>
				<path d="M327.1,535.6H120c-13.6,0-24.7-11.1-24.7-24.7v-44.3c0-2,1.6-3.7,3.7-3.7h249.1c2,0,3.7,1.6,3.7,3.7v44.3
					C351.8,524.5,340.7,535.6,327.1,535.6z M102.7,470.2v40.6c0,9.6,7.8,17.4,17.4,17.4h207c9.6,0,17.4-7.8,17.4-17.4v-40.6H102.7z"
					/>
			</g>
			<g>
				<path fill="#E6E7E8" d="M348.1,132.8c0-11.6-9.5-21.1-21-21.1H120c-11.6,0-21.1,9.5-21.1,21.1v39.5h249.1V132.8z"/>
				<path d="M348.1,176H99c-2,0-3.7-1.6-3.7-3.7v-39.5c0-13.6,11.1-24.7,24.7-24.7h207c13.6,0,24.7,11.1,24.7,24.7v39.5
					C351.8,174.3,350.1,176,348.1,176z M102.7,168.6h241.8v-35.8c0-9.6-7.8-17.4-17.4-17.4H120c-9.6,0-17.4,7.8-17.4,17.4V168.6z"/>
			</g>
			<g>
				<path d="M348.1,470.2H99c-2,0-3.7-1.6-3.7-3.7V172.3c0-2,1.6-3.7,3.7-3.7h249.1c2,0,3.7,1.6,3.7,3.7v294.3
					C351.8,468.6,350.1,470.2,348.1,470.2z M102.7,462.9h241.8V176H102.7V462.9z"/>
			</g>
		</g>
		<g>
			<path d="M258.6,502.9h-70.2c-2,0-3.7-1.6-3.7-3.7c0-2,1.6-3.7,3.7-3.7h70.2c2,0,3.7,1.6,3.7,3.7
				C262.3,501.3,260.7,502.9,258.6,502.9z"/>
		</g>
		<g>
			<path d="M284.3,145.7h-38.2c-2,0-3.7-1.6-3.7-3.7c0-2,1.6-3.7,3.7-3.7h38.2c2,0,3.7,1.6,3.7,3.7
				C288,144.1,286.3,145.7,284.3,145.7z"/>
		</g>
		<g>
			<path fill="#63B4FF" d="M297.2,305.7c0.8-2.5,1.4-5.1,1.4-7.9c0-13.3-10.2-24.2-23.2-25.4c0-0.1,0-0.2,0-0.3
				c0-23.2-18.9-42.1-42.1-42.1c-23.3,0-42.1,18.9-42.1,42.1h-16.9c-14.2,0-25.7,11.5-25.7,25.7c0,2.8,0.6,5.4,1.4,7.9H297.2z"/>
			<path d="M297.2,309.3H149.9c-1.6,0-3-1-3.5-2.5c-1-3.2-1.6-6.2-1.6-9c0-16.2,13.2-29.3,29.3-29.3h13.4
				c1.9-23.5,21.6-42.1,45.6-42.1c24.3,0,44.2,19,45.7,42.9c13.5,2.8,23.3,14.6,23.3,28.6c0,2.9-0.5,5.8-1.5,9
				C300.2,308.3,298.8,309.3,297.2,309.3z M152.7,302h141.7c0.3-1.5,0.5-2.9,0.5-4.2c0-11.3-8.6-20.7-19.9-21.8c-2-0.2-3.5-2-3.3-4
				c0-21.1-17.2-38.4-38.4-38.4c-21.2,0-38.4,17.2-38.4,38.4c0,2-1.6,3.7-3.7,3.7h-16.9c-12.1,0-22,9.9-22,22
				C152.2,299.1,152.4,300.5,152.7,302z"/>
		</g>
		<g>
			<path d="M188.5,390.8c-2,0-3.7-1.6-3.7-3.7v-56.6c0-2,1.6-3.7,3.7-3.7c2,0,3.7,1.6,3.7,3.7v56.6
				C192.2,389.2,190.5,390.8,188.5,390.8z"/>
		</g>
		<g>
			<path d="M250.7,412.5c-2,0-3.7-1.6-3.7-3.7v-78.3c0-2,1.6-3.7,3.7-3.7c2,0,3.7,1.6,3.7,3.7v78.3
				C254.4,410.9,252.8,412.5,250.7,412.5z"/>
		</g>
		<g>
			<path d="M188.5,390.8c-1,0-1.9-0.4-2.6-1.1l-20-20c-1.4-1.4-1.4-3.8,0-5.2s3.8-1.4,5.2,0l17.4,17.4l17.4-17.4
				c1.4-1.4,3.8-1.4,5.2,0c1.4,1.4,1.4,3.8,0,5.2l-20,20C190.4,390.4,189.5,390.8,188.5,390.8z"/>
		</g>
		<g>
			<path d="M250.7,412.5c-0.9,0-1.9-0.4-2.6-1.1l-20-20c-1.4-1.4-1.4-3.8,0-5.2c1.4-1.4,3.8-1.4,5.2,0l17.4,17.4l17.4-17.4
				c1.4-1.4,3.8-1.4,5.2,0c1.4,1.4,1.4,3.8,0,5.2l-20,20C252.6,412.2,251.7,412.5,250.7,412.5z"/>
		</g>
	</g>
	<g>
		<path d="M513.7,470.2c-2,0-3.7-1.6-3.7-3.7v-74.9c0-2,1.6-3.7,3.7-3.7c2,0,3.7,1.6,3.7,3.7v74.9
			C517.4,468.6,515.8,470.2,513.7,470.2z"/>
	</g>
	<g>
		<path fill="#63B4FF" d="M919.7,589.3c0,43.6-35.4,79-79,79c-43.6,0-79-35.4-79-79s35.4-79,79-79
			C884.3,510.3,919.7,545.7,919.7,589.3z"/>
		<path d="M840.7,672c-45.6,0-82.6-37.1-82.6-82.6c0-45.6,37.1-82.6,82.6-82.6c45.6,0,82.6,37.1,82.6,82.6
			C923.3,634.9,886.3,672,840.7,672z M840.7,514c-41.5,0-75.3,33.8-75.3,75.3c0,41.5,33.8,75.3,75.3,75.3
			c41.5,0,75.3-33.8,75.3-75.3C916,547.8,882.2,514,840.7,514z"/>
	</g>
	<g>
		<path d="M840.7,514c-2,0-3.7-1.6-3.7-3.7v-72.1c0-2,1.6-3.7,3.7-3.7c2,0,3.7,1.6,3.7,3.7v72.1C844.4,512.4,842.7,514,840.7,514z"
			/>
	</g>
	<g>
		<path fill="#FFFFFF" d="M796.6,637.1c-0.9,0-1.9-0.4-2.6-1.1c-1.4-1.4-1.4-3.8,0-5.2l44.1-44.1c0.7-0.7,1.6-1.1,2.6-1.1h47.1
			c2,0,3.7,1.6,3.7,3.7c0,2-1.6,3.7-3.7,3.7h-45.6l-43,43C798.5,636.7,797.5,637.1,796.6,637.1z"/>
	</g>
	<g>
		<path d="M353.7,685.5h-240c-10.1,0-18.4-8.3-18.4-18.4v-41.1c0-10.1,8.2-18.4,18.4-18.4h240c10.1,0,18.4,8.2,18.4,18.4v41.1
			C372.1,677.3,363.8,685.5,353.7,685.5z M113.7,615c-6.1,0-11,4.9-11,11v41.1c0,6.1,4.9,11,11,11h240c6.1,0,11-4.9,11-11v-41.1
			c0-6.1-4.9-11-11-11H113.7z"/>
	</g>
	<g>
		<path d="M353.7,789.7h-240c-10.1,0-18.4-8.2-18.4-18.4v-41.1c0-10.1,8.2-18.4,18.4-18.4h240c10.1,0,18.4,8.2,18.4,18.4v41.1
			C372.1,781.5,363.8,789.7,353.7,789.7z M113.7,719.2c-6.1,0-11,4.9-11,11v41.1c0,6.1,4.9,11,11,11h240c6.1,0,11-4.9,11-11v-41.1
			c0-6.1-4.9-11-11-11H113.7z"/>
	</g>
	<g>
		<path d="M353.7,893.9h-240c-10.1,0-18.4-8.2-18.4-18.4v-41.1c0-10.1,8.2-18.4,18.4-18.4h240c10.1,0,18.4,8.2,18.4,18.4v41.1
			C372.1,885.7,363.8,893.9,353.7,893.9z M113.7,823.4c-6.1,0-11,4.9-11,11v41.1c0,6.1,4.9,11,11,11h240c6.1,0,11-4.9,11-11v-41.1
			c0-6.1-4.9-11-11-11H113.7z"/>
	</g>
	<g>
		<path d="M673.3,754.5H368.4c-2,0-3.7-1.6-3.7-3.7c0-2,1.6-3.7,3.7-3.7h304.9c2,0,3.7,1.6,3.7,3.7
			C677,752.8,675.4,754.5,673.3,754.5z"/>
	</g>
	<g>
		<rect x="147.7" y="681.9" fill="#E6E7E8" width="172" height="33.7"/>
		<path d="M319.7,719.2h-172c-2,0-3.7-1.6-3.7-3.7v-33.7c0-2,1.6-3.7,3.7-3.7h172c2,0,3.7,1.6,3.7,3.7v33.7
			C323.4,717.6,321.7,719.2,319.7,719.2z M151.4,711.9H316v-26.3H151.4V711.9z"/>
	</g>
	<g>
		<rect x="147.7" y="786" fill="#E6E7E8" width="172" height="33.7"/>
		<path d="M319.7,823.4h-172c-2,0-3.7-1.6-3.7-3.7V786c0-2,1.6-3.7,3.7-3.7h172c2,0,3.7,1.6,3.7,3.7v33.7
			C323.4,821.8,321.7,823.4,319.7,823.4z M151.4,816.1H316v-26.3H151.4V816.1z"/>
	</g>
	<g>
		<path d="M1160.5,301.3H959c-2,0-3.7-1.6-3.7-3.7V96.1c0-2,1.6-3.7,3.7-3.7h201.5c2,0,3.7,1.6,3.7,3.7v201.5
			C1164.2,299.6,1162.5,301.3,1160.5,301.3z M962.7,293.9h194.2V99.8H962.7V293.9z"/>
	</g>
	<g>
		<path d="M1127.6,146.6H991.9c-2,0-3.7-1.6-3.7-3.7c0-2,1.6-3.7,3.7-3.7h135.6c2,0,3.7,1.6,3.7,3.7
			C1131.3,145,1129.6,146.6,1127.6,146.6z"/>
	</g>
	<g>
		<path d="M1127.6,200.5H991.9c-2,0-3.7-1.6-3.7-3.7c0-2,1.6-3.7,3.7-3.7h135.6c2,0,3.7,1.6,3.7,3.7
			C1131.3,198.9,1129.6,200.5,1127.6,200.5z"/>
	</g>
	<g>
		<path d="M1127.6,254.4H991.9c-2,0-3.7-1.6-3.7-3.7s1.6-3.7,3.7-3.7h135.6c2,0,3.7,1.6,3.7,3.7S1129.6,254.4,1127.6,254.4z"/>
	</g>
	<g>
		<g>
			<path fill="#E6E7E8" d="M1308.3,248.9c0,58.5-47.5,106-106,106c-58.5,0-106-47.5-106-106c0-58.5,47.5-106,106-106
				C1260.9,142.9,1308.3,190.4,1308.3,248.9z"/>
			<path d="M1202.4,358.6c-60.5,0-109.7-49.2-109.7-109.7c0-60.5,49.2-109.7,109.7-109.7c60.5,0,109.7,49.2,109.7,109.7
				C1312,309.4,1262.8,358.6,1202.4,358.6z M1202.4,146.6c-56.4,0-102.3,45.9-102.3,102.3c0,56.4,45.9,102.3,102.3,102.3
				c56.4,0,102.3-45.9,102.3-102.3C1304.7,192.5,1258.8,146.6,1202.4,146.6z"/>
		</g>
		<g>
			<path fill="#FFFFFF" d="M1221.9,248.9c0,10.8-8.7,19.5-19.5,19.5c-10.8,0-19.5-8.7-19.5-19.5c0-10.8,8.7-19.5,19.5-19.5
				C1213.1,229.4,1221.9,238.1,1221.9,248.9z"/>
			<path d="M1202.4,272.1c-12.8,0-23.2-10.4-23.2-23.2c0-12.8,10.4-23.2,23.2-23.2c12.8,0,23.2,10.4,23.2,23.2
				C1225.6,261.7,1215.1,272.1,1202.4,272.1z M1202.4,233.1c-8.7,0-15.9,7.1-15.9,15.8c0,8.7,7.1,15.9,15.9,15.9
				c8.7,0,15.9-7.1,15.9-15.9C1218.2,240.2,1211.1,233.1,1202.4,233.1z"/>
		</g>
		<g>
			<path d="M1118.9,252.6c-2,0-3.7-1.6-3.7-3.7c0-48,39.1-87.1,87.1-87.1c2,0,3.7,1.6,3.7,3.7s-1.6,3.7-3.7,3.7
				c-44,0-79.8,35.8-79.8,79.8C1122.6,251,1120.9,252.6,1118.9,252.6z"/>
		</g>
		<g>
			<path d="M1202.4,336.1c-2,0-3.7-1.6-3.7-3.7c0-2,1.6-3.7,3.7-3.7c44,0,79.8-35.8,79.8-79.8c0-2,1.6-3.7,3.7-3.7
				c2,0,3.7,1.6,3.7,3.7C1289.5,297,1250.4,336.1,1202.4,336.1z"/>
		</g>
	</g>
	<g>
		<path d="M314.6,650.3H152.8c-2,0-3.7-1.6-3.7-3.7c0-2,1.6-3.7,3.7-3.7h161.7c2,0,3.7,1.6,3.7,3.7
			C318.2,648.6,316.6,650.3,314.6,650.3z"/>
	</g>
	<g>
		<path d="M314.6,754.5H152.8c-2,0-3.7-1.6-3.7-3.7c0-2,1.6-3.7,3.7-3.7h161.7c2,0,3.7,1.6,3.7,3.7
			C318.2,752.8,316.6,754.5,314.6,754.5z"/>
	</g>
	<g>
		<path d="M314.6,858.7H152.8c-2,0-3.7-1.6-3.7-3.7c0-2,1.6-3.7,3.7-3.7h161.7c2,0,3.7,1.6,3.7,3.7
			C318.2,857,316.6,858.7,314.6,858.7z"/>
	</g>
	<g>
		<path fill="#FFAA98" d="M136.5,646.6c0,5.3-4.3,9.5-9.5,9.5c-5.3,0-9.5-4.3-9.5-9.5c0-5.2,4.3-9.5,9.5-9.5
			C132.2,637.1,136.5,641.4,136.5,646.6z"/>
		<path d="M127,659.8c-7.3,0-13.2-5.9-13.2-13.2c0-7.3,5.9-13.2,13.2-13.2c7.3,0,13.2,5.9,13.2,13.2
			C140.1,653.9,134.2,659.8,127,659.8z M127,640.8c-3.2,0-5.8,2.6-5.8,5.8c0,3.2,2.6,5.8,5.8,5.8c3.2,0,5.8-2.6,5.8-5.8
			C132.8,643.4,130.2,640.8,127,640.8z"/>
	</g>
	<g>
		<path fill="#FFAA98" d="M136.5,750.8c0,5.3-4.3,9.5-9.5,9.5c-5.3,0-9.5-4.3-9.5-9.5c0-5.2,4.3-9.5,9.5-9.5
			C132.2,741.3,136.5,745.6,136.5,750.8z"/>
		<path d="M127,764c-7.3,0-13.2-5.9-13.2-13.2c0-7.3,5.9-13.2,13.2-13.2c7.3,0,13.2,5.9,13.2,13.2C140.1,758.1,134.2,764,127,764z
			 M127,745c-3.2,0-5.8,2.6-5.8,5.8c0,3.2,2.6,5.8,5.8,5.8c3.2,0,5.8-2.6,5.8-5.8C132.8,747.6,130.2,745,127,745z"/>
	</g>
	<g>
		<path fill="#FFAA98" d="M136.5,855c0,5.3-4.3,9.5-9.5,9.5c-5.3,0-9.5-4.3-9.5-9.5c0-5.2,4.3-9.5,9.5-9.5
			C132.2,845.5,136.5,849.8,136.5,855z"/>
		<path d="M127,868.2c-7.3,0-13.2-5.9-13.2-13.2c0-7.3,5.9-13.2,13.2-13.2c7.3,0,13.2,5.9,13.2,13.2
			C140.1,862.3,134.2,868.2,127,868.2z M127,849.2c-3.2,0-5.8,2.6-5.8,5.8c0,3.2,2.6,5.8,5.8,5.8c3.2,0,5.8-2.6,5.8-5.8
			C132.8,851.8,130.2,849.2,127,849.2z"/>
	</g>
	<g>
		<path d="M1051.8,388.6c-2,0-3.7-1.6-3.7-3.7v-87.3c0-2,1.6-3.7,3.7-3.7s3.7,1.6,3.7,3.7v87.3
			C1055.5,386.9,1053.9,388.6,1051.8,388.6z"/>
	</g>
	<g>
		<g>
			<path fill="#FFF6BA" d="M1256.8,666.1H1125l-25.5-37h-95.3v50.1v10.7v169.4c0,7.2,5.9,13.1,13.1,13.1h239.5
				c7.2,0,13.1-5.9,13.1-13.1V679.3C1269.9,672,1264,666.1,1256.8,666.1z"/>
			<path d="M1256.8,876.1h-239.5c-9.3,0-16.8-7.5-16.8-16.8V629.1c0-2,1.6-3.7,3.7-3.7h95.3c1.2,0,2.3,0.6,3,1.6l24.4,35.4h129.9
				c9.3,0,16.8,7.5,16.8,16.8v180.1C1273.6,868.6,1266.1,876.1,1256.8,876.1z M1007.9,632.8v226.5c0,5.2,4.2,9.5,9.5,9.5h239.5
				c5.2,0,9.5-4.2,9.5-9.5V679.3c0-5.2-4.2-9.5-9.5-9.5H1125c-1.2,0-2.3-0.6-3-1.6l-24.4-35.4H1007.9z"/>
		</g>
		<g>
			<path d="M977.9,663.2c-2,0-3.7-1.6-3.7-3.7v-56.7c0-2,1.6-3.7,3.7-3.7h62.5c2,0,3.7,1.6,3.7,3.7s-1.6,3.7-3.7,3.7h-58.8v53
				C981.6,661.6,979.9,663.2,977.9,663.2z"/>
		</g>
		<g>
			<path fill="#FFFFFF" d="M1017.3,898.8c-21.7,0-39.4-17.7-39.4-39.4"/>
			<path d="M1017.3,902.4c-23.8,0-43.1-19.3-43.1-43.1c0-2,1.6-3.7,3.7-3.7c2,0,3.7,1.6,3.7,3.7c0,19.7,16,35.8,35.8,35.8
				c2,0,3.7,1.6,3.7,3.7S1019.4,902.4,1017.3,902.4z"/>
		</g>
		<g>
			<path fill="#FFFFFF" d="M1296.2,859.3c0,21.7-17.7,39.4-39.4,39.4"/>
			<path d="M1256.8,902.4c-2,0-3.7-1.6-3.7-3.7s1.6-3.7,3.7-3.7c19.7,0,35.8-16,35.8-35.8c0-2,1.6-3.7,3.7-3.7c2,0,3.7,1.6,3.7,3.7
				C1299.9,883.1,1280.6,902.4,1256.8,902.4z"/>
		</g>
		<g>
			<path fill="#FFFFFF" d="M1256.8,639.8c21.7,0,39.4,17.7,39.4,39.4"/>
			<path d="M1296.2,682.9c-2,0-3.7-1.6-3.7-3.7c0-19.7-16-35.8-35.8-35.8c-2,0-3.7-1.6-3.7-3.7s1.6-3.7,3.7-3.7
				c23.8,0,43.1,19.3,43.1,43.1C1299.9,681.3,1298.3,682.9,1296.2,682.9z"/>
		</g>
		<g>
			<path fill="#63B4FF" d="M1079.9,751.1c0,9.5-7.7,17.3-17.3,17.3c-9.5,0-17.3-7.7-17.3-17.3c0-9.5,7.7-17.3,17.3-17.3
				C1072.2,733.8,1079.9,741.6,1079.9,751.1z"/>
			<path d="M1062.6,772c-11.5,0-20.9-9.4-20.9-20.9c0-11.5,9.4-20.9,20.9-20.9c11.5,0,20.9,9.4,20.9,20.9
				C1083.6,762.6,1074.2,772,1062.6,772z M1062.6,737.5c-7.5,0-13.6,6.1-13.6,13.6c0,7.5,6.1,13.6,13.6,13.6
				c7.5,0,13.6-6.1,13.6-13.6C1076.2,743.6,1070.1,737.5,1062.6,737.5z"/>
		</g>
		<g>
			<path fill="#63B4FF" d="M1154.3,751.1c0,9.5-7.7,17.3-17.3,17.3c-9.5,0-17.3-7.7-17.3-17.3c0-9.5,7.7-17.3,17.3-17.3
				C1146.6,733.8,1154.3,741.6,1154.3,751.1z"/>
			<path d="M1137.1,772c-11.5,0-20.9-9.4-20.9-20.9c0-11.5,9.4-20.9,20.9-20.9c11.5,0,20.9,9.4,20.9,20.9
				C1158,762.6,1148.6,772,1137.1,772z M1137.1,737.5c-7.5,0-13.6,6.1-13.6,13.6c0,7.5,6.1,13.6,13.6,13.6c7.5,0,13.6-6.1,13.6-13.6
				C1150.7,743.6,1144.6,737.5,1137.1,737.5z"/>
		</g>
		<g>
			<path fill="#63B4FF" d="M1228.8,751.1c0,9.5-7.7,17.3-17.3,17.3c-9.5,0-17.3-7.7-17.3-17.3c0-9.5,7.7-17.3,17.3-17.3
				C1221,733.8,1228.8,741.6,1228.8,751.1z"/>
			<path d="M1211.5,772c-11.5,0-20.9-9.4-20.9-20.9c0-11.5,9.4-20.9,20.9-20.9c11.5,0,20.9,9.4,20.9,20.9
				C1232.4,762.6,1223,772,1211.5,772z M1211.5,737.5c-7.5,0-13.6,6.1-13.6,13.6c0,7.5,6.1,13.6,13.6,13.6c7.5,0,13.6-6.1,13.6-13.6
				C1225.1,743.6,1219,737.5,1211.5,737.5z"/>
		</g>
	</g>
	<g>
		<path d="M1004.2,754.5H726.7c-2,0-3.7-1.6-3.7-3.7c0-2,1.6-3.7,3.7-3.7h277.5c2,0,3.7,1.6,3.7,3.7
			C1007.9,752.8,1006.2,754.5,1004.2,754.5z"/>
	</g>
	<g>
		<polygon fill="#E6E7E8" points="760.8,802.9 815.9,834.7 760.8,866.5 		"/>
		<path d="M760.8,870.2c-0.6,0-1.3-0.2-1.8-0.5c-1.1-0.7-1.8-1.9-1.8-3.2v-63.6c0-1.3,0.7-2.5,1.8-3.2c1.1-0.7,2.5-0.7,3.7,0
			l55.1,31.8c1.1,0.7,1.8,1.9,1.8,3.2c0,1.3-0.7,2.5-1.8,3.2l-55.1,31.8C762.1,870,761.5,870.2,760.8,870.2z M764.5,809.3v50.9
			l44.1-25.4L764.5,809.3z"/>
	</g>
	<g>
		<polygon fill="#E6E7E8" points="860.9,802.9 916,834.7 860.9,866.5 		"/>
		<path d="M860.9,870.2c-0.6,0-1.3-0.2-1.8-0.5c-1.1-0.7-1.8-1.9-1.8-3.2v-63.6c0-1.3,0.7-2.5,1.8-3.2c1.1-0.7,2.5-0.7,3.7,0
			l55.1,31.8c1.1,0.7,1.8,1.9,1.8,3.2c0,1.3-0.7,2.5-1.8,3.2l-55.1,31.8C862.2,870,861.6,870.2,860.9,870.2z M864.6,809.3v50.9
			l44.1-25.4L864.6,809.3z"/>
	</g>
	<g>
		<polygon fill="#E6E7E8" points="639.2,866.5 584.1,834.7 639.2,802.9 		"/>
		<path d="M639.2,870.2c-0.6,0-1.3-0.2-1.8-0.5l-55.1-31.8c-1.1-0.7-1.8-1.9-1.8-3.2c0-1.3,0.7-2.5,1.8-3.2l55.1-31.8
			c1.1-0.7,2.5-0.7,3.7,0c1.1,0.7,1.8,1.9,1.8,3.2v63.6c0,1.3-0.7,2.5-1.8,3.2C640.4,870,639.8,870.2,639.2,870.2z M591.4,834.7
			l44.1,25.4v-50.9L591.4,834.7z"/>
	</g>
	<g>
		<polygon fill="#E6E7E8" points="539.1,866.5 484,834.7 539.1,802.9 		"/>
		<path d="M539.1,870.2c-0.6,0-1.3-0.2-1.8-0.5l-55.1-31.8c-1.1-0.7-1.8-1.9-1.8-3.2c0-1.3,0.7-2.5,1.8-3.2l55.1-31.8
			c1.1-0.7,2.5-0.7,3.7,0c1.1,0.7,1.8,1.9,1.8,3.2v63.6c0,1.3-0.7,2.5-1.8,3.2C540.3,870,539.7,870.2,539.1,870.2z M491.3,834.7
			l44.1,25.4v-50.9L491.3,834.7z"/>
	</g>
	<g>
		<path d="M420,281.3c-23.5,0-42.5-19.1-42.5-42.5c0-23.5,19.1-42.5,42.5-42.5c23.5,0,42.5,19.1,42.5,42.5
			C462.6,262.2,443.5,281.3,420,281.3z M420,203.6c-19.4,0-35.2,15.8-35.2,35.2s15.8,35.2,35.2,35.2c19.4,0,35.2-15.8,35.2-35.2
			S439.4,203.6,420,203.6z"/>
	</g>
	<g>
		<path d="M442.3,242.4h-44.6c-2,0-3.7-1.6-3.7-3.7c0-2,1.6-3.7,3.7-3.7h44.6c2,0,3.7,1.6,3.7,3.7
			C446,240.8,444.4,242.4,442.3,242.4z"/>
	</g>
	<g>
		<path d="M420,264.7c-2,0-3.7-1.6-3.7-3.7v-44.6c0-2,1.6-3.7,3.7-3.7c2,0,3.7,1.6,3.7,3.7v44.6C423.7,263.1,422.1,264.7,420,264.7z
			"/>
	</g>
	<g>
		<path fill="#FFAA98" d="M1269.3,498.9l17.8-10.9c-1.3-4.6-3-9.2-5.1-13.6c-2.1-4.5-4.4-8.7-7.1-12.7l-19.9,6.4
			c-9.6-12.5-22.6-21.5-37.1-26.2l-0.5-20.9c-9.4-2.3-19.1-3.3-28.9-2.7l-4.4,20.4c-7.5,1-14.9,3.1-22.1,6.4
			c-7.2,3.3-13.6,7.6-19.2,12.6l-18.3-10c-6.8,7.1-12.4,15.1-16.8,23.7l15.5,14c-5.8,14.1-7.4,29.8-4.2,45.2l-17.8,10.9
			c1.3,4.6,3,9.1,5.1,13.6c2.1,4.5,4.4,8.7,7.1,12.7l19.9-6.4c9.6,12.5,22.6,21.5,37.1,26.2l0.5,20.9c9.4,2.3,19.1,3.3,28.9,2.7
			l4.4-20.4c7.5-1,14.9-3.1,22.1-6.4c7.2-3.3,13.6-7.6,19.2-12.6l18.3,10c6.8-7.1,12.4-15.1,16.8-23.7l-15.5-14
			C1271,530.1,1272.6,514.3,1269.3,498.9z M1194.2,567.7c-29.2,0-53-23.7-53-53c0-29.2,23.7-53,53-53c29.2,0,53,23.7,53,53
			C1247.2,544,1223.5,567.7,1194.2,567.7z"/>
		<path d="M1194.3,615.1c-8.2,0-16.3-1-24.2-3c-1.6-0.4-2.7-1.8-2.8-3.5l-0.5-18.3c-13.7-4.9-25.6-13.4-34.8-24.6l-17.4,5.6
			c-1.6,0.5-3.3-0.1-4.2-1.5c-2.7-4.2-5.2-8.6-7.3-13.2c-2.1-4.5-3.8-9.3-5.3-14.2c-0.5-1.6,0.2-3.3,1.6-4.2l15.6-9.6
			c-2.5-14.2-1.2-28.8,3.9-42.4l-13.6-12.3c-1.2-1.1-1.6-2.9-0.8-4.4c4.5-9.1,10.4-17.3,17.4-24.6c1.1-1.2,2.9-1.5,4.4-0.7l16.1,8.8
			c5.5-4.6,11.6-8.5,18.2-11.5c6.6-3,13.5-5.2,20.6-6.3l3.8-17.9c0.3-1.6,1.7-2.8,3.4-2.9c10.1-0.6,20.2,0.4,30,2.8
			c1.6,0.4,2.7,1.8,2.8,3.5l0.5,18.3c13.7,5,25.6,13.4,34.8,24.6l17.4-5.6c1.6-0.5,3.3,0.1,4.2,1.5c2.8,4.2,5.2,8.7,7.3,13.2
			c2.1,4.6,3.9,9.3,5.3,14.1c0.5,1.6-0.2,3.3-1.6,4.2l-15.6,9.6c2.5,14.3,1.2,28.8-3.9,42.4l13.6,12.3c1.2,1.1,1.6,2.9,0.8,4.4
			c-4.5,9-10.4,17.3-17.4,24.6c-1.1,1.2-3,1.5-4.4,0.7l-16.1-8.7c-5.5,4.6-11.6,8.5-18.2,11.5c-6.6,3-13.5,5.1-20.6,6.3l-3.8,17.9
			c-0.3,1.6-1.7,2.8-3.4,2.9C1198.1,615,1196.2,615.1,1194.3,615.1z M1174.6,605.6c7.3,1.6,14.8,2.3,22.3,2.1l3.8-17.6
			c0.3-1.5,1.6-2.7,3.1-2.9c7.2-0.9,14.3-3,21-6.1c6.7-3.1,12.8-7.1,18.3-12c1.2-1,2.8-1.2,4.2-0.5l15.8,8.6
			c5-5.6,9.4-11.7,12.9-18.3l-13.4-12.1c-1.2-1-1.5-2.7-0.9-4.1c5.7-13.7,7.1-28.6,4-43c-0.3-1.5,0.3-3.1,1.7-3.9l15.4-9.4
			c-1.1-3.5-2.5-7-4.1-10.4c-1.6-3.4-3.3-6.7-5.3-9.9l-17.2,5.6c-1.5,0.5-3.1,0-4.1-1.3c-9-11.7-21.2-20.4-35.3-25
			c-1.5-0.5-2.5-1.8-2.5-3.4l-0.5-18c-7.3-1.6-14.8-2.3-22.3-2.1l-3.8,17.6c-0.3,1.5-1.6,2.7-3.1,2.9c-7.2,0.9-14.3,3-21,6.1
			c-6.7,3.1-12.8,7.1-18.3,12c-1.2,1-2.9,1.2-4.2,0.5l-15.8-8.6c-5,5.6-9.4,11.7-12.9,18.3l13.4,12.1c1.2,1,1.5,2.7,0.9,4.1
			c-5.7,13.7-7,28.6-4,43.1c0.3,1.5-0.3,3.1-1.7,3.9l-15.4,9.4c1.2,3.6,2.5,7.1,4.1,10.5c1.6,3.4,3.3,6.7,5.3,9.9l17.2-5.6
			c1.5-0.5,3.1,0,4.1,1.3c9,11.7,21.2,20.4,35.3,25c1.5,0.5,2.5,1.8,2.5,3.4L1174.6,605.6z M1194.2,571.4
			c-31.2,0-56.6-25.4-56.6-56.6c0-31.2,25.4-56.6,56.6-56.6c31.2,0,56.6,25.4,56.6,56.6C1250.9,546,1225.5,571.4,1194.2,571.4z
			 M1194.2,465.5c-27.2,0-49.3,22.1-49.3,49.3c0,27.2,22.1,49.3,49.3,49.3c27.2,0,49.3-22.1,49.3-49.3
			C1243.5,487.6,1221.4,465.5,1194.2,465.5z"/>
	</g>
	<g>
		<path d="M1017.3,502.9h-39.4c-2,0-3.7-1.6-3.7-3.7c0-2,1.6-3.7,3.7-3.7h39.4c2,0,3.7,1.6,3.7,3.7
			C1021,501.3,1019.4,502.9,1017.3,502.9z"/>
	</g>
	<g>
		<path d="M1045.4,535.6h-47.8c-2,0-3.7-1.6-3.7-3.7c0-2,1.6-3.7,3.7-3.7h47.8c2,0,3.7,1.6,3.7,3.7
			C1049.1,534,1047.4,535.6,1045.4,535.6z"/>
	</g>
</g>
</svg>
