<svg xmlns="http://www.w3.org/2000/svg" viewBox="0 0 178.11 218.33"><defs><style>.cls-1{opacity:0;}.cls-2{fill:#fff;}.cls-3{fill:#d8d8d8;}.cls-4{fill:#2d2d2d;}</style></defs><title>Asset 1</title><g id="Layer_2" data-name="Layer 2"><g id="Layer_1-2" data-name="Layer 1"><g class="cls-1"><path class="cls-2" d="M132.82,161.35V144.29l-17.2-2.14a47.35,47.35,0,0,0-6.08-14.66l10.65-13.68-12.06-12.06L94.45,112.39a47.35,47.35,0,0,0-14.66-6.08l-2.14-17.2H60.59l-2.14,17.2a47.39,47.39,0,0,0-14.67,6.08L30.11,101.75,18,113.81l10.65,13.68a47.35,47.35,0,0,0-6.08,14.66L5.42,144.29v17.06l17.19,2.14a47.32,47.32,0,0,0,6.08,14.67L18,191.83,30.11,203.9l13.68-10.65a47.39,47.39,0,0,0,14.67,6.08l2.14,17.19H77.65l2.14-17.19a47.35,47.35,0,0,0,14.66-6.08l13.68,10.65,12.06-12.06-10.65-13.68a47.33,47.33,0,0,0,6.08-14.67Zm-63.7,22.26a30.8,30.8,0,1,1,30.8-30.8A30.79,30.79,0,0,1,69.12,183.61Z"/></g><path class="cls-3" d="M77.65,218.33H60.59a1.81,1.81,0,0,1-1.79-1.58l-2-16a49.08,49.08,0,0,1-12.9-5.35l-12.69,9.88a1.81,1.81,0,0,1-2.39-.15L16.77,193.11a1.81,1.81,0,0,1-.15-2.39L26.5,178a49,49,0,0,1-5.35-12.9l-16-2a1.81,1.81,0,0,1-1.58-1.79V144.29a1.81,1.81,0,0,1,1.58-1.79l16-2a49,49,0,0,1,5.35-12.9l-9.88-12.69a1.81,1.81,0,0,1,.15-2.39l12.06-12.06a1.81,1.81,0,0,1,2.39-.15l12.69,9.88a49,49,0,0,1,12.9-5.35l2-16a1.81,1.81,0,0,1,1.79-1.58H77.65a1.81,1.81,0,0,1,1.79,1.58l2,16a49,49,0,0,1,12.9,5.35L107,100.32a1.81,1.81,0,0,1,2.39.15l12.06,12.06a1.81,1.81,0,0,1,.15,2.39l-9.88,12.69a49,49,0,0,1,5.35,12.9l16,2a1.81,1.81,0,0,1,1.58,1.79v17.06a1.81,1.81,0,0,1-1.58,1.79l-16,2a49,49,0,0,1-5.35,12.9l9.88,12.69a1.81,1.81,0,0,1-.15,2.39l-12.06,12.06a1.81,1.81,0,0,1-2.39.15l-12.69-9.88a49,49,0,0,1-12.9,5.35l-2,16A1.81,1.81,0,0,1,77.65,218.33Zm-15.47-3.62H76.06L78,199.1a1.81,1.81,0,0,1,1.39-1.54,45.45,45.45,0,0,0,14.1-5.85,1.81,1.81,0,0,1,2.07.1L108,201.49l9.8-9.81-9.67-12.42a1.81,1.81,0,0,1-.1-2.07,45.44,45.44,0,0,0,5.85-14.11,1.81,1.81,0,0,1,1.54-1.39L131,159.75V145.88l-15.61-1.94a1.81,1.81,0,0,1-1.54-1.39,45.45,45.45,0,0,0-5.85-14.1,1.81,1.81,0,0,1,.1-2.07L117.79,114l-9.8-9.81-12.42,9.67a1.81,1.81,0,0,1-2.07.1,45.46,45.46,0,0,0-14.1-5.85A1.81,1.81,0,0,1,78,106.54L76.06,90.92H62.19l-1.94,15.61a1.81,1.81,0,0,1-1.39,1.54,45.47,45.47,0,0,0-14.11,5.85,1.81,1.81,0,0,1-2.07-.1l-12.42-9.67L20.45,114l9.67,12.42a1.81,1.81,0,0,1,.1,2.07,45.45,45.45,0,0,0-5.85,14.1,1.81,1.81,0,0,1-1.54,1.39L7.23,145.88v13.87l15.61,1.94a1.81,1.81,0,0,1,1.54,1.39,45.44,45.44,0,0,0,5.85,14.11,1.81,1.81,0,0,1-.1,2.07l-9.67,12.42,9.81,9.81,12.42-9.67a1.81,1.81,0,0,1,2.07-.1,45.48,45.48,0,0,0,14.11,5.85,1.81,1.81,0,0,1,1.39,1.54Zm6.94-29.29a32.6,32.6,0,1,1,32.6-32.6A32.64,32.64,0,0,1,69.12,185.42Zm0-61.59a29,29,0,1,0,29,29A29,29,0,0,0,69.12,123.83Z"/><g class="cls-1"><circle class="cls-2" cx="69.12" cy="152.82" r="30.8"/><path class="cls-4" d="M69.12,185.42a32.6,32.6,0,1,1,32.6-32.6A32.64,32.64,0,0,1,69.12,185.42Zm0-61.59a29,29,0,1,0,29,29A29,29,0,0,0,69.12,123.83Z"/></g><g class="cls-1"><path class="cls-2" d="M176.77,66.25V53.65l-12.71-1.58a35,35,0,0,0-4.49-10.83l7.87-10.11-8.91-8.91-10.11,7.87a35,35,0,0,0-10.83-4.49L136,12.88H123.4l-1.58,12.71A35,35,0,0,0,111,30.08l-10.11-7.87L92,31.13l7.87,10.11a35,35,0,0,0-4.49,10.83l-12.7,1.58V66.25l12.7,1.58a35,35,0,0,0,4.49,10.84L92,88.78l8.91,8.91L111,89.82a35,35,0,0,0,10.84,4.49L123.4,107H136l1.58-12.7a35,35,0,0,0,10.83-4.49l10.11,7.87,8.91-8.91-7.87-10.11a35,35,0,0,0,4.49-10.84ZM129.71,82.7a22.75,22.75,0,1,1,22.75-22.75A22.75,22.75,0,0,1,129.71,82.7Z"/></g><path class="cls-3" d="M136,108.35H123.4a1.34,1.34,0,0,1-1.33-1.17l-1.47-11.79a36.26,36.26,0,0,1-9.53-4l-9.38,7.3a1.34,1.34,0,0,1-1.76-.11L91,89.72A1.34,1.34,0,0,1,90.91,88l7.3-9.38a36.21,36.21,0,0,1-4-9.53L82.48,67.58a1.34,1.34,0,0,1-1.17-1.33V53.65a1.34,1.34,0,0,1,1.17-1.33l11.79-1.47a36.23,36.23,0,0,1,4-9.53l-7.3-9.38A1.34,1.34,0,0,1,91,30.18l8.91-8.91a1.33,1.33,0,0,1,1.76-.11l9.38,7.3a36.24,36.24,0,0,1,9.53-4l1.47-11.79a1.34,1.34,0,0,1,1.33-1.17H136a1.34,1.34,0,0,1,1.33,1.17l1.47,11.79a36.23,36.23,0,0,1,9.53,4l9.38-7.3a1.34,1.34,0,0,1,1.76.11l8.91,8.91a1.34,1.34,0,0,1,.11,1.76l-7.3,9.38a36.23,36.23,0,0,1,4,9.53l11.79,1.47a1.34,1.34,0,0,1,1.17,1.33V66.25a1.34,1.34,0,0,1-1.17,1.33L165.15,69a36.22,36.22,0,0,1-4,9.53L168.5,88a1.34,1.34,0,0,1-.11,1.76l-8.91,8.91a1.33,1.33,0,0,1-1.76.11l-9.38-7.3a36.23,36.23,0,0,1-9.53,4l-1.47,11.79A1.34,1.34,0,0,1,136,108.35Zm-11.43-2.67h10.25l1.43-11.53a1.34,1.34,0,0,1,1-1.14,33.58,33.58,0,0,0,10.42-4.32,1.34,1.34,0,0,1,1.53.08l9.18,7.14,7.24-7.24-7.14-9.18a1.34,1.34,0,0,1-.08-1.53,33.58,33.58,0,0,0,4.32-10.42,1.34,1.34,0,0,1,1.14-1l11.53-1.43V54.82L163.9,53.39a1.34,1.34,0,0,1-1.14-1,33.58,33.58,0,0,0-4.32-10.42,1.34,1.34,0,0,1,.08-1.53l7.14-9.18L158.42,24l-9.18,7.14a1.34,1.34,0,0,1-1.53.08,33.59,33.59,0,0,0-10.42-4.32,1.34,1.34,0,0,1-1-1.14l-1.43-11.53H124.58l-1.43,11.53a1.34,1.34,0,0,1-1,1.14,33.6,33.6,0,0,0-10.42,4.32,1.34,1.34,0,0,1-1.53-.08L101,24l-7.24,7.24,7.14,9.18a1.34,1.34,0,0,1,.08,1.53,33.58,33.58,0,0,0-4.32,10.42,1.34,1.34,0,0,1-1.14,1L84,54.82V65.07l11.53,1.43a1.34,1.34,0,0,1,1.14,1A33.57,33.57,0,0,0,101,78a1.34,1.34,0,0,1-.08,1.53l-7.14,9.18L101,95.91l9.17-7.14a1.34,1.34,0,0,1,1.53-.08A33.6,33.6,0,0,0,122.12,93a1.34,1.34,0,0,1,1,1.14ZM129.71,84A24.09,24.09,0,1,1,153.8,59.95,24.12,24.12,0,0,1,129.71,84Zm0-45.51a21.42,21.42,0,1,0,21.42,21.42A21.44,21.44,0,0,0,129.71,38.53Z"/><g class="cls-1"><circle class="cls-2" cx="129.71" cy="59.95" r="22.75"/><path class="cls-4" d="M129.71,84A24.09,24.09,0,1,1,153.8,59.95,24.12,24.12,0,0,1,129.71,84Zm0-45.51a21.42,21.42,0,1,0,21.42,21.42A21.44,21.44,0,0,0,129.71,38.53Z"/></g><g class="cls-1"><path class="cls-2" d="M81.81,46.88V36.08L70.92,34.72a30,30,0,0,0-3.85-9.28l6.74-8.66L66.18,9.14l-8.66,6.74A30,30,0,0,0,48.23,12L46.88,1.14H36.08L34.72,12a30,30,0,0,0-9.29,3.85L16.78,9.14,9.14,16.78l6.74,8.66A30,30,0,0,0,12,34.72L1.14,36.08v10.8L12,48.23a30,30,0,0,0,3.85,9.29L9.14,66.18l7.64,7.64,8.66-6.74a30,30,0,0,0,9.29,3.85l1.35,10.88h10.8l1.35-10.88a30,30,0,0,0,9.28-3.85l8.66,6.74,7.64-7.64-6.74-8.66a30,30,0,0,0,3.85-9.29ZM41.48,61A19.5,19.5,0,1,1,61,41.48,19.5,19.5,0,0,1,41.48,61Z"/></g><path class="cls-3" d="M46.88,83H36.08a1.14,1.14,0,0,1-1.14-1l-1.26-10.1a31.07,31.07,0,0,1-8.17-3.39l-8,6.26A1.14,1.14,0,0,1,16,74.63L8.33,67a1.14,1.14,0,0,1-.09-1.51l6.26-8a31,31,0,0,1-3.39-8.17L1,48a1.14,1.14,0,0,1-1-1.14V36.08a1.14,1.14,0,0,1,1-1.14l10.1-1.26a31,31,0,0,1,3.39-8.17l-6.26-8A1.14,1.14,0,0,1,8.33,16L16,8.33a1.14,1.14,0,0,1,1.51-.09l8,6.26a31.05,31.05,0,0,1,8.17-3.39L34.94,1a1.14,1.14,0,0,1,1.14-1h10.8A1.14,1.14,0,0,1,48,1l1.26,10.1a31,31,0,0,1,8.17,3.39l8-6.26A1.14,1.14,0,0,1,67,8.33L74.62,16a1.14,1.14,0,0,1,.09,1.51l-6.26,8a31,31,0,0,1,3.39,8.17L82,34.94a1.14,1.14,0,0,1,1,1.14v10.8A1.14,1.14,0,0,1,82,48l-10.1,1.26a31,31,0,0,1-3.39,8.17l6.26,8A1.14,1.14,0,0,1,74.62,67L67,74.63a1.14,1.14,0,0,1-1.51.09l-8-6.26a31,31,0,0,1-8.17,3.39L48,82A1.14,1.14,0,0,1,46.88,83Zm-9.79-2.29h8.78l1.23-9.88a1.14,1.14,0,0,1,.88-1,28.78,28.78,0,0,0,8.93-3.7,1.15,1.15,0,0,1,1.31.07l7.86,6.12,6.21-6.21-6.12-7.86a1.14,1.14,0,0,1-.07-1.31A28.77,28.77,0,0,0,69.81,48a1.14,1.14,0,0,1,1-.88l9.88-1.23V37.09l-9.88-1.23a1.14,1.14,0,0,1-1-.88A28.78,28.78,0,0,0,66.1,26a1.14,1.14,0,0,1,.07-1.31l6.12-7.86-6.21-6.21-7.86,6.12a1.15,1.15,0,0,1-1.31.07A28.78,28.78,0,0,0,48,13.15a1.14,1.14,0,0,1-.88-1L45.87,2.29H37.09l-1.23,9.88a1.14,1.14,0,0,1-.88,1A28.79,28.79,0,0,0,26,16.85a1.15,1.15,0,0,1-1.31-.07l-7.86-6.12-6.21,6.21,6.12,7.86A1.14,1.14,0,0,1,16.85,26,28.78,28.78,0,0,0,13.14,35a1.14,1.14,0,0,1-1,.88L2.29,37.09v8.78l9.88,1.23a1.14,1.14,0,0,1,1,.88,28.77,28.77,0,0,0,3.7,8.93,1.14,1.14,0,0,1-.07,1.31l-6.12,7.86,6.21,6.21,7.86-6.12A1.15,1.15,0,0,1,26,66.11,28.79,28.79,0,0,0,35,69.81a1.14,1.14,0,0,1,.88,1Zm4.39-18.55A20.64,20.64,0,1,1,62.12,41.48,20.67,20.67,0,0,1,41.48,62.12Zm0-39A18.35,18.35,0,1,0,59.83,41.48,18.38,18.38,0,0,0,41.48,23.12Z"/><g class="cls-1"><circle class="cls-2" cx="41.48" cy="41.48" r="19.5"/><path class="cls-4" d="M41.48,62.12A20.64,20.64,0,1,1,62.12,41.48,20.67,20.67,0,0,1,41.48,62.12Zm0-39A18.35,18.35,0,1,0,59.83,41.48,18.38,18.38,0,0,0,41.48,23.12Z"/></g></g></g></svg>