<?xml version="1.0" encoding="utf-8"?>
<!-- Generator: Adobe Illustrator 22.0.0, SVG Export Plug-In . SVG Version: 6.00 Build 0)  -->
<svg version="1.1" id="Layer_1" xmlns="http://www.w3.org/2000/svg" xmlns:xlink="http://www.w3.org/1999/xlink" x="0px" y="0px"
	 viewBox="0 0 471.1 256.4" style="enable-background:new 0 0 471.1 256.4;" xml:space="preserve">
<style type="text/css">
	.st0{fill-rule:evenodd;clip-rule:evenodd;fill:#1F984B;}
	.st1{fill-rule:evenodd;clip-rule:evenodd;fill:#54B3B8;}
	.st2{fill-rule:evenodd;clip-rule:evenodd;fill:#509144;}
	.st3{fill-rule:evenodd;clip-rule:evenodd;fill:#66B784;}
	.st4{fill-rule:evenodd;clip-rule:evenodd;fill:#6BC7CC;}
	.st5{fill-rule:evenodd;clip-rule:evenodd;fill:#424242;}
	.st6{fill-rule:evenodd;clip-rule:evenodd;fill:#E6E6E6;}
	.st7{fill-rule:evenodd;clip-rule:evenodd;fill:#333033;}
	.st8{fill-rule:evenodd;clip-rule:evenodd;fill:#F5D6A8;}
	.st9{fill-rule:evenodd;clip-rule:evenodd;fill:#295459;}
	.st10{fill-rule:evenodd;clip-rule:evenodd;fill:#268087;}
	.st11{fill-rule:evenodd;clip-rule:evenodd;fill:#FFFFFF;}
	.st12{fill-rule:evenodd;clip-rule:evenodd;fill:#999C99;}
	.st13{fill-rule:evenodd;clip-rule:evenodd;fill:#CCCCCC;}
	.st14{fill-rule:evenodd;clip-rule:evenodd;fill:#595757;}
	.st15{fill-rule:evenodd;clip-rule:evenodd;fill:#9CCC47;}
	.st16{fill-rule:evenodd;clip-rule:evenodd;fill:#7391C9;}
	.st17{fill-rule:evenodd;clip-rule:evenodd;fill:#E84540;}
	.st18{fill-rule:evenodd;clip-rule:evenodd;fill:#B5B5B5;}
	.st19{fill-rule:evenodd;clip-rule:evenodd;fill:#858585;}
</style>
<rect x="0" y="0" class="st0" width="471.1" height="256.4"/>
<rect x="236.6" y="118.7" class="st1" width="15.6" height="4.6"/>
<rect x="236.6" y="221.8" class="st1" width="15.6" height="4.6"/>
<rect x="236.6" y="126.3" class="st1" width="15.6" height="4.6"/>
<rect x="236.6" y="212.2" class="st1" width="15.6" height="4.6"/>
<rect x="248" y="133.4" class="st1" width="28.7" height="4.6"/>
<rect x="280.1" y="133.4" class="st2" width="46.8" height="4.6"/>
<rect x="262.3" y="140.8" class="st1" width="47.3" height="4.6"/>
<rect x="315.2" y="140.8" class="st2" width="77" height="4.6"/>
<rect x="262.3" y="149.2" class="st1" width="47.3" height="4.6"/>
<rect x="315.2" y="149.2" class="st2" width="112.8" height="4.6"/>
<rect x="279.5" y="158.2" class="st2" width="47.3" height="4.6"/>
<rect x="332.4" y="158.2" class="st2" width="9.1" height="4.6"/>
<rect x="346.2" y="158.2" class="st2" width="100.4" height="4.6"/>
<rect x="262.3" y="165.6" class="st1" width="23.6" height="4.6"/>
<rect x="291.3" y="165.6" class="st2" width="85.9" height="4.6"/>
<rect x="384.6" y="165.6" class="st2" width="68.4" height="4.6"/>
<rect x="291.3" y="173.7" class="st2" width="111.7" height="4.6"/>
<rect x="262.3" y="181.5" class="st2" width="23.6" height="4.6"/>
<rect x="291.3" y="181.5" class="st2" width="85.9" height="4.6"/>
<rect x="384.6" y="181.5" class="st2" width="68.4" height="4.6"/>
<rect x="262.3" y="190.9" class="st2" width="47.3" height="4.6"/>
<rect x="315.2" y="190.9" class="st2" width="77" height="4.6"/>
<rect x="248" y="198.1" class="st2" width="28.7" height="4.6"/>
<rect x="280.1" y="198.1" class="st2" width="46.8" height="4.6"/>
<path class="st2" d="M49.3,202.4c-9.3-0.4-16.5-8.3-16-17.6c0.4-9.3,8.3-16.5,17.6-16c9.3,0.4,16.5,8.3,16,17.6
	C66.5,195.7,58.6,202.9,49.3,202.4 M44.4,219.3l-4.1,5.2c-2.7-0.7-5.4-1.7-7.9-2.9l0.5-6.5c-2.8-1.6-5.3-3.6-7.5-5.9l-5.6,2
	l-5.3-7.8l4.4-3.9c-1.4-3.1-2.3-6.4-2.7-9.8L10,188v0l0.5-8.9l0,0l6.3-1.2c0.8-3.3,2-6.3,3.6-9.2l-3.6-5.4v0l3.7-4.7
	c0.6-0.7,1.3-1.4,2-2.1l5.8,2.8c2.3-1.9,4.8-3.5,7.4-4.7l0-6.4c2.8-1.1,5.7-1.8,8.7-2.3l3.1,5.6c1.4-0.1,2.8-0.1,4.2-0.1
	c1.5,0.1,3,0.2,4.4,0.5l3.8-5.3c3.2,0.8,6.2,2,9.1,3.5l-1,6.3c2.4,1.5,4.6,3.3,6.6,5.3l6.2-2.1c2,2.4,3.8,5,5.2,7.8l-4.6,4.2
	c1.3,3,2.2,6.2,2.7,9.5l6.1,1.7c0.1,1.5,0.1,3,0.1,4.6c-0.1,1.6-0.2,3.2-0.5,4.7l-6.2,0.8c-0.7,3.1-1.8,6-3.2,8.7l3.8,5.3
	c-0.4,0.7-0.9,1.3-1.4,2l-4.4,5.1l0,0l-5.6-2.9c-2.3,2-4.9,3.8-7.7,5.2v6.5c-2.6,1.1-5.4,1.8-8.2,2.3l-3.4-5.6
	c-1.6,0.2-3.2,0.2-4.9,0.1C47.1,219.7,45.7,219.5,44.4,219.3z"/>
<path class="st3" d="M157.6,227.9c-3.6-1.3-5.5-5.3-4.1-8.9c1.3-3.6,5.3-5.5,8.9-4.1c3.6,1.3,5.5,5.3,4.1,8.9
	C165.2,227.4,161.2,229.2,157.6,227.9 M174,219.7c0.2,1.3,0.1,2.7-0.1,4.1l2.2,1.4c-0.1,0.6-0.3,1.2-0.5,1.8
	c-0.2,0.6-0.5,1.2-0.8,1.8l-2.5-0.4c-0.6,1.1-1.5,2.1-2.3,3l0.8,2.6c-0.3,0.2-0.5,0.4-0.8,0.6l-2.4,1.5l0,0l-1.8-1.8
	c-1.2,0.5-2.4,0.9-3.7,1.1l-0.8,2.6c-1.2,0.1-2.3,0.1-3.5-0.1l-0.7-2.6c-0.6-0.1-1.3-0.3-1.9-0.6c-0.6-0.2-1.1-0.4-1.6-0.7l-2.3,1.5
	c-1-0.6-1.9-1.3-2.7-2.1l1-2.5c-0.9-1-1.6-2.1-2.2-3.3l-2.5,0.1l-1.1-3.7l2.2-1c-0.2-1.4-0.1-2.8,0.2-4.2l-2.2-1.4l0,0l1.3-3.5v0
	l2.6,0.3c0.7-1.2,1.6-2.3,2.5-3.2l-0.8-2.6v0l2-1.4c0.3-0.2,0.7-0.4,1.1-0.6l1.9,1.8c1.1-0.5,2.3-0.8,3.5-0.9l0.8-2.5
	c1.2-0.1,2.5,0,3.7,0.2l0.6,2.6c0.6,0.1,1.1,0.3,1.7,0.5c0.6,0.2,1.1,0.5,1.7,0.7l2.2-1.6c1.2,0.7,2.2,1.6,3.1,2.5l-1.2,2.3
	c0.8,0.9,1.4,1.9,1.9,2.9l2.7-0.1c0.3,0.8,0.7,1.5,1,2.1v1.7C175.5,219,174.8,219.4,174,219.7z"/>
<path class="st4" d="M353.2,70.4c-3.6-1.3-5.5-5.3-4.1-8.9c1.3-3.6,5.3-5.5,8.9-4.1c3.6,1.3,5.5,5.3,4.1,8.9
	C360.8,69.9,356.8,71.8,353.2,70.4 M369.7,62.3c0.2,1.3,0.1,2.7-0.1,4.1l2.2,1.4c-0.1,0.6-0.3,1.2-0.5,1.8c-0.2,0.6-0.5,1.2-0.8,1.8
	l-2.5-0.4c-0.7,1.1-1.5,2.1-2.3,3l0.8,2.6c-0.3,0.2-0.5,0.4-0.8,0.6l-2.4,1.5l0,0l-1.8-1.8c-1.2,0.5-2.4,0.9-3.7,1.1l-0.8,2.6
	c-1.2,0.1-2.3,0.1-3.5-0.1l-0.6-2.6c-0.7-0.1-1.3-0.3-1.9-0.6c-0.6-0.2-1.1-0.4-1.6-0.7l-2.3,1.5c-1-0.6-1.9-1.3-2.8-2.1l1-2.5
	c-0.9-1-1.6-2.1-2.2-3.3l-2.5,0.1l-1.1-3.7l2.2-1c-0.2-1.4-0.1-2.8,0.2-4.2l-2.2-1.4l0,0l1.3-3.5v0l2.6,0.3c0.7-1.2,1.6-2.3,2.5-3.2
	l-0.8-2.6v0l2-1.4c0.3-0.2,0.7-0.4,1.1-0.6l1.9,1.8c1.1-0.5,2.3-0.8,3.5-0.9l0.8-2.5c1.2-0.1,2.5,0,3.7,0.2l0.6,2.6
	c0.6,0.1,1.1,0.3,1.7,0.5c0.6,0.2,1.1,0.5,1.7,0.7l2.2-1.6c1.2,0.7,2.2,1.6,3.1,2.5l-1.2,2.3c0.8,0.9,1.4,1.9,1.9,2.9l2.7-0.1
	c0.3,0.8,0.6,1.5,1,2.1v1.7C371.2,61.6,370.4,61.9,369.7,62.3z"/>
<path class="st3" d="M282.6,68.3c-7.2-0.3-12.7-6.4-12.3-13.6c0.3-7.1,6.4-12.7,13.5-12.3c7.1,0.3,12.7,6.4,12.3,13.6
	C295.9,63.1,289.8,68.6,282.6,68.3 M278.8,81.3l-3.2,4c-2.1-0.5-4.2-1.3-6.1-2.2l0.4-5c-2.1-1.3-4.1-2.8-5.8-4.6l-4.3,1.6l-4.1-6
	l3.4-3c-1.1-2.4-1.8-4.9-2.1-7.6l-4.7-1.3v0l0.3-6.9l0,0l4.8-0.9c0.6-2.5,1.5-4.9,2.8-7l-2.8-4.2v0l2.8-3.6c0.5-0.5,1-1.1,1.6-1.6
	l4.5,2.1c1.7-1.4,3.7-2.7,5.7-3.6l0-5c2.1-0.8,4.4-1.4,6.7-1.8l2.4,4.3c1.1-0.1,2.1-0.1,3.2,0c1.1,0,2.3,0.2,3.4,0.4l2.9-4.1
	c2.5,0.6,4.8,1.5,7,2.7l-0.8,4.8c1.9,1.1,3.6,2.5,5.1,4.1l4.7-1.6c1.6,1.8,2.9,3.9,4,6l-3.5,3.3c1,2.3,1.7,4.7,2.1,7.3l4.7,1.3
	c0.1,1.2,0.1,2.4,0,3.5c-0.1,1.2-0.2,2.4-0.4,3.6l-4.8,0.6c-0.5,2.4-1.4,4.6-2.5,6.7l2.9,4.1c-0.3,0.5-0.7,1-1,1.5l-3.4,4l0,0
	l-4.3-2.2c-1.8,1.6-3.8,2.9-5.9,4l0,5c-2,0.8-4.1,1.4-6.3,1.8l-2.6-4.3c-1.2,0.1-2.5,0.1-3.8,0.1C280.9,81.6,279.9,81.5,278.8,81.3z
	"/>
<path class="st2" d="M429,79.1c-6.1-2.2-9.3-9-7-15.2c2.2-6.1,9-9.3,15.1-7c6.1,2.2,9.3,9,7,15.2C441.9,78.2,435.1,81.4,429,79.1
	 M456.9,65.3c0.3,2.3,0.2,4.6-0.2,6.9l3.8,2.4c-0.3,1-0.6,2.1-0.9,3.1c-0.4,1.1-0.8,2.1-1.3,3.1l-4.3-0.8c-1.1,1.9-2.4,3.6-4,5.1
	l1.4,4.3c-0.4,0.4-0.9,0.7-1.3,1.1l-4,2.5l0,0l-3.1-3.1c-2,0.9-4.1,1.5-6.2,1.8l-1.4,4.4c-2,0.2-4,0.1-6-0.2l-1.1-4.4
	c-1.1-0.2-2.2-0.5-3.3-0.9c-0.9-0.3-1.8-0.7-2.7-1.2l-3.9,2.6c-1.7-1-3.3-2.3-4.7-3.6l1.7-4.2c-1.5-1.7-2.8-3.5-3.8-5.5l-4.2,0.2
	l-1.9-6.4l3.8-1.7c-0.3-2.3-0.2-4.7,0.2-7.1l-3.7-2.4v0l2.2-5.9l0,0l4.5,0.5c1.2-2,2.6-3.8,4.3-5.4l-1.3-4.4h0l3.5-2.4
	c0.6-0.3,1.2-0.7,1.8-1l3.3,3.1c1.9-0.8,3.9-1.3,6-1.6l1.3-4.3c2.1-0.1,4.2,0,6.3,0.3l0.9,4.4c0.9,0.2,1.9,0.5,2.8,0.8
	c1,0.4,1.9,0.8,2.8,1.3l3.7-2.7c2,1.2,3.8,2.6,5.3,4.3l-2,4c1.3,1.5,2.4,3.2,3.3,4.9l4.6-0.1c0.5,1.3,1.1,2.5,1.7,3.6v2.9
	C459.5,64.1,458.2,64.6,456.9,65.3z"/>
<path class="st3" d="M158.2,147.8c-6.1-2.2-9.3-9-7-15.2c2.2-6.1,9-9.3,15.1-7c6.1,2.2,9.3,9,7,15.2
	C171.1,146.9,164.3,150.1,158.2,147.8 M186,134c0.3,2.3,0.2,4.6-0.2,6.9l3.8,2.4c-0.3,1-0.6,2.1-0.9,3.1c-0.4,1.1-0.8,2.1-1.3,3.1
	l-4.3-0.8c-1.1,1.9-2.4,3.6-4,5.2l1.4,4.3c-0.4,0.4-0.9,0.7-1.3,1.1l-4,2.5l0,0l-3.1-3.1c-2,0.9-4.1,1.5-6.2,1.8l-1.4,4.4
	c-2,0.2-4,0.1-6-0.2l-1.1-4.4c-1.1-0.2-2.2-0.5-3.3-0.9c-0.9-0.3-1.8-0.7-2.7-1.2l-3.9,2.6c-1.7-1-3.3-2.3-4.7-3.6l1.7-4.2
	c-1.5-1.7-2.8-3.5-3.8-5.5l-4.2,0.2l-1.9-6.4l3.8-1.7c-0.3-2.3-0.2-4.7,0.2-7.1l-3.7-2.4v0l2.2-5.9l0,0l4.5,0.5
	c1.2-2,2.6-3.8,4.3-5.4l-1.3-4.4h0l3.5-2.4c0.6-0.3,1.2-0.7,1.8-1l3.3,3.1c1.9-0.8,3.9-1.3,6-1.6l1.3-4.3c2.1-0.1,4.2,0,6.3,0.3
	l0.9,4.4c0.9,0.2,1.9,0.5,2.8,0.8c1,0.4,1.9,0.8,2.8,1.3l3.7-2.7c2,1.2,3.8,2.6,5.3,4.3l-2,4c1.3,1.5,2.4,3.2,3.3,4.9l4.6-0.1
	c0.5,1.3,1.1,2.5,1.7,3.6v2.9C188.6,132.8,187.3,133.3,186,134z"/>
<path class="st3" d="M421.3,211.8c-6.1-2.2-9.3-9-7-15.2c2.2-6.1,9-9.3,15.1-7c6.1,2.2,9.3,9,7,15.2
	C434.2,210.9,427.4,214,421.3,211.8 M449.1,197.9c0.3,2.3,0.2,4.6-0.2,6.9l3.8,2.4c-0.3,1-0.6,2.1-0.9,3.1c-0.4,1.1-0.8,2.1-1.3,3.1
	l-4.3-0.8c-1.1,1.9-2.4,3.6-4,5.2l1.4,4.3c-0.4,0.4-0.9,0.7-1.3,1.1l-4,2.5l0,0l-3.1-3.1c-2,0.9-4.1,1.5-6.2,1.8l-1.4,4.4
	c-2,0.2-4,0.1-6-0.2l-1.1-4.4c-1.1-0.2-2.2-0.5-3.3-0.9c-0.9-0.3-1.8-0.7-2.7-1.2l-3.9,2.6c-1.7-1-3.3-2.3-4.7-3.6l1.7-4.2
	c-1.5-1.7-2.8-3.5-3.8-5.5l-4.2,0.2l-1.9-6.4l3.8-1.7c-0.3-2.3-0.2-4.7,0.2-7.1l-3.7-2.4v0l2.2-5.9l0,0l4.5,0.5
	c1.2-2,2.6-3.8,4.3-5.4l-1.3-4.4h0l3.5-2.4c0.6-0.3,1.2-0.7,1.8-1l3.3,3.1c1.9-0.8,3.9-1.3,6-1.6l1.3-4.3c2.1-0.1,4.2,0,6.3,0.3
	l0.9,4.4c0.9,0.2,1.9,0.5,2.8,0.8c1,0.4,1.9,0.8,2.8,1.3l3.7-2.7c2,1.2,3.8,2.6,5.3,4.3l-2,4c1.3,1.5,2.4,3.2,3.3,4.9l4.6-0.1
	c0.5,1.3,1.1,2.5,1.7,3.6v2.9C451.7,196.7,450.4,197.3,449.1,197.9z"/>
<rect x="13.1" y="30.9" class="st2" width="15.6" height="4.6"/>
<rect x="13.1" y="134" class="st2" width="15.6" height="4.6"/>
<rect x="13.1" y="38.5" class="st2" width="15.6" height="4.6"/>
<rect x="13.1" y="124.5" class="st2" width="15.6" height="4.6"/>
<rect x="24.5" y="45.6" class="st2" width="28.7" height="4.6"/>
<rect x="56.6" y="45.6" class="st2" width="46.8" height="4.6"/>
<rect x="38.8" y="53" class="st2" width="47.3" height="4.6"/>
<rect x="91.7" y="53" class="st2" width="77" height="4.6"/>
<rect x="38.8" y="61.4" class="st2" width="47.3" height="4.6"/>
<rect x="91.7" y="61.4" class="st2" width="112.8" height="4.6"/>
<rect x="56" y="70.4" class="st2" width="47.3" height="4.6"/>
<rect x="108.9" y="70.4" class="st1" width="9.1" height="4.6"/>
<rect x="122.7" y="70.4" class="st2" width="100.4" height="4.6"/>
<rect x="38.8" y="77.9" class="st2" width="23.6" height="4.6"/>
<rect x="67.8" y="77.9" class="st2" width="85.9" height="4.6"/>
<rect x="161.1" y="77.9" class="st2" width="68.4" height="4.6"/>
<rect x="67.8" y="85.9" class="st2" width="111.7" height="4.6"/>
<rect x="38.8" y="93.7" class="st2" width="23.6" height="4.6"/>
<rect x="67.8" y="93.7" class="st2" width="85.9" height="4.6"/>
<rect x="161.1" y="93.7" class="st2" width="68.4" height="4.6"/>
<rect x="38.8" y="103.1" class="st2" width="47.3" height="4.6"/>
<rect x="91.7" y="103.1" class="st2" width="77" height="4.6"/>
<rect x="24.5" y="110.3" class="st2" width="28.7" height="4.6"/>
<rect x="56.6" y="110.3" class="st2" width="46.8" height="4.6"/>
<polygon class="st5" points="241.2,173.2 239.8,173.2 172.7,173.2 172.7,174.4 240.7,174.4 "/>
<path class="st6" d="M192.4,201.2h92.4c0.6,0,1.1,0.5,1.1,1.1v29.8c0,0.6-0.5,1.1-1.1,1.1h-92.4c-0.6,0-1.1-0.5-1.1-1.1v-29.8
	C191.3,201.7,191.8,201.2,192.4,201.2"/>
<path class="st7" d="M194.7,203.2h5.9c0.4,0,0.7,0.3,0.7,0.7v3.2c0,0.4-0.3,0.7-0.7,0.7l-5.9,0c-0.4,0-0.7-0.3-0.7-0.7v-3.2
	C194,203.5,194.3,203.2,194.7,203.2"/>
<path class="st7" d="M202.9,203.2h5.9c0.4,0,0.7,0.3,0.7,0.7v3.2c0,0.4-0.3,0.7-0.7,0.7l-5.9,0c-0.4,0-0.7-0.3-0.7-0.7v-3.2
	C202.2,203.5,202.5,203.2,202.9,203.2"/>
<path class="st7" d="M211.1,203.2h5.9c0.4,0,0.7,0.3,0.7,0.7v3.2c0,0.4-0.3,0.7-0.7,0.7l-5.9,0c-0.4,0-0.7-0.3-0.7-0.7v-3.2
	C210.4,203.5,210.7,203.2,211.1,203.2"/>
<path class="st7" d="M219.3,203.2h5.9c0.4,0,0.7,0.3,0.7,0.7v3.2c0,0.4-0.3,0.7-0.7,0.7l-5.9,0c-0.4,0-0.7-0.3-0.7-0.7v-3.2
	C218.6,203.5,218.9,203.2,219.3,203.2"/>
<path class="st7" d="M227.5,203.2h5.9c0.4,0,0.7,0.3,0.7,0.7v3.2c0,0.4-0.3,0.7-0.7,0.7l-5.9,0c-0.4,0-0.7-0.3-0.7-0.7v-3.2
	C226.8,203.5,227.1,203.2,227.5,203.2"/>
<path class="st7" d="M235.7,203.2h5.9c0.4,0,0.7,0.3,0.7,0.7l0,3.2c0,0.4-0.3,0.7-0.7,0.7l-5.9,0c-0.4,0-0.7-0.3-0.7-0.7v-3.2
	C235,203.5,235.3,203.2,235.7,203.2"/>
<path class="st7" d="M243.9,203.2h5.9c0.4,0,0.7,0.3,0.7,0.7v3.2c0,0.4-0.3,0.7-0.7,0.7l-5.9,0c-0.4,0-0.7-0.3-0.7-0.7v-3.2
	C243.2,203.5,243.5,203.2,243.9,203.2"/>
<path class="st7" d="M252.1,203.2h5.9c0.4,0,0.7,0.3,0.7,0.7v3.2c0,0.4-0.3,0.7-0.7,0.7l-5.9,0c-0.4,0-0.7-0.3-0.7-0.7v-3.2
	C251.4,203.5,251.7,203.2,252.1,203.2"/>
<path class="st7" d="M260.3,203.2h5.9c0.4,0,0.7,0.3,0.7,0.7v3.2c0,0.4-0.3,0.7-0.7,0.7l-5.9,0c-0.4,0-0.7-0.3-0.7-0.7v-3.2
	C259.6,203.5,259.9,203.2,260.3,203.2"/>
<path class="st7" d="M268.4,203.2h5.9c0.4,0,0.7,0.3,0.7,0.7v3.2c0,0.4-0.3,0.7-0.7,0.7l-5.9,0c-0.4,0-0.7-0.3-0.7-0.7v-3.2
	C267.8,203.5,268.1,203.2,268.4,203.2"/>
<path class="st7" d="M276.6,203.2h5.9c0.4,0,0.7,0.3,0.7,0.7v3.2c0,0.4-0.3,0.7-0.7,0.7l-5.9,0c-0.4,0-0.7-0.3-0.7-0.7v-3.2
	C276,203.5,276.3,203.2,276.6,203.2"/>
<path class="st7" d="M194.7,208.8h10.4c0.4,0,0.7,0.3,0.7,0.7v3.2c0,0.4-0.3,0.7-0.7,0.7h-10.4c-0.4,0-0.7-0.3-0.7-0.7v-3.2
	C194,209.1,194.3,208.8,194.7,208.8"/>
<path class="st7" d="M207.5,208.8h5.9c0.4,0,0.7,0.3,0.7,0.7v3.2c0,0.4-0.3,0.7-0.7,0.7h-5.9c-0.4,0-0.7-0.3-0.7-0.7v-3.2
	C206.8,209.1,207.1,208.8,207.5,208.8"/>
<path class="st7" d="M215.7,208.8h5.9c0.4,0,0.7,0.3,0.7,0.7v3.2c0,0.4-0.3,0.7-0.7,0.7h-5.9c-0.4,0-0.7-0.3-0.7-0.7v-3.2
	C215,209.1,215.3,208.8,215.7,208.8"/>
<path class="st7" d="M223.8,208.8h5.9c0.4,0,0.7,0.3,0.7,0.7v3.2c0,0.4-0.3,0.7-0.7,0.7h-5.9c-0.4,0-0.7-0.3-0.7-0.7v-3.2
	C223.2,209.1,223.5,208.8,223.8,208.8"/>
<path class="st7" d="M232,208.8h5.9c0.4,0,0.7,0.3,0.7,0.7v3.2c0,0.4-0.3,0.7-0.7,0.7H232c-0.4,0-0.7-0.3-0.7-0.7v-3.2
	C231.4,209.1,231.7,208.8,232,208.8"/>
<path class="st7" d="M240.2,208.8h5.9c0.4,0,0.7,0.3,0.7,0.7v3.2c0,0.4-0.3,0.7-0.7,0.7h-5.9c-0.4,0-0.7-0.3-0.7-0.7v-3.2
	C239.6,209.1,239.9,208.8,240.2,208.8"/>
<path class="st7" d="M248.4,208.8h5.9c0.4,0,0.7,0.3,0.7,0.7v3.2c0,0.4-0.3,0.7-0.7,0.7h-5.9c-0.4,0-0.7-0.3-0.7-0.7v-3.2
	C247.8,209.1,248.1,208.8,248.4,208.8"/>
<path class="st7" d="M256.6,208.8h5.9c0.4,0,0.7,0.3,0.7,0.7v3.2c0,0.4-0.3,0.7-0.7,0.7h-5.9c-0.4,0-0.7-0.3-0.7-0.7v-3.2
	C256,209.1,256.3,208.8,256.6,208.8"/>
<path class="st7" d="M264.8,208.8h5.9c0.4,0,0.7,0.3,0.7,0.7v3.2c0,0.4-0.3,0.7-0.7,0.7h-5.9c-0.4,0-0.7-0.3-0.7-0.7v-3.2
	C264.1,209.1,264.5,208.8,264.8,208.8"/>
<path class="st7" d="M273,208.8h9.5c0.4,0,0.7,0.3,0.7,0.7v3.2c0,0.4-0.3,0.7-0.7,0.7H273c-0.4,0-0.7-0.3-0.7-0.7l0-3.2
	C272.3,209.1,272.7,208.8,273,208.8"/>
<path class="st7" d="M211.1,214.5h5.9c0.4,0,0.7,0.3,0.7,0.7v3.2c0,0.4-0.3,0.7-0.7,0.7h-5.9c-0.4,0-0.7-0.3-0.7-0.7v-3.2
	C210.4,214.8,210.7,214.5,211.1,214.5"/>
<path class="st7" d="M219.3,214.5h5.9c0.4,0,0.7,0.3,0.7,0.7v3.2c0,0.4-0.3,0.7-0.7,0.7h-5.9c-0.4,0-0.7-0.3-0.7-0.7v-3.2
	C218.6,214.8,218.9,214.5,219.3,214.5"/>
<path class="st7" d="M227.5,214.5h5.9c0.4,0,0.7,0.3,0.7,0.7v3.2c0,0.4-0.3,0.7-0.7,0.7h-5.9c-0.4,0-0.7-0.3-0.7-0.7v-3.2
	C226.8,214.8,227.1,214.5,227.5,214.5"/>
<path class="st7" d="M235.7,214.5h5.9c0.4,0,0.7,0.3,0.7,0.7l0,3.2c0,0.4-0.3,0.7-0.7,0.7h-5.9c-0.4,0-0.7-0.3-0.7-0.7v-3.2
	C235,214.8,235.3,214.5,235.7,214.5"/>
<path class="st7" d="M243.9,214.5h5.9c0.4,0,0.7,0.3,0.7,0.7v3.2c0,0.4-0.3,0.7-0.7,0.7h-5.9c-0.4,0-0.7-0.3-0.7-0.7v-3.2
	C243.2,214.8,243.5,214.5,243.9,214.5"/>
<path class="st7" d="M252.1,214.5h5.9c0.4,0,0.7,0.3,0.7,0.7v3.2c0,0.4-0.3,0.7-0.7,0.7h-5.9c-0.4,0-0.7-0.3-0.7-0.7v-3.2
	C251.4,214.8,251.7,214.5,252.1,214.5"/>
<path class="st7" d="M260.3,214.5h5.9c0.4,0,0.7,0.3,0.7,0.7v3.2c0,0.4-0.3,0.7-0.7,0.7h-5.9c-0.4,0-0.7-0.3-0.7-0.7v-3.2
	C259.6,214.8,259.9,214.5,260.3,214.5"/>
<path class="st7" d="M194.7,214.5h13c0.4,0,0.7,0.3,0.7,0.7v3.2c0,0.4-0.3,0.7-0.7,0.7h-13c-0.4,0-0.7-0.3-0.7-0.7v-3.2
	C194,214.8,194.3,214.5,194.7,214.5"/>
<path class="st7" d="M269.5,214.5h13c0.4,0,0.7,0.3,0.7,0.7v3.2c0,0.4-0.3,0.7-0.7,0.7h-13c-0.4,0-0.7-0.3-0.7-0.7v-3.2
	C268.8,214.8,269.1,214.5,269.5,214.5"/>
<path class="st7" d="M195.1,220.2c5.9,0,11.9,0,17.8,0c0.6,0,1.1,0.3,1.1,0.7v3.2c0,0.4-0.5,0.7-1.1,0.7c-5.9,0-11.9,0-17.8,0
	c-0.6,0-1.1-0.3-1.1-0.7v-3.2C194,220.5,194.5,220.2,195.1,220.2"/>
<path class="st7" d="M215.7,220.2h5.9c0.4,0,0.7,0.3,0.7,0.7v3.2c0,0.4-0.3,0.7-0.7,0.7h-5.9c-0.4,0-0.7-0.3-0.7-0.7v-3.2
	C215,220.5,215.3,220.2,215.7,220.2"/>
<path class="st7" d="M223.8,220.2h5.9c0.4,0,0.7,0.3,0.7,0.7v3.2c0,0.4-0.3,0.7-0.7,0.7h-5.9c-0.4,0-0.7-0.3-0.7-0.7v-3.2
	C223.2,220.5,223.5,220.2,223.8,220.2"/>
<path class="st7" d="M232,220.2h5.9c0.4,0,0.7,0.3,0.7,0.7v3.2c0,0.4-0.3,0.7-0.7,0.7H232c-0.4,0-0.7-0.3-0.7-0.7v-3.2
	C231.4,220.5,231.7,220.2,232,220.2"/>
<path class="st7" d="M240.2,220.2h5.9c0.4,0,0.7,0.3,0.7,0.7v3.2c0,0.4-0.3,0.7-0.7,0.7h-5.9c-0.4,0-0.7-0.3-0.7-0.7v-3.2
	C239.6,220.5,239.9,220.2,240.2,220.2"/>
<path class="st7" d="M248.4,220.2h5.9c0.4,0,0.7,0.3,0.7,0.7v3.2c0,0.4-0.3,0.7-0.7,0.7h-5.9c-0.4,0-0.7-0.3-0.7-0.7v-3.2
	C247.8,220.5,248.1,220.2,248.4,220.2"/>
<path class="st7" d="M256.6,220.2h5.9c0.4,0,0.7,0.3,0.7,0.7v3.2c0,0.4-0.3,0.7-0.7,0.7h-5.9c-0.4,0-0.7-0.3-0.7-0.7v-3.2
	C256,220.5,256.3,220.2,256.6,220.2"/>
<path class="st7" d="M282.1,220.2c0.6,0,1.1,0.3,1.1,0.7v3.2c0,0.4-0.5,0.7-1.1,0.7c-5.6,0-11.2,0-16.9,0c-0.6,0-1.1-0.3-1.1-0.7
	v-3.2c0-0.4,0.5-0.7,1.1-0.7C270.9,220.2,276.5,220.2,282.1,220.2"/>
<path class="st7" d="M211.1,225.9h5.9c0.4,0,0.7,0.3,0.7,0.7v3.2c0,0.4-0.3,0.7-0.7,0.7h-5.9c-0.4,0-0.7-0.3-0.7-0.7v-3.2
	C210.4,226.2,210.7,225.9,211.1,225.9"/>
<path class="st7" d="M219.7,225.9h8.2h5h3.1h5h3.1h5h3.1h2.4h2.7c0.6,0,1.1,0.3,1.1,0.7v3.2c0,0.4-0.5,0.7-1.1,0.7h-2.7h-2.4h-3.1
	h-5h-3.1h-5h-3.1h-5h-8.2c-0.6,0-1.1-0.3-1.1-0.7v-3.2C218.6,226.2,219.1,225.9,219.7,225.9"/>
<path class="st7" d="M260.3,225.9h5.9c0.4,0,0.7,0.3,0.7,0.7v3.2c0,0.4-0.3,0.7-0.7,0.7h-5.9c-0.4,0-0.7-0.3-0.7-0.7v-3.2
	C259.6,226.2,259.9,225.9,260.3,225.9"/>
<path class="st7" d="M194.7,225.9h13c0.4,0,0.7,0.3,0.7,0.7v3.2c0,0.4-0.3,0.7-0.7,0.7h-13c-0.4,0-0.7-0.3-0.7-0.7v-3.2
	C194,226.2,194.3,225.9,194.7,225.9"/>
<path class="st7" d="M260,225.9h3.6c0.2,0,0.4,0.2,0.4,0.4v1.9c0,0.2-0.2,0.4-0.4,0.4H260c-0.2,0-0.4-0.2-0.4-0.4v-1.9
	C259.6,226.1,259.8,225.9,260,225.9"/>
<path class="st7" d="M273.4,225.8h4c0.2,0,0.4,0.2,0.4,0.4v1.8c0,0.2-0.2,0.4-0.4,0.4h-4c-0.2,0-0.4-0.2-0.4-0.4v-1.8
	C273.1,225.9,273.2,225.8,273.4,225.8"/>
<path class="st7" d="M268.2,228.6h4c0.2,0,0.4,0.2,0.4,0.4v1.8c0,0.2-0.2,0.4-0.4,0.4h-4c-0.2,0-0.4-0.2-0.4-0.4V229
	C267.8,228.8,267.9,228.6,268.2,228.6"/>
<path class="st7" d="M273.4,228.6h4c0.2,0,0.4,0.2,0.4,0.4v1.8c0,0.2-0.2,0.4-0.4,0.4h-4c-0.2,0-0.4-0.2-0.4-0.4V229
	C273.1,228.8,273.2,228.6,273.4,228.6"/>
<path class="st7" d="M278.7,228.6h4c0.2,0,0.4,0.2,0.4,0.4v1.8c0,0.2-0.2,0.4-0.4,0.4h-4c-0.2,0-0.4-0.2-0.4-0.4V229
	C278.3,228.8,278.5,228.6,278.7,228.6"/>
<path class="st5" d="M248.6,233.5c2.7-2.8,4.8-1.4,5.3-1.3c1.9,0.9,3.9,1.9,5.8,2.8c-3.3-5.6-6.3-10.7-9.5-16.3
	c-1.4-2.5,1.9-4.6,3.5-1.9l6.4,11.1l0.6-0.4c-0.5-1-1.9-3.4-2.4-4.3c0.3-1.8,1.5-2.5,3.1-1.8c0.6,1.1,1.9,3.2,2.5,4.3
	c0.3-0.2,0.3-0.2,0.6-0.3c-0.4-0.6-1.4-2.4-1.7-3c0-2.4,1.3-2.9,3.1-1.7c0.4,0.7,1.3,2.2,1.7,2.9c0.3-0.2,0.5-0.3,0.7-0.4
	c-0.3-0.7-0.6-1.1-1-1.9c-0.3-2.4,1-2.6,2.8-1.9c2.4,4,4.2,6.9,6.6,10.9c0.5,0.8,0.8,1.6,0.9,2.4l0.4-0.3l1.1,1.9l0.9-0.5l0,0
	l0.4-0.2l13.1,22.8h-24.6l-7-12.2l1.2-0.7l-1.1-1.9l0.4-0.2C258.7,239,251.5,235.2,248.6,233.5"/>
<path class="st8" d="M249.2,230.7c2.7-2.8,4.8-1.4,5.3-1.3c2,0.9,3.9,1.9,5.8,2.8c-3.3-5.6-6.3-10.7-9.5-16.3
	c-1.4-2.5,1.9-4.6,3.5-1.8l6.4,11.1l0.6-0.4c-0.5-1-1.8-3.4-2.4-4.3c0.3-1.8,1.5-2.5,3.1-1.8c0.6,1,1.9,3.2,2.5,4.3
	c0.3-0.2,0.3-0.2,0.6-0.3c-0.4-0.6-1.4-2.4-1.7-3c0-2.4,1.3-2.9,3.1-1.7c0.4,0.7,1.3,2.2,1.7,2.9c0.3-0.2,0.5-0.3,0.7-0.4
	c-0.3-0.7-0.6-1.1-1-1.9c-0.3-2.4,1-2.7,2.9-1.9c2.4,4,4.2,6.9,6.6,10.9c1.2,2.1,1.2,3.8,0.3,5.3c-4.3,2.4-8.5,4.8-12.8,7.2
	C262.5,237.8,252.7,232.8,249.2,230.7"/>
<polygon class="st9" points="262.6,241.5 281.1,230.9 296,256.4 271.1,256.4 "/>
<polygon class="st10" points="279.2,231.9 280.7,231.1 295.2,256.4 293.3,256.4 "/>
<rect x="262" y="234.1" transform="matrix(0.8676 -0.4973 0.4973 0.8676 -81.0649 166.0537)" class="st11" width="18.5" height="2.2"/>
<path class="st5" d="M230.3,237.6c-2.5-3-4.6-1.8-5.2-1.7c-2,0.8-4,1.6-6,2.4c3.7-5.4,7-10.2,10.7-15.5c1.6-2.4-1.5-4.7-3.4-2.1
	l-7.2,10.6l-0.5-0.4c0.6-0.9,8.3-12.4,8.9-13.3c-0.2-1.8-1.3-2.6-3-2c-0.7,1-8.3,12.3-9,13.3c-0.3-0.2-0.3-0.2-0.6-0.4
	c0.4-0.6,6.7-9.9,7.1-10.5c0.1-2.3-1.1-3-3-1.9c-0.5,0.7-6.5,9.7-7,10.4c-0.3-0.2-0.4-0.3-0.7-0.5c0.4-0.7,4.1-6,4.5-6.7
	c0.4-2.4-0.8-2.7-2.7-2.1c-2.7,3.8-8,11.5-10.6,15.3c-0.6,0.8-0.9,1.6-1.1,2.3l-0.3-0.2l-1.2,1.8l-0.9-0.6l0,0l-0.4-0.2l-14.1,21
	h25.7l6.1-9.1l-1.1-0.7l1.2-1.8l-0.5-0.3C219.9,242.3,227.3,239.1,230.3,237.6"/>
<path class="st8" d="M228.9,235.8c-2.5-3-4.6-1.8-5.2-1.7c-2,0.8-4,1.6-6,2.4c3.7-5.4,7-10.2,10.7-15.5c1.6-2.4-1.5-4.7-3.4-2.1
	l-7.2,10.6l-0.5-0.4c0.6-0.9,8.3-12.4,8.9-13.3c-0.2-1.8-1.3-2.6-3-2c-0.7,1-8.3,12.3-9,13.3c-0.3-0.2-0.3-0.2-0.6-0.4
	c0.4-0.6,6.7-9.9,7.1-10.5c0.1-2.3-1.1-3-3-1.9c-0.5,0.7-6.5,9.7-7,10.4c-0.3-0.2-0.4-0.3-0.7-0.5c0.4-0.7,4.1-6,4.5-6.7
	c0.4-2.4-0.8-2.7-2.7-2.1c-2.7,3.8-8,11.5-10.6,15.3c-1.4,2-1.5,3.7-0.7,5.2c4.1,2.7,8.1,5.4,12.2,8.1
	C215.2,241.9,225.3,237.6,228.9,235.8"/>
<polygon class="st9" points="214.9,245.5 197.2,233.6 181.9,256.4 182,256.4 207.5,256.4 "/>
<polygon class="st10" points="198.9,234.8 197.5,233.9 182.4,256.4 184.4,256.4 "/>
<rect x="205.6" y="229.6" transform="matrix(0.558 -0.8299 0.8299 0.558 -106.8067 277.0968)" class="st11" width="2.2" height="18.5"/>
<rect x="178" y="106.7" class="st11" width="127.6" height="67.7"/>
<path class="st7" d="M259.6,182.3v7h10.9c1.7,0,3.1,1.4,3.1,3v0c0,1.7-1.4,3-3.1,3h-57.4c-1.7,0-3.1-1.4-3.1-3v0c0-1.7,1.4-3,3.1-3
	H224v-7h-48.6c-2.8,0-5.1-2.3-5.1-5.1l0-73.4c0-2.8,2.3-5.1,5.1-5.1h132.8c2.8,0,5.1,2.3,5.1,5.1v73.4c0,2.8-2.3,5.1-5.1,5.1H259.6z
	 M178,106.7h127.6v67.7H178V106.7z"/>
<path class="st6" d="M224,182.4h35.6v3.4h10.9c1.7,0,3.1,4.9,3.1,6.6v0c0,1.7-1.4,3-3.1,3h-57.4c-1.7,0-3.1-1.4-3.1-3v0
	c0-1.7,1.4-6.6,3.1-6.6H224V182.4z"/>
<rect x="224" y="182.4" class="st6" width="35.6" height="6.9"/>
<path class="st5" d="M178,106.7h94.2l3.2-7.9h-100c-2.8,0-5.1,2.3-5.1,5.1l0,73.4c0,2.8,2.3,5.1,5.1,5.1H224v0.1h18.1l3.2-8H178
	V106.7z"/>
<rect x="224" y="182.4" class="st12" width="35.6" height="1.3"/>
<path class="st13" d="M270.8,185.8c0.5,0.1,0.9,0.6,1.3,1.3h-60.5c0.4-0.7,0.8-1.2,1.3-1.3H270.8z"/>
<rect x="178" y="106.7" class="st14" width="127.6" height="67.7"/>
<rect x="103.4" y="47.4" class="st14" width="63.6" height="38.5"/>
<rect x="108.2" y="50.4" class="st15" width="3.6" height="1.3"/>
<rect x="108.2" y="79.2" class="st15" width="3.6" height="1.3"/>
<rect x="108.2" y="52.5" class="st16" width="3.6" height="1.3"/>
<rect x="108.2" y="76.6" class="st16" width="3.6" height="1.3"/>
<rect x="110.8" y="54.5" class="st17" width="6.6" height="1.3"/>
<rect x="118.1" y="54.5" class="st15" width="10.7" height="1.3"/>
<rect x="114.1" y="56.6" class="st16" width="10.8" height="1.3"/>
<rect x="114.1" y="58.9" class="st18" width="10.8" height="1.3"/>
<rect x="126.2" y="58.9" class="st15" width="25.8" height="1.3"/>
<rect x="118" y="61.4" class="st16" width="10.8" height="1.3"/>
<rect x="130.1" y="61.4" class="st18" width="2.1" height="1.3"/>
<rect x="114.1" y="63.5" class="st15" width="5.4" height="1.3"/>
<rect x="120.7" y="63.5" class="st18" width="19.6" height="1.3"/>
<rect x="120.7" y="65.8" class="st15" width="25.6" height="1.3"/>
<rect x="114.1" y="68" class="st18" width="5.4" height="1.3"/>
<rect x="114.1" y="70.6" class="st15" width="10.8" height="1.3"/>
<rect x="126.2" y="70.6" class="st18" width="17.6" height="1.3"/>
<rect x="110.8" y="72.6" class="st17" width="6.6" height="1.3"/>
<rect x="118.1" y="72.6" class="st15" width="10.7" height="1.3"/>
<rect x="103.4" y="47.4" class="st14" width="2.4" height="38.5"/>
<rect x="104.2" y="50.4" class="st11" width="1.1" height="1.3"/>
<rect x="104.2" y="52.5" class="st11" width="1.1" height="1.3"/>
<rect x="104.2" y="54.5" class="st11" width="1.1" height="1.3"/>
<rect x="104.2" y="56.6" class="st11" width="1.1" height="1.3"/>
<rect x="104.2" y="58.9" class="st11" width="1.1" height="1.3"/>
<rect x="104.2" y="61" class="st11" width="1.1" height="1.3"/>
<rect x="104.2" y="63" class="st11" width="1.1" height="1.3"/>
<rect x="104.2" y="65.1" class="st11" width="1.1" height="1.3"/>
<rect x="104.2" y="67.5" class="st11" width="1.1" height="1.3"/>
<rect x="104.2" y="69.6" class="st11" width="1.1" height="1.3"/>
<rect x="104.2" y="71.6" class="st11" width="1.1" height="1.3"/>
<rect x="104.2" y="73.7" class="st11" width="1.1" height="1.3"/>
<rect x="104.2" y="76" class="st11" width="1.1" height="1.3"/>
<rect x="104.2" y="78.1" class="st11" width="1.1" height="1.3"/>
<rect x="104.2" y="80.1" class="st11" width="1.1" height="1.3"/>
<rect x="104.2" y="82.2" class="st11" width="1.1" height="1.3"/>
<rect x="106.1" y="47.4" class="st19" width="0.3" height="38.5"/>
<rect x="209.9" y="21.7" class="st14" width="63.9" height="38.5"/>
<rect x="214.7" y="24.7" class="st16" width="3.6" height="1.3"/>
<rect x="214.7" y="53.6" class="st16" width="3.6" height="1.3"/>
<rect x="214.7" y="26.8" class="st15" width="3.6" height="1.3"/>
<rect x="214.7" y="50.9" class="st15" width="3.6" height="1.3"/>
<rect x="217.3" y="28.8" class="st17" width="6.6" height="1.3"/>
<rect x="224.7" y="28.8" class="st18" width="10.8" height="1.3"/>
<rect x="220.6" y="30.9" class="st16" width="10.9" height="1.3"/>
<rect x="232.8" y="30.9" class="st18" width="17.7" height="1.3"/>
<rect x="220.6" y="33.3" class="st18" width="10.9" height="1.3"/>
<rect x="232.8" y="33.3" class="st16" width="25.9" height="1.3"/>
<rect x="224.6" y="35.8" class="st16" width="10.9" height="1.3"/>
<rect x="236.7" y="35.8" class="st18" width="2.1" height="1.3"/>
<rect x="239.9" y="35.8" class="st18" width="23.1" height="1.3"/>
<rect x="220.6" y="37.9" class="st15" width="5.4" height="1.3"/>
<rect x="227.3" y="37.9" class="st16" width="19.7" height="1.3"/>
<rect x="248.7" y="37.9" class="st16" width="15.7" height="1.3"/>
<rect x="227.3" y="40.1" class="st18" width="25.7" height="1.3"/>
<rect x="220.6" y="42.3" class="st18" width="5.4" height="1.3"/>
<rect x="227.3" y="42.3" class="st16" width="19.7" height="1.3"/>
<rect x="248.7" y="42.3" class="st15" width="15.7" height="1.3"/>
<rect x="220.6" y="44.9" class="st16" width="10.9" height="1.3"/>
<rect x="232.8" y="44.9" class="st18" width="17.7" height="1.3"/>
<rect x="217.3" y="46.9" class="st17" width="6.6" height="1.3"/>
<rect x="224.7" y="46.9" class="st15" width="10.8" height="1.3"/>
<rect x="209.9" y="21.7" class="st14" width="2.4" height="38.5"/>
<rect x="210.7" y="24.7" class="st11" width="1.1" height="1.3"/>
<rect x="210.7" y="26.8" class="st11" width="1.1" height="1.3"/>
<rect x="210.7" y="28.8" class="st11" width="1.1" height="1.3"/>
<rect x="210.7" y="31" class="st11" width="1.1" height="1.3"/>
<rect x="210.7" y="33.2" class="st11" width="1.1" height="1.3"/>
<rect x="210.7" y="35.3" class="st11" width="1.1" height="1.3"/>
<rect x="210.7" y="37.3" class="st11" width="1.1" height="1.3"/>
<rect x="210.7" y="39.5" class="st11" width="1.1" height="1.3"/>
<rect x="210.7" y="41.8" class="st11" width="1.1" height="1.3"/>
<rect x="210.7" y="43.9" class="st11" width="1.1" height="1.3"/>
<rect x="210.7" y="45.9" class="st11" width="1.1" height="1.3"/>
<rect x="210.7" y="48.1" class="st11" width="1.1" height="1.3"/>
<rect x="210.7" y="50.3" class="st11" width="1.1" height="1.3"/>
<rect x="210.7" y="52.4" class="st11" width="1.1" height="1.3"/>
<rect x="210.7" y="54.4" class="st11" width="1.1" height="1.3"/>
<rect x="210.7" y="56.6" class="st11" width="1.1" height="1.3"/>
<rect x="212.6" y="21.7" class="st19" width="0.3" height="38.5"/>
<rect x="301.9" y="45.9" class="st14" width="70.2" height="38.5"/>
<rect x="307.2" y="48.9" class="st17" width="3.9" height="1.3"/>
<rect x="307.2" y="77.8" class="st17" width="3.9" height="1.3"/>
<rect x="307.2" y="51.1" class="st16" width="3.9" height="1.3"/>
<rect x="307.2" y="75.1" class="st16" width="3.9" height="1.3"/>
<rect x="310.1" y="53" class="st17" width="7.3" height="1.3"/>
<rect x="318.2" y="53" class="st18" width="11.8" height="1.3"/>
<rect x="313.7" y="55.1" class="st16" width="11.9" height="1.3"/>
<rect x="327.1" y="55.1" class="st18" width="19.5" height="1.3"/>
<rect x="313.7" y="57.5" class="st18" width="11.9" height="1.3"/>
<rect x="318" y="60" class="st16" width="12" height="1.3"/>
<rect x="331.4" y="60" class="st18" width="2.3" height="1.3"/>
<rect x="313.7" y="62.1" class="st17" width="6" height="1.3"/>
<rect x="321" y="62.1" class="st18" width="21.7" height="1.3"/>
<rect x="321" y="64.3" class="st17" width="28.2" height="1.3"/>
<rect x="313.7" y="66.5" class="st18" width="6" height="1.3"/>
<rect x="321" y="66.5" class="st18" width="21.7" height="1.3"/>
<rect x="313.7" y="69.1" class="st16" width="11.9" height="1.3"/>
<rect x="327.1" y="69.1" class="st18" width="19.5" height="1.3"/>
<rect x="310.1" y="71.2" class="st17" width="7.3" height="1.3"/>
<rect x="318.2" y="71.2" class="st15" width="11.8" height="1.3"/>
<rect x="301.9" y="45.9" class="st14" width="2.7" height="38.5"/>
<rect x="302.8" y="48.9" class="st11" width="1.3" height="1.3"/>
<rect x="302.8" y="51.1" class="st11" width="1.3" height="1.3"/>
<rect x="302.8" y="53" class="st11" width="1.3" height="1.3"/>
<rect x="302.8" y="55.2" class="st11" width="1.3" height="1.3"/>
<rect x="302.8" y="57.4" class="st11" width="1.3" height="1.3"/>
<rect x="302.8" y="59.6" class="st11" width="1.3" height="1.3"/>
<rect x="302.8" y="61.5" class="st11" width="1.3" height="1.3"/>
<rect x="302.8" y="63.7" class="st11" width="1.3" height="1.3"/>
<rect x="302.8" y="66" class="st11" width="1.3" height="1.3"/>
<rect x="302.8" y="68.2" class="st11" width="1.3" height="1.3"/>
<rect x="302.8" y="70.1" class="st11" width="1.3" height="1.3"/>
<rect x="302.8" y="72.3" class="st11" width="1.3" height="1.3"/>
<rect x="302.8" y="74.5" class="st11" width="1.3" height="1.3"/>
<rect x="302.8" y="76.7" class="st11" width="1.3" height="1.3"/>
<rect x="302.8" y="78.6" class="st11" width="1.3" height="1.3"/>
<rect x="302.8" y="80.8" class="st11" width="1.3" height="1.3"/>
<rect x="304.9" y="45.9" class="st19" width="0.3" height="38.5"/>
<polygon class="st11" points="192.6,93.3 196.7,89.2 194.7,89.2 194.7,72.6 176,72.6 176,76.7 190.5,76.7 190.5,89.2 188.4,89.2 "/>
<polygon class="st11" points="278.4,93.3 274.2,89.2 276.3,89.2 276.3,72.6 295,72.6 295,76.7 280.4,76.7 280.4,89.2 282.5,89.2 "/>
<polygon class="st11" points="241.8,93.3 235.9,87.4 238.9,87.4 238.9,71 244.7,71 244.7,87.4 247.7,87.4 "/>
<rect x="178" y="106.7" class="st11" width="127.6" height="67.7"/>
<rect x="178" y="106.7" class="st14" width="127.6" height="67.7"/>
<rect x="187.7" y="112" class="st17" width="7.2" height="2.3"/>
<rect x="187.7" y="162.7" class="st17" width="7.2" height="2.3"/>
<rect x="187.7" y="115.7" class="st16" width="7.2" height="2.3"/>
<rect x="187.7" y="158" class="st16" width="7.2" height="2.3"/>
<rect x="192.9" y="119.2" class="st17" width="13.2" height="2.3"/>
<rect x="207.7" y="119.2" class="st18" width="21.5" height="2.3"/>
<rect x="199.5" y="122.9" class="st16" width="21.7" height="2.3"/>
<rect x="223.8" y="122.9" class="st18" width="35.4" height="2.3"/>
<rect x="199.5" y="127" class="st18" width="21.7" height="2.3"/>
<rect x="223.8" y="127" class="st15" width="51.8" height="2.3"/>
<rect x="207.4" y="131.4" class="st16" width="21.7" height="2.3"/>
<rect x="231.7" y="131.4" class="st18" width="4.2" height="2.3"/>
<rect x="238" y="131.4" class="st18" width="46.1" height="2.3"/>
<rect x="199.5" y="135.1" class="st15" width="10.9" height="2.3"/>
<rect x="212.8" y="135.1" class="st18" width="39.4" height="2.3"/>
<rect x="255.6" y="135.1" class="st18" width="31.4" height="2.3"/>
<rect x="212.8" y="139" class="st18" width="51.3" height="2.3"/>
<rect x="199.5" y="142.9" class="st18" width="10.9" height="2.3"/>
<rect x="212.8" y="142.9" class="st18" width="39.4" height="2.3"/>
<rect x="255.6" y="142.9" class="st15" width="31.4" height="2.3"/>
<rect x="199.5" y="147.5" class="st16" width="21.7" height="2.3"/>
<rect x="223.8" y="147.5" class="st18" width="35.4" height="2.3"/>
<rect x="192.9" y="151" class="st17" width="13.2" height="2.3"/>
<rect x="207.7" y="151" class="st15" width="21.5" height="2.3"/>
<rect x="178" y="106.7" class="st14" width="4.8" height="67.7"/>
<rect x="179.8" y="112" class="st11" width="2.3" height="2.3"/>
<rect x="179.8" y="115.7" class="st11" width="2.3" height="2.3"/>
<rect x="179.8" y="119.2" class="st11" width="2.3" height="2.3"/>
<rect x="179.8" y="123" class="st11" width="2.3" height="2.3"/>
<rect x="179.8" y="126.9" class="st11" width="2.3" height="2.3"/>
<rect x="179.8" y="130.7" class="st11" width="2.3" height="2.3"/>
<rect x="179.8" y="134.1" class="st11" width="2.3" height="2.3"/>
<rect x="179.8" y="137.9" class="st11" width="2.3" height="2.3"/>
<rect x="179.8" y="142" class="st11" width="2.3" height="2.3"/>
<rect x="179.8" y="145.8" class="st11" width="2.3" height="2.3"/>
<rect x="179.8" y="149.2" class="st11" width="2.3" height="2.3"/>
<rect x="179.8" y="153" class="st11" width="2.3" height="2.3"/>
<rect x="179.8" y="156.9" class="st11" width="2.3" height="2.3"/>
<rect x="179.8" y="160.7" class="st11" width="2.3" height="2.3"/>
<rect x="179.8" y="164.2" class="st11" width="2.3" height="2.3"/>
<rect x="179.8" y="167.9" class="st11" width="2.3" height="2.3"/>
<rect x="183.5" y="106.7" class="st19" width="0.6" height="67.7"/>
</svg>
