<?xml version="1.0" encoding="utf-8"?>
<!-- Generator: Adobe Illustrator 22.0.0, SVG Export Plug-In . SVG Version: 6.00 Build 0)  -->
<svg version="1.1" id="Layer_1" xmlns="http://www.w3.org/2000/svg" xmlns:xlink="http://www.w3.org/1999/xlink" x="0px" y="0px"
	 viewBox="0 0 650 550" style="enable-background:new 0 0 650 550;" xml:space="preserve">
<style type="text/css">
	.st0{fill:#23984B;}
	.st1{fill:#FFFFFF;}
	.st2{fill:#D94A9B;}
	.st3{fill:#8CC751;}
	.st4{fill:#0084AE;}
	.st5{fill:#FCAF17;}
	.st6{opacity:0.25;fill:#FFFFFF;}
	.st7{opacity:0.5;fill:#FFFFFF;}
	.st8{fill:#FEC464;}
	.st9{fill:#FFDF4E;}
	.st10{fill:#40C8F4;}
	.st11{fill:#F05A61;}
	.st12{opacity:0.21;fill:#FFFFFF;}
	.st13{opacity:0.4;fill:#059498;}
	.st14{fill:none;}
	.st15{fill:#264C65;}
	.st16{fill:#0C1F2F;}
	.st17{fill:#DEF5F9;}
	.st18{fill:#FDCF9D;}
	.st19{fill:#9C661C;}
	.st20{fill:#BE9B76;}
	.st21{fill:#0C2638;}
	.st22{fill:#040D13;}
	.st23{fill:#10334A;}
	.st24{fill:#FBB03B;}
	.st25{fill:#F0ECEC;}
	.st26{fill:#F9643C;}
	.st27{fill:#E5EBF0;}
	.st28{fill:#A96DAD;}
	.st29{fill:#5B849F;}
	.st30{fill:#132633;}
	.st31{fill:#F5F9E2;}
	.st32{fill:#7C9DB2;}
	.st33{opacity:0.7;fill:#23984B;}
	.st34{fill:#2C130B;}
	.st35{fill:#0F0F0F;}
	.st36{fill:#FDD9B1;}
	.st37{fill:#B04C2C;}
	.st38{fill:#FAFBFA;}
	.st39{fill:#382D26;}
	.st40{opacity:0.6;fill:#D7D5D4;}
	.st41{opacity:0.65;fill:#E0D9D9;}
</style>
<rect y="0" class="st0" width="650" height="550"/>
<g>
	<g>
		<path class="st1" d="M332.3,371.6h-6v-57.3c0-9.5-7.7-17.2-17.2-17.2h-87.9c-1.5,0-2.8-0.2-4.1-0.4c-0.5-0.1-1-0.1-1.5-0.2
			c-0.2,0-0.4-0.1-0.7-0.1l-1-0.1c-1.4-0.1-2.8-0.3-4.3-0.7c-25.5-3.9-48.8-16.9-65.8-36.4c-17.2-19.8-26.6-45.1-26.6-71.3
			c0-60.2,49-109.2,109.2-109.2c8.9,0,17.8,1.1,26.5,3.3c5.7,1.5,9.7,6.6,9.7,12.6v40c0,9.9-8.1,18-18,18h-45.3c-6.6,0-12,5.4-12,12
			v34.5c0,6.6,5.4,12,12,12h114c6.6,0,12-5.4,12-12v-72.9c0-9.9,8.1-18,18-18h58.5c9.9,0,18,8.1,18,18v124.5c0,9.9-8.1,18-18,18
			h-124c-12.7,0-23-10.3-23-23v-10.4h6v10.4c0,9.4,7.6,17,17,17h124c6.6,0,12-5.4,12-12V126.3c0-6.6-5.4-12-12-12h-58.5
			c-6.6,0-12,5.4-12,12v72.9c0,9.9-8.1,18-18,18h-114c-9.9,0-18-8.1-18-18v-34.5c0-9.9,8.1-18,18-18h45.3c6.6,0,12-5.4,12-12v-40
			c0-3.2-2.1-6-5.2-6.8c-8.2-2.1-16.6-3.1-25-3.1c-56.9,0-103.2,46.3-103.2,103.2c0,51.2,36.8,94,87.5,101.8l0.3,0.1
			c1.1,0.3,2.3,0.4,3.6,0.5l1.2,0.1c0.2,0,0.3,0,0.5,0.1c0.5,0.1,1.1,0.1,1.6,0.2c1.1,0.2,2.2,0.3,3.2,0.3h87.9
			c12.8,0,23.2,10.4,23.2,23.2V371.6z"/>
		<path class="st1" d="M454.8,297h-88c-9.9,0-18-8.1-18-18v-39.9h-38c-9.9,0-18-8.1-18-18v-96.8c0-6.6-5.4-12-12-12h-44
			c-6.6,0-12,5.4-12,12v108.5c0,9.9-8.1,18-18,18h-35c-9.9,0-18-8.1-18-18V142c0-9.9,8.1-18,18-18h27v5.9h-27c-6.6,0-12,5.4-12,12
			v90.8c0,6.6,5.4,12,12,12h35c6.6,0,12-5.4,12-12V124.3c0-9.9,8.1-18,18-18h44c9.9,0,18,8.1,18,18v96.8c0,6.6,5.4,12,12,12h38
			v-23.8h5.9v23.8h16.5c6.6,0,12-5.4,12-12V208c0-9.9,8.1-18,18-18h31.4c5.1,0,9.3-4.2,9.3-9.3v-14.4c0-7.6,6.1-13.7,13.7-13.7h17.5
			c2.7,0,5.3,0.6,7.6,1.9c25,13.1,40.5,38.7,40.5,66.9c0,24.8-12.2,48-32.6,62.1C479.4,292.2,467.3,297,454.8,297z M354.8,239.1V279
			c0,6.6,5.4,12,12,12h88c11,0,21.8-4.3,30.2-12l0.3-0.3c18.9-13,30.2-34.5,30.2-57.3c0-26-14.3-49.6-37.4-61.7
			c-1.5-0.8-3.2-1.2-4.9-1.2h-17.5c-4.3,0-7.8,3.5-7.8,7.8v14.4c0,8.4-6.8,15.3-15.3,15.3h-31.4c-6.6,0-12,5.4-12,12v13.1
			c0,9.9-8.1,18-18,18H354.8z"/>
		<path class="st1" d="M444.4,284h-6v-15.7c0-9.9,8.1-18,18-18h18.3c4.4,0,8-3.6,8-8v-7.4c0-4.4-3.6-8-8-8H450c-9.9,0-18-8.1-18-18
			v-59.6h-40v-6h40v-26.9c0-13.1-10.7-23.8-23.8-23.8h-22.9c-6.6,0-12,5.4-12,12v63.8c0,9.9-8.1,18-18,18h-70.5c-9.9,0-18-8.1-18-18
			V84c0-3.2,1-6.3,2.8-9c21.4-31.4,56.8-50.2,94.7-50.2c63.2,0,114.5,51.4,114.5,114.5c0,5.5-4.5,9.9-9.9,9.9H438v59.6
			c0,6.6,5.4,12,12,12h24.7c7.7,0,14,6.3,14,14v7.4c0,7.7-6.3,14-14,14h-18.3c-6.6,0-12,5.4-12,12V284z M364.3,30.9
			c-35.9,0-69.4,17.8-89.7,47.6c-1.1,1.7-1.7,3.6-1.7,5.6v84.4c0,6.6,5.4,12,12,12h70.5c6.6,0,12-5.4,12-12v-63.8
			c0-9.9,8.1-18,18-18h22.9c16.4,0,29.8,13.3,29.8,29.8v26.9h30.8c2.2,0,3.9-1.8,3.9-3.9C472.8,79.5,424.1,30.9,364.3,30.9z"/>
	</g>
</g>
<rect x="223.7" y="181.7" class="st1" width="28.7" height="5.9"/>
<polygon class="st1" points="257.8,225.4 247,238 268.6,238 "/>
<polygon class="st1" points="260.2,184.7 247.6,173.9 247.6,195.5 "/>
<polygon class="st1" points="244.3,270.9 231.7,260.1 231.7,281.6 "/>
<polygon class="st1" points="351,200.8 340.2,213.4 361.8,213.4 "/>
<polygon class="st1" points="370.5,42 359.7,54.6 381.2,54.6 "/>
<polygon class="st1" points="441.5,289.6 452.3,277 430.8,277 "/>
<polygon class="st1" points="466.5,183.5 455.7,196.1 477.3,196.1 "/>
<polygon class="st1" points="383.6,146.4 396.2,157.2 396.2,135.7 "/>
<polygon class="st1" points="424.6,69.9 412,59.1 412,80.7 "/>
<polygon class="st1" points="207,126.9 194.4,116.2 194.4,137.7 "/>
<path class="st1" d="M395,92h-6V81.3c0-7.9,6.4-14.4,14.4-14.4h13.5v6h-13.5c-4.6,0-8.4,3.8-8.4,8.4V92z"/>
<path class="st1" d="M238,273h-33.7c-9.4,0-17-7.6-17-17v-10.8h5.9V256c0,6.1,5,11,11,11H238V273z"/>
<ellipse transform="matrix(0.1609 -0.987 0.987 0.1609 -23.6577 400.4732)" class="st1" cx="223.7" cy="214.2" rx="14.4" ry="14.4"/>
<circle class="st1" cx="298.7" cy="183.5" r="14.4"/>
<circle class="st1" cx="416.9" cy="145.5" r="14.4"/>
<ellipse transform="matrix(0.7071 -0.7071 0.7071 0.7071 33.5588 247.0667)" class="st1" cx="315" cy="83" rx="14.4" ry="14.4"/>
<ellipse transform="matrix(0.1567 -0.9876 0.9876 0.1567 127.5536 453.6763)" class="st1" cx="329.4" cy="152.1" rx="14.4" ry="14.4"/>
<circle class="st1" cx="370.5" cy="109.3" r="14.4"/>
<circle class="st1" cx="466.5" cy="223.8" r="14.4"/>
<circle class="st1" cx="350.6" cy="264.1" r="14.4"/>
<ellipse transform="matrix(0.2423 -0.9702 0.9702 0.2423 -60.3274 292.1334)" class="st1" cx="156.9" cy="184.7" rx="14.4" ry="14.4"/>
<circle class="st1" cx="223.7" cy="149.6" r="14.4"/>
<circle class="st1" cx="392" cy="199.7" r="14.4"/>
<circle class="st1" cx="190.4" cy="247" r="14.4"/>
<path class="st1" d="M327.4,155.5h-5c-7.7,0-14-6.3-14-14V88.2c0-9.4,7.6-17,17-17h29.1c7.2,0,13-5.8,13-13V47h6v11.2
	c0,10.5-8.5,19-19,19h-29.1c-6.1,0-11,4.9-11,11v53.3c0,4.4,3.6,8,8,8h5V155.5z"/>
<rect x="463.5" y="190.3" class="st1" width="6" height="32.7"/>
<g>
	<g>
		<path class="st2" d="M360.6,266c-0.3-0.4-1.1-0.6-1.9-1c-0.8-0.3-1-0.5-1-0.5l0-0.8c0,0,0.3-0.2,0.4-1c0.2,0.1,0.4-0.3,0.4-0.5
			c0-0.2,0-0.7-0.3-0.6c0-0.4,0.1-0.7,0.1-0.9c-0.1-0.6-0.7-1.3-1.7-1.3c-1,0-1.6,0.7-1.7,1.3c0,0.2,0,0.5,0.1,0.9
			c-0.2,0-0.3,0.4-0.3,0.6c0,0.2,0.2,0.5,0.4,0.5c0.1,0.8,0.4,1,0.4,1l0,0.8c0,0-0.2,0.1-1,0.5c0,0-0.1,0-0.1,0c0,0,0,0,0.1,0
			c1,0.4,1.8,0.7,2.2,1.3c0.2,0.3,0.3,1,0.3,1.7h3.8C360.7,268.1,360.8,266.4,360.6,266z"/>
		<path class="st2" d="M346.8,265.1C346.8,265.1,346.8,265.1,346.8,265.1C346.8,265.1,346.8,265.1,346.8,265.1
			c-0.9-0.4-1.1-0.5-1.1-0.5l0-0.8c0,0,0.3-0.2,0.4-1c0.2,0.1,0.4-0.3,0.4-0.5c0-0.2,0-0.7-0.3-0.6c0-0.4,0.1-0.7,0.1-0.9
			c-0.1-0.6-0.7-1.3-1.7-1.3c-1,0-1.6,0.7-1.7,1.3c0,0.2,0,0.5,0.1,0.9c-0.2,0-0.3,0.4-0.3,0.6c0,0.2,0.2,0.5,0.4,0.5
			c0.1,0.8,0.4,1,0.4,1l0,0.8c0,0-0.2,0.1-1,0.5c-0.8,0.3-1.7,0.6-1.9,1c-0.2,0.4-0.2,2-0.2,2h3.8c0-0.7,0.1-1.3,0.3-1.7
			C345,265.8,345.8,265.5,346.8,265.1z"/>
		<path class="st2" d="M356.2,268.1c0-0.5-0.1-1.1-0.2-1.3c-0.3-0.5-1.5-0.9-2.6-1.3c0,0,0,0,0,0c-1.1-0.5-1.4-0.6-1.4-0.6l0-1.1
			c0,0,0.4-0.3,0.6-1.3c0,0,0,0,0.1,0c0.1,0,0.1,0,0.2-0.1c0,0,0,0,0,0c0,0,0.1-0.1,0.1-0.1c0,0,0,0,0,0c0-0.1,0.1-0.1,0.1-0.2
			c0,0,0,0,0,0c0-0.1,0-0.1,0-0.2c0,0,0-0.1,0-0.1c0,0,0,0,0,0c0,0,0-0.1,0-0.1c0,0,0,0,0-0.1c0,0,0-0.1,0-0.1c0,0,0,0,0-0.1
			c0,0,0-0.1,0-0.1c0,0,0,0,0-0.1c0,0,0-0.1,0-0.1c0,0,0,0,0,0c0,0,0,0,0-0.1c0,0,0,0,0,0c0,0,0,0,0,0c0,0,0,0,0,0c0,0,0,0-0.1,0
			c0.1-0.5,0.1-0.9,0.1-1.2c-0.1-0.9-0.9-1.8-2.2-1.8c-1.3,0-2.2,0.9-2.2,1.8c0,0.2,0,0.7,0.1,1.2c0,0-0.1,0-0.1,0c0,0,0,0,0,0
			c0,0,0,0,0,0c0,0,0,0,0,0c0,0,0,0,0,0.1c0,0,0,0,0,0c0,0,0,0,0,0.1c0,0,0,0,0,0.1c0,0,0,0.1,0,0.1c0,0,0,0,0,0.1c0,0,0,0.1,0,0.1
			c0,0,0,0,0,0.1c0,0,0,0.1,0,0.1c0,0,0,0,0,0c0,0,0,0.1,0,0.1c0,0.1,0,0.1,0,0.2c0,0,0,0,0,0c0,0.1,0.1,0.1,0.1,0.2c0,0,0,0,0,0
			c0,0.1,0.1,0.1,0.1,0.1c0,0,0,0,0,0c0,0,0.1,0.1,0.2,0.1c0,0,0,0,0.1,0c0.1,1,0.6,1.3,0.6,1.3l0,1.1c0,0-0.3,0.2-1.4,0.6
			c0,0,0,0,0,0c-1.1,0.5-2.3,0.8-2.6,1.3c-0.1,0.2-0.2,0.7-0.2,1.3c0,0.7,0,1.5,0,1.5h5.6h5.6C356.2,269.5,356.3,268.8,356.2,268.1z
			"/>
	</g>
</g>
<g>
	<g>
		<path class="st3" d="M223.7,152.2l-7.7-6.6v8.9c0,0.3,0.2,0.5,0.5,0.5H231c0.2,0,0.5-0.2,0.5-0.5v-8.9L223.7,152.2z"/>
		<path class="st3" d="M231.2,144.6c-0.1,0-0.1-0.1-0.2-0.1h-14.5c-0.1,0-0.1,0-0.2,0.1l7.5,6.4L231.2,144.6z"/>
	</g>
</g>
<g>
	<path class="st1" d="M271.9,283.2l-8.2-7v9.4c0,0.3,0.2,0.5,0.5,0.5h15.4c0.3,0,0.5-0.2,0.5-0.5v-9.4L271.9,283.2z"/>
	<path class="st1" d="M279.9,275.2c-0.1,0-0.2-0.1-0.2-0.1h-15.4c-0.1,0-0.2,0-0.2,0.1l8,6.8L279.9,275.2z"/>
</g>
<g>
	<path class="st1" d="M434,234.2c0,0.3-0.3,0.5-0.6,0.5h-0.4c-0.3,0-0.6-0.2-0.6-0.5V231c0-0.3,0.3-0.5,0.6-0.5h0.4
		c0.3,0,0.6,0.2,0.6,0.5V234.2z"/>
	<path class="st1" d="M439.4,234.2c0,0.3-0.3,0.5-0.6,0.5h-0.4c-0.3,0-0.6-0.2-0.6-0.5V231c0-0.3,0.3-0.5,0.6-0.5h0.4
		c0.3,0,0.6,0.2,0.6,0.5V234.2z"/>
	<path class="st1" d="M444.2,233.1h-3.7v1.1c0,0.9-0.7,1.6-1.7,1.6h-0.4c-0.9,0-1.7-0.7-1.7-1.6v-1.1H435v1.1c0,0.9-0.7,1.6-1.7,1.6
		h-0.4c-0.9,0-1.7-0.7-1.7-1.6v-1.1h-3.7c-0.3,0-0.5,0.2-0.5,0.5v15c0,0.3,0.2,0.5,0.5,0.5h16.6c0.3,0,0.5-0.2,0.5-0.5v-15
		C444.7,233.4,444.5,233.1,444.2,233.1z M428.6,236.3h14.4v1.6h-14.4V236.3z M430.3,247.6h-1.6V246h1.6V247.6z M430.3,245.4h-1.6
		v-1.6h1.6V245.4z M430.3,243.3h-1.6v-1.6h1.6V243.3z M432.4,247.6h-1.6V246h1.6V247.6z M432.4,245.4h-1.6v-1.6h1.6V245.4z
		 M432.4,243.3h-1.6v-1.6h1.6V243.3z M434.5,247.6h-1.6V246h1.6V247.6z M434.5,245.4h-1.6v-1.6h1.6V245.4z M434.5,243.3h-1.6v-1.6
		h1.6V243.3z M434.5,241.2h-1.6v-1.6h1.6V241.2z M436.7,247.6h-1.6V246h1.6V247.6z M436.7,245.4h-1.6v-1.6h1.6V245.4z M436.7,243.3
		h-1.6v-1.6h1.6V243.3z M436.7,241.2h-1.6v-1.6h1.6V241.2z M438.8,247.6h-1.6V246h1.6V247.6z M438.8,245.4h-1.6v-1.6h1.6V245.4z
		 M438.8,243.3h-1.6v-1.6h1.6V243.3z M438.8,241.2h-1.6v-1.6h1.6V241.2z M441,245.4h-1.6v-1.6h1.6V245.4z M441,243.3h-1.6v-1.6h1.6
		V243.3z M441,241.2h-1.6v-1.6h1.6V241.2z M443.1,245.4h-1.6v-1.6h1.6V245.4z M443.1,243.3h-1.6v-1.6h1.6V243.3z M443.1,241.2h-1.6
		v-1.6h1.6V241.2z"/>
</g>
<g>
	<path class="st1" d="M436.2,374.7c0,0.3-0.3,0.5-0.6,0.5h-0.4c-0.3,0-0.6-0.2-0.6-0.5v-3.2c0-0.3,0.3-0.5,0.6-0.5h0.4
		c0.3,0,0.6,0.2,0.6,0.5V374.7z"/>
	<path class="st1" d="M441.6,374.7c0,0.3-0.3,0.5-0.6,0.5h-0.4c-0.3,0-0.6-0.2-0.6-0.5v-3.2c0-0.3,0.3-0.5,0.6-0.5h0.4
		c0.3,0,0.6,0.2,0.6,0.5V374.7z"/>
	<path class="st1" d="M446.4,373.6h-3.7v1.1c0,0.9-0.7,1.6-1.7,1.6h-0.4c-0.9,0-1.7-0.7-1.7-1.6v-1.1h-1.7v1.1
		c0,0.9-0.7,1.6-1.7,1.6h-0.4c-0.9,0-1.7-0.7-1.7-1.6v-1.1h-3.7c-0.3,0-0.5,0.2-0.5,0.5v15c0,0.3,0.2,0.5,0.5,0.5h16.6
		c0.3,0,0.5-0.2,0.5-0.5v-15C446.9,373.8,446.7,373.6,446.4,373.6z M430.9,376.8h14.4v1.6h-14.4V376.8z M432.5,388.1h-1.6v-1.6h1.6
		V388.1z M432.5,385.9h-1.6v-1.6h1.6V385.9z M432.5,383.8h-1.6v-1.6h1.6V383.8z M434.6,388.1H433v-1.6h1.6V388.1z M434.6,385.9H433
		v-1.6h1.6V385.9z M434.6,383.8H433v-1.6h1.6V383.8z M436.7,388.1h-1.6v-1.6h1.6V388.1z M436.7,385.9h-1.6v-1.6h1.6V385.9z
		 M436.7,383.8h-1.6v-1.6h1.6V383.8z M436.7,381.7h-1.6V380h1.6V381.7z M438.9,388.1h-1.6v-1.6h1.6V388.1z M438.9,385.9h-1.6v-1.6
		h1.6V385.9z M438.9,383.8h-1.6v-1.6h1.6V383.8z M438.9,381.7h-1.6V380h1.6V381.7z M441,388.1h-1.6v-1.6h1.6V388.1z M441,385.9h-1.6
		v-1.6h1.6V385.9z M441,383.8h-1.6v-1.6h1.6V383.8z M441,381.7h-1.6V380h1.6V381.7z M443.2,385.9h-1.6v-1.6h1.6V385.9z M443.2,383.8
		h-1.6v-1.6h1.6V383.8z M443.2,381.7h-1.6V380h1.6V381.7z M445.3,385.9h-1.6v-1.6h1.6V385.9z M445.3,383.8h-1.6v-1.6h1.6V383.8z
		 M445.3,381.7h-1.6V380h1.6V381.7z"/>
</g>
<g>
	<path class="st1" d="M354.2,168c-0.9,0-1.6-0.7-1.8-1.5h-0.2h-4.8v4.7c0,0.2,0.2,0.4,0.4,0.4h12.7c0.2,0,0.4-0.2,0.4-0.4v-4.7h-4.7
		H356C355.8,167.3,355.1,168,354.2,168z"/>
	<path class="st1" d="M360.9,162.1c0-0.2-0.2-0.4-0.4-0.4h-4v-2c0-0.2-0.2-0.4-0.4-0.4h0h-3.9h0c-0.2,0-0.4,0.2-0.4,0.4v2h-4
		c-0.2,0-0.4,0.2-0.4,0.4v3.6h5c0.2-0.8,0.9-1.3,1.7-1.3c0.8,0,1.5,0.6,1.7,1.3h5V162.1z M355.4,161.7H353v-1.2h2.4V161.7z"/>
	<path class="st1" d="M355,166.1c0,0.4-0.4,0.8-0.8,0.8c-0.4,0-0.8-0.4-0.8-0.8c0-0.4,0.4-0.8,0.8-0.8
		C354.6,165.4,355,165.7,355,166.1z"/>
</g>
<g>
	<path class="st1" d="M499.9,192.8c0.2-0.2,0.2-0.6-0.1-0.8l-3.4-3.4c-0.2-0.2-0.6-0.3-0.8-0.1l-2,2l4.3,4.3L499.9,192.8z"/>
	<polygon class="st1" points="481,207.4 485.2,207.4 481,203.2 	"/>
	<path class="st1" d="M485.6,207c0,0,0.1,0,0.1-0.1l11.4-11.4l-1.7-1.7L484.3,205l-0.8-0.8l11.2-11.2l-1.9-1.9l-11.4,11.4
		c0,0-0.1,0.1-0.1,0.1l3.6,3.6L485.6,207z"/>
</g>
<g>
	<g>
		<path class="st4" d="M224.5,210.1l-0.8-0.7l-0.8,0.7l-5.5,4.5v0v5.6c0,0.3,0.2,0.5,0.5,0.5h4.4v-4.2h3v4.2h4.3
			c0.3,0,0.5-0.2,0.5-0.5v-5.6v0L224.5,210.1z"/>
		<path class="st4" d="M232.6,213.5l-2.7-2.3v-4.9h-2.7v2.6l-2.2-1.9l-1.2-1l-1.2,1l-7.4,6.2c-0.2,0.2-0.2,0.5-0.1,0.7l0.4,0.5
			c0.2,0.2,0.5,0.2,0.7,0.1l7.6-6.4l3.4,2.9l1.1,0.9l3.3,2.8c0.2,0.2,0.5,0.1,0.7-0.1l0.4-0.5C232.8,214,232.8,213.7,232.6,213.5z"
			/>
	</g>
</g>
<g>
	<path class="st1" d="M338.8,219.3h-9.4v-0.9c0-0.2-0.2-0.4-0.4-0.4h-1.8c-0.2,0-0.4,0.2-0.4,0.4v0.9H325c-0.2,0-0.4,0.2-0.4,0.4
		v8.2c0,0.2,0.2,0.4,0.4,0.4h13.8c0.2,0,0.4-0.2,0.4-0.4v-8.2C339.2,219.5,339,219.3,338.8,219.3z M329.6,227.4
		c-1.9,0-3.5-1.6-3.5-3.5c0-1.9,1.6-3.5,3.5-3.5c1.9,0,3.5,1.6,3.5,3.5C333.1,225.8,331.5,227.4,329.6,227.4z M337.4,222
		c0,0.2-0.2,0.4-0.4,0.4h-1.7c-0.2,0-0.4-0.2-0.4-0.4v-1c0-0.2,0.2-0.4,0.4-0.4h1.7c0.2,0,0.4,0.2,0.4,0.4V222z"/>
	<path class="st1" d="M329.6,221.4c-1.4,0-2.5,1.1-2.5,2.5c0,1.4,1.1,2.5,2.5,2.5c1.4,0,2.5-1.1,2.5-2.5
		C332.1,222.5,331,221.4,329.6,221.4z"/>
</g>
<g>
	<path class="st1" d="M258.8,167.3c0-1.2-0.7-2.3-1.8-2.7c0-0.2,0-0.4,0-0.6c0-2.5-2-4.6-4.6-4.6c-1.8,0-3.3,1-4.1,2.5
		c-0.5-0.2-1-0.3-1.6-0.3c-2.4,0-4.4,1.9-4.4,4.4c0,2.2,1.6,4,3.7,4.3c0.1,0,0.1,0,0.2,0c0,0,0,0,0,0c0.1,0,0.1,0,0.2,0h9.6
		c0.5,0,1-0.2,1.3-0.5C258.2,169.2,258.8,168.3,258.8,167.3z"/>
</g>
<g>
	<path class="st1" d="M219.5,105.1c-0.3-0.5-1.4-0.8-2.4-1.2c-1.1-0.4-1.3-0.6-1.3-0.6l0-1c0,0,0.4-0.3,0.5-1.3
		c0.2,0.1,0.5-0.4,0.5-0.6c0-0.2,0-0.8-0.3-0.8c0.1-0.5,0.1-0.9,0.1-1.1c-0.1-0.8-0.9-1.7-2.1-1.7c-1.2,0-2,0.9-2.1,1.7
		c0,0.2,0,0.6,0.1,1.1c-0.3-0.1-0.3,0.6-0.3,0.8c0,0.2,0.3,0.7,0.5,0.6c0.1,0.9,0.5,1.3,0.5,1.3l0,1c0,0-0.2,0.2-1.3,0.6
		c0,0-0.1,0-0.1,0c0,0,0,0,0.1,0c1.2,0.5,2.3,0.9,2.8,1.7c0.3,0.4,0.4,1.2,0.4,2.1h4.7C219.7,107.7,219.8,105.6,219.5,105.1z"/>
	<path class="st1" d="M202.2,104C202.2,103.9,202.2,103.9,202.2,104C202.2,103.9,202.2,103.9,202.2,104c-1.1-0.5-1.3-0.7-1.3-0.7
		l0-1c0,0,0.4-0.3,0.5-1.3c0.2,0.1,0.5-0.4,0.5-0.6c0-0.2,0-0.8-0.3-0.8c0.1-0.5,0.1-0.9,0.1-1.1c-0.1-0.8-0.9-1.7-2.1-1.7
		c-1.2,0-2,0.9-2.1,1.7c0,0.2,0,0.6,0.1,1.1c-0.3-0.1-0.3,0.6-0.3,0.8c0,0.2,0.3,0.7,0.5,0.6c0.1,0.9,0.5,1.3,0.5,1.3l0,1
		c0,0-0.2,0.2-1.3,0.6c-1.1,0.4-2.1,0.7-2.4,1.2c-0.3,0.4-0.2,2.6-0.2,2.6h4.7c0-0.9,0.2-1.7,0.4-2.1
		C199.9,104.8,201,104.4,202.2,104z"/>
	<path class="st1" d="M214.1,107.7c0-0.7-0.1-1.3-0.3-1.6c-0.4-0.7-1.9-1.1-3.3-1.7c0,0,0,0,0,0c-1.4-0.6-1.7-0.8-1.7-0.8l0-1.4
		c0,0,0.5-0.4,0.7-1.7c0,0,0.1,0,0.1,0c0.1,0,0.1,0,0.2-0.1c0,0,0,0,0,0c0.1-0.1,0.1-0.1,0.2-0.2c0,0,0,0,0,0c0-0.1,0.1-0.2,0.1-0.2
		c0,0,0,0,0,0c0-0.1,0.1-0.2,0.1-0.2c0,0,0-0.1,0-0.1c0,0,0,0,0,0c0,0,0-0.1,0-0.1c0,0,0,0,0-0.1c0,0,0-0.1,0-0.1c0,0,0,0,0-0.1
		c0,0,0-0.1,0-0.1c0,0,0,0,0-0.1c0,0,0-0.1,0-0.1c0,0,0,0,0-0.1c0,0,0-0.1,0-0.1c0,0,0,0,0,0c0,0,0,0-0.1,0c0,0,0,0-0.1,0
		c0,0-0.1,0-0.1,0c0.1-0.6,0.1-1.2,0.1-1.5c-0.1-1.1-1.2-2.2-2.8-2.2c-1.6,0-2.7,1.2-2.8,2.2c0,0.3,0,0.9,0.1,1.5c0,0-0.1,0-0.1,0
		c0,0,0,0-0.1,0c0,0,0,0-0.1,0c0,0,0,0,0,0c0,0,0,0,0,0.1c0,0,0,0,0,0.1c0,0,0,0.1,0,0.1c0,0,0,0,0,0.1c0,0,0,0.1,0,0.1
		c0,0,0,0.1,0,0.1c0,0,0,0.1,0,0.1c0,0,0,0,0,0.1c0,0,0,0.1,0,0.1c0,0,0,0,0,0.1c0,0,0,0.1,0,0.1c0,0.1,0,0.2,0.1,0.2c0,0,0,0,0,0
		c0,0.1,0.1,0.2,0.1,0.2c0,0,0,0,0,0c0.1,0.1,0.1,0.1,0.2,0.2c0,0,0,0,0,0c0.1,0,0.1,0.1,0.2,0.1c0,0,0.1,0,0.1,0
		c0.2,1.3,0.7,1.7,0.7,1.7l0,1.4c0,0-0.3,0.2-1.7,0.8c0,0,0,0,0,0c-1.4,0.6-2.8,1-3.3,1.7c-0.2,0.3-0.2,0.9-0.3,1.6
		c0,0.9,0,1.9,0,1.9h7.1h7.1C214.1,109.5,214.1,108.6,214.1,107.7z"/>
</g>
<g>
	<path class="st1" d="M401.9,240.5h-16.7c-0.3,0-0.5,0.2-0.5,0.5v12.1c0,0.3,0.2,0.5,0.5,0.5h4.7v0h4.5l0,0h7.5
		c0.3,0,0.5-0.2,0.5-0.5V241C402.5,240.8,402.2,240.5,401.9,240.5z"/>
	<polygon class="st1" points="394.4,253.6 390,253.6 390,257.8 	"/>
</g>
<path class="st5" d="M198.6,241h-2.8c-0.2,0-0.4,0.1-0.5,0.3l-1.2,3.1h-12c-0.2,0-0.4,0.1-0.5,0.3c-0.1,0.2-0.1,0.4-0.1,0.6l2.2,5.7
	c0.1,0.2,0.3,0.4,0.6,0.4h7.1l-0.1,0.3h-6.8l-0.3,0v0c-0.3,0.1-0.5,0.3-0.5,0.6c0,0.3,0.2,0.5,0.5,0.6v0h0.5
	c-0.4,0.2-0.7,0.7-0.7,1.1c0,0.6,0.6,1.2,1.2,1.2l0.1,0c0.7,0,1.2-0.6,1.1-1.3c0-0.4-0.3-0.8-0.7-1h4.7c-0.4,0.2-0.7,0.6-0.7,1.1
	c0,0.7,0.5,1.2,1.2,1.2c0.7,0,1.2-0.5,1.2-1.2c0-0.5-0.3-0.9-0.7-1.1h0.2c0.3,0,0.5-0.2,0.6-0.4l3.9-10.2h2.4c0.4,0,0.6-0.3,0.6-0.6
	C199.2,241.3,199,241,198.6,241z M191.9,250.1h-7.1l-1.7-4.5h10.6L191.9,250.1z"/>
<path class="st1" d="M233.5,390.4h-2.8c-0.2,0-0.4,0.1-0.5,0.3l-1.2,3.1h-12c-0.2,0-0.4,0.1-0.5,0.3c-0.1,0.2-0.1,0.4-0.1,0.6
	l2.2,5.7c0.1,0.2,0.3,0.4,0.6,0.4h7.1l-0.1,0.3h-6.8l-0.3,0v0c-0.3,0.1-0.5,0.3-0.5,0.6c0,0.3,0.2,0.5,0.5,0.6v0h0.5
	c-0.4,0.2-0.7,0.7-0.7,1.1c0,0.6,0.6,1.2,1.2,1.2l0.1,0c0.7,0,1.2-0.6,1.1-1.3c0-0.4-0.3-0.8-0.7-1h4.7c-0.4,0.2-0.7,0.6-0.7,1.1
	c0,0.7,0.5,1.2,1.2,1.2c0.7,0,1.2-0.5,1.2-1.2c0-0.5-0.3-0.9-0.7-1.1h0.2c0.3,0,0.5-0.2,0.6-0.4l3.9-10.2h2.4c0.4,0,0.6-0.3,0.6-0.6
	C234.2,390.7,233.9,390.4,233.5,390.4z M226.8,399.4h-7.1l-1.7-4.5h10.6L226.8,399.4z"/>
<path class="st1" d="M293.6,97.8l0-14.9c0-0.8-0.3-1.5-1.2-1.5l-7.3,0c-0.8,0-1.1,0.7-1.1,1.5l0,14.9c0,0.8,0.2,1.5,1,1.5l7.5,0
	C293.4,99.3,293.6,98.6,293.6,97.8z M293,96.3l-8.4,0l0-12l8.4,0L293,96.3z"/>
<g>
	<g>
		<g>
			<path class="st1" d="M170.7,139.5c0.4,0,0.9,0.2,1.2,0.5c0.7,0.6,0.9,1.5,0.8,1.7c0,0,0,0,0,0c0,0-0.1,0-0.3,0
				c-0.6,0-1.3-0.3-1.8-0.8c-0.4-0.4-0.5-0.8-0.5-1c0-0.2,0.1-0.3,0.1-0.3C170.3,139.5,170.6,139.5,170.7,139.5L170.7,139.5
				 M170.7,138.4c-0.5,0-0.9,0.1-1.2,0.4c-0.8,0.7-0.6,2,0.4,2.9c0.7,0.6,1.7,1.1,2.6,1.1c0.4,0,0.8-0.1,1-0.3
				c0.8-0.7,0.2-2.4-0.8-3.3C172,138.7,171.3,138.4,170.7,138.4L170.7,138.4z"/>
			<path class="st1" d="M176.2,139.5c0.1,0,0.3,0,0.5,0.2c0,0,0.1,0.1,0.1,0.3c0,0.3-0.1,0.7-0.5,1c-0.5,0.4-1.3,0.8-1.8,0.8
				c-0.2,0-0.3,0-0.3,0c-0.1-0.2,0.1-1.1,0.8-1.7C175.3,139.7,175.8,139.5,176.2,139.5 M176.2,138.4c-0.7,0-1.4,0.3-1.9,0.8
				c-1,0.9-1.6,2.6-0.8,3.3c0.2,0.2,0.6,0.3,1,0.3c0.8,0,1.9-0.4,2.6-1.1c1-0.9,1.2-2.2,0.4-2.9
				C177.1,138.6,176.7,138.4,176.2,138.4L176.2,138.4z"/>
		</g>
		<g>
			<path class="st1" d="M167.1,147.1l0-3.7c0-0.6,0.5-1.1,1.1-1.1l4.8,0l0,4.8L167.1,147.1z"/>
			<path class="st1" d="M172.9,148.2l0,4.8l-4.8,0c-0.6,0-1.1-0.5-1.1-1.1l0-3.7L172.9,148.2z"/>
		</g>
		<g>
			<path class="st1" d="M174,147.1l0-4.8l4.8,0c0.6,0,1.1,0.5,1.1,1.1l0,3.7L174,147.1z"/>
			<path class="st1" d="M179.8,148.2l0,3.7c0,0.6-0.5,1.1-1.1,1.1l-4.8,0l0-4.8L179.8,148.2z"/>
		</g>
	</g>
</g>
<g>
	<g>
		<path class="st1" d="M196.8,173.2l2.4,0c0.3,1.3,1.5,2.3,3,2.3c1.4,0,2.7-1,3-2.3l2.4,0l0,0l0,0l0,0l4.7,2.4l-1.6,3.9l-3.1-1.6
			l0,9.3l-10.9,0l0-9.3l-3.1,1.5l-1.5-3.9L196.8,173.2z"/>
	</g>
</g>
<g>
	<rect x="342.5" y="126.8" class="st6" width="12.1" height="6"/>
	<path class="st1" d="M340.5,126.1l0,7.4c0,0.7,0.6,1.3,1.3,1.3l5.4,0v2.7c-0.4,0-0.7,0-0.7,0s-0.7,0-0.7,0.7l5.4,0
		c0,0,0-0.7-0.7-0.7c-0.1,0-0.4,0-0.7,0l0-2.7l5.4,0c0.7,0,1.3-0.6,1.3-1.3l0-7.4c0-0.7-0.6-1.3-1.3-1.3l-13.4,0
		C341.1,124.8,340.5,125.4,340.5,126.1z M341.8,126.1l13.4,0l0,7.4l-13.4,0L341.8,126.1z"/>
</g>
<g>
	<path class="st1" d="M266.8,199c0,1.3,1,2.3,2.3,2.3c1.3,0,2.3-1,2.3-2.3c0-1.3-1-2.3-2.3-2.3C267.8,196.7,266.8,197.7,266.8,199z"
		/>
	<path class="st1" d="M260.6,194.3l0,9.3c0,0.9,0.7,1.5,1.5,1.6l15.5,0c0.9,0,1.5-0.7,1.5-1.5l-1.5,0c-0.9,0-1.5-0.7-1.5-1.5l0-6.2
		c0-0.9,0.7-1.5,1.5-1.5l1.5,0l0,0c0-0.9-0.7-1.5-1.5-1.6l-1.5,0c0-0.9-0.7-1.5-1.5-1.5l-1.5,0c-0.9,0-1.5,0.7-1.5,1.5l-9.3,0
		C261.3,192.8,260.6,193.5,260.6,194.3z M265.2,199c0-2.1,1.7-3.9,3.9-3.9c2.1,0,3.9,1.7,3.9,3.9c0,2.1-1.7,3.9-3.9,3.9
		C266.9,202.9,265.2,201.1,265.2,199z M262.1,196.3c0-0.6,0.5-1.2,1.2-1.2c0.6,0,1.2,0.5,1.2,1.2c0,0.6-0.5,1.2-1.2,1.2
		C262.6,197.4,262.1,196.9,262.1,196.3z"/>
	<path class="st7" d="M263.3,195.1c0.6,0,1.2,0.5,1.2,1.2c0,0.6-0.5,1.2-1.2,1.2c-0.6,0-1.2-0.5-1.2-1.2
		C262.1,195.6,262.6,195.1,263.3,195.1z"/>
	<rect x="279.2" y="194.4" class="st1" width="0" height="9.3"/>
	<path class="st7" d="M276.1,202.1l0-6.2c0-0.9,0.7-1.5,1.5-1.5l1.5,0l0,9.3l-1.5,0C276.7,203.6,276.1,202.9,276.1,202.1z"/>
</g>
<g>
	<path class="st1" d="M384.2,168.8v-3.3c-1-0.3-1.8-0.7-2.3-1.3c-0.5-0.6-0.7-1.3-0.7-2.2c0-0.9,0.3-1.6,0.8-2.2
		c0.5-0.6,1.3-0.9,2.2-1v-0.9h1.2v0.9c0.8,0.1,1.5,0.4,2,0.9c0.5,0.5,0.8,1.1,1,1.9l-2,0.3c-0.1-0.6-0.4-1.1-1-1.3v3.1
		c1.3,0.3,2.1,0.8,2.6,1.3c0.5,0.5,0.7,1.3,0.7,2.1c0,1-0.3,1.8-0.9,2.4c-0.6,0.7-1.4,1.1-2.4,1.2v1.1h-1.2v-1.1
		c-0.9-0.1-1.7-0.5-2.2-1c-0.6-0.6-0.9-1.4-1.1-2.4l2.1-0.2c0.1,0.4,0.2,0.8,0.5,1.1C383.6,168.4,383.9,168.6,384.2,168.8z
		 M384.2,160.4c-0.3,0.1-0.6,0.3-0.7,0.5c-0.2,0.3-0.3,0.5-0.3,0.8c0,0.3,0.1,0.5,0.3,0.8c0.2,0.2,0.4,0.4,0.8,0.6V160.4z
		 M385.4,168.9c0.4-0.1,0.7-0.3,1-0.6c0.2-0.3,0.4-0.6,0.4-1c0-0.4-0.1-0.7-0.3-0.9c-0.2-0.3-0.6-0.5-1-0.6V168.9z"/>
</g>
<g>
	<path class="st1" d="M345.3,84.4h-7.6v14.4h11.7V88.5L345.3,84.4z M347.6,97h-8.1V86.2h5l0.4,0.4v2.3h2.3l0.4,0.4V97z"/>
	<rect x="340.4" y="91.6" class="st1" width="6.3" height="0.9"/>
	<rect x="340.4" y="88.9" class="st1" width="3.6" height="0.9"/>
	<rect x="340.4" y="94.3" class="st1" width="6.3" height="0.9"/>
</g>
<g>
	<path class="st1" d="M244.4,125.4v-2.3c0-0.6-0.5-1-1-1h-7.9c-0.6,0-1,0.5-1,1v4.8c0,0.6,0.5,1,1,1h1.1l-0.5,3l3.1-3h0.8v-2.5
		c0-0.6,0.5-1,1-1H244.4z"/>
	<path class="st1" d="M249.4,125.9h-4.6h-3.3c-0.6,0-1,0.5-1,1v2.5v2.3c0,0.6,0.5,1,1,1h4.6l3,2.9l-0.5-2.9h0.7c0.6,0,1-0.5,1-1
		v-4.8C250.5,126.3,250,125.9,249.4,125.9z"/>
</g>
<g>
	<g>
		<g>
			<g>
				
					<rect x="387.3" y="55.6" transform="matrix(2.816678e-03 -1 1 2.816678e-03 330.7496 445.4208)" class="st1" width="2.8" height="2.5"/>
			</g>
			<g>
				
					<rect x="390.8" y="54.7" transform="matrix(2.816667e-03 -1 1 2.816667e-03 336.0102 448.8978)" class="st1" width="4.7" height="2.5"/>
			</g>
			<g>
				
					<rect x="393.7" y="53.2" transform="matrix(2.856327e-03 -1 1 2.856327e-03 341.818 451.8143)" class="st1" width="7.6" height="2.5"/>
			</g>
			<g>
				
					<rect x="396.9" y="52.1" transform="matrix(2.808294e-03 -1 1 2.808294e-03 347.3127 455.0808)" class="st1" width="9.9" height="2.5"/>
			</g>
		</g>
	</g>
	<g>
		<g>
			<g>
				<g>
					<g>
						<path class="st1" d="M405.1,59.7h-0.3v-0.3h0v-0.8h0.3V59.7z M403.7,59.7h-1.1v-0.3h1.1V59.7z M401.4,59.7h-1.1v-0.3h1.1V59.7
							z M399.2,59.7h-1.1v-0.3h1.1V59.7z M397,59.7h-1.1v-0.3h1.1V59.7z M394.7,59.7h-1.1v-0.3h1.1V59.7z M392.5,59.7h-1.1v-0.3h1.1
							V59.7z M390.2,59.7h-1.1v-0.3h1.1V59.7z M388,59.7h-1.1v-0.3h1.1V59.7z M405.1,57.5h-0.3v-1.1h0.3V57.5z M405.1,55.3h-0.3
							v-1.1h0.3V55.3z M405.1,53h-0.3v-1.1h0.3V53z M405.1,50.8h-0.3v-1.1h0.3V50.8z M405.1,48.6h-0.3v-1.1h0.3V48.6z"/>
					</g>
				</g>
				<g>
					<path class="st1" d="M386.9,59.6c0,0.3-0.2,0.5-0.5,0.5c-0.3,0-0.5-0.2-0.5-0.5c0-0.3,0.2-0.5,0.5-0.5
						C386.7,59.1,386.9,59.3,386.9,59.6z"/>
				</g>
			</g>
		</g>
		<path class="st1" d="M405.4,47.7c0,0.3-0.2,0.5-0.5,0.5c-0.3,0-0.5-0.2-0.5-0.5c0-0.3,0.2-0.5,0.5-0.5
			C405.2,47.2,405.4,47.4,405.4,47.7z"/>
	</g>
</g>
<g>
	<g>
		<g>
			<g>
				
					<rect x="223.2" y="370.7" transform="matrix(2.821482e-03 -1 1 2.821482e-03 -148.048 594.5886)" class="st1" width="1.8" height="1.6"/>
			</g>
			<g>
				
					<rect x="225.4" y="370.2" transform="matrix(2.821472e-03 -1 1 2.821472e-03 -144.7194 596.7886)" class="st1" width="3" height="1.6"/>
			</g>
			<g>
				
					<rect x="227.2" y="369.2" transform="matrix(2.884001e-03 -1 1 2.884001e-03 -141.0488 598.6122)" class="st1" width="4.8" height="1.6"/>
			</g>
			<g>
				
					<rect x="229.3" y="368.5" transform="matrix(2.803982e-03 -1 1 2.803982e-03 -137.5659 600.7072)" class="st1" width="6.2" height="1.6"/>
			</g>
		</g>
	</g>
	<g>
		<g>
			<g>
				<g>
					<g>
						<path class="st1" d="M234.5,373.3h-0.2v-0.2h0v-0.5h0.2V373.3z M233.6,373.3h-0.7v-0.2h0.7V373.3z M232.2,373.3h-0.7v-0.2h0.7
							V373.3z M230.7,373.3H230v-0.2h0.7V373.3z M229.3,373.3h-0.7v-0.2h0.7V373.3z M227.9,373.3h-0.7v-0.2h0.7V373.3z M226.5,373.3
							h-0.7v-0.2h0.7V373.3z M225.1,373.3h-0.7v-0.2h0.7V373.3z M223.7,373.3H223v-0.2h0.7V373.3z M234.5,371.9h-0.2v-0.7h0.2V371.9
							z M234.5,370.5h-0.2v-0.7h0.2V370.5z M234.5,369.1h-0.2v-0.7h0.2V369.1z M234.5,367.7h-0.2V367h0.2V367.7z M234.5,366.3h-0.2
							v-0.7h0.2V366.3z"/>
					</g>
				</g>
				<g>
					<path class="st1" d="M223,373.3c0,0.2-0.1,0.3-0.3,0.3c-0.2,0-0.3-0.1-0.3-0.3c0-0.2,0.1-0.3,0.3-0.3
						C222.8,373,223,373.1,223,373.3z"/>
				</g>
			</g>
		</g>
		<circle class="st1" cx="234.4" cy="365.7" r="0.3"/>
	</g>
</g>
<g>
	<g>
		<path class="st1" d="M448.3,112.2c0.1,0,0.2,0,0.2-0.1c0.1-0.1,0-0.3-0.1-0.3l-2.1-1.2c-0.1-0.1-0.3,0-0.3,0.1
			c-0.1,0.1,0,0.3,0.1,0.3l2.1,1.2C448.3,112.2,448.3,112.2,448.3,112.2z"/>
		<path class="st1" d="M445.6,126.1C445.6,126.1,445.6,126.1,445.6,126.1l2.4-1c0.1-0.1,0.2-0.2,0.1-0.3c-0.1-0.1-0.2-0.2-0.3-0.1
			l-2.3,0.9c-0.1,0.1-0.2,0.2-0.1,0.3C445.4,126.1,445.5,126.1,445.6,126.1z"/>
		<path class="st1" d="M444.4,115.8C444.4,115.8,444.4,115.8,444.4,115.8l2.7,0.6c0.1,0,0.2,0,0.3-0.2c0-0.1,0-0.2-0.2-0.3
			c0,0,0,0,0,0l-2.7-0.6c-0.1,0-0.2,0-0.3,0.2C444.2,115.6,444.3,115.7,444.4,115.8z"/>
		<path class="st1" d="M444.4,121.4C444.4,121.4,444.4,121.4,444.4,121.4l2.8-0.4c0.1,0,0.2-0.1,0.2-0.3c0-0.1-0.1-0.2-0.3-0.2
			c0,0,0,0,0,0l-2.8,0.4c-0.1,0-0.2,0.1-0.2,0.3C444.2,121.4,444.3,121.4,444.4,121.4z"/>
	</g>
	<path class="st1" d="M449.2,117.1h0.6c0,0.5,0,0.9,0,1.4c0,0.5,0,1,0,1.4h-0.6V117.1z"/>
	<path class="st1" d="M449.5,118.5c0,0.8-0.1,1.4-0.2,1.4c-0.1,0-0.2-0.6-0.2-1.4c0-0.8,0.1-1.4,0.2-1.4
		C449.4,117.1,449.5,117.7,449.5,118.5z"/>
	<path class="st1" d="M449.4,118.5c0,0.8-0.1,1.4-0.2,1.4c-0.1,0-0.2-0.6-0.2-1.4c0-0.8,0.1-1.4,0.2-1.4
		C449.3,117.1,449.4,117.8,449.4,118.5z"/>
	<path class="st1" d="M464.7,115.2h-5.4c-0.1,0-0.3,0.1-0.3,0.3v0.2c-6.1-0.6-10-4.6-10-4.6v6.9v0.4v7.4c0,0,3.9-4.5,10-5.1v0.2
		c0,0.1,0.1,0.3,0.3,0.3h1v0.2v0l0.2,0.1l-0.4,0.9l0.2,0.8l-0.6,1.8l-0.6,0.9c0,0.2,0.1,0.4,0.3,0.4l2.1,0.9c0.1,0,0.1,0,0.2,0l0,0
		c0,0,0.1,0,0.1-0.1v0l0,0c0.1-0.1,0.1-0.1,0.2-0.2l0.6-1.2l0.8-3l0.1,0.1c0.1,0,0.1,0,0.2,0c0.2,0,0.4-0.2,0.4-0.4l0.3-1.2h0.4
		c1.4,0,2.6-1.2,2.6-2.6v-0.9C467.4,116.4,466.2,115.2,464.7,115.2z"/>
</g>
<g>
	<path class="st1" d="M465,265.7c-3.8,0-6.8,3-6.8,6.8c0,3.8,3,6.8,6.8,6.8c3.8,0,6.8-3,6.8-6.8C471.8,268.8,468.7,265.7,465,265.7z
		 M465,278.3c-3.2,0-5.8-2.6-5.8-5.8c0-3.2,2.6-5.8,5.8-5.8c3.2,0,5.8,2.6,5.8,5.8C470.7,275.7,468.2,278.3,465,278.3z"/>
	<path class="st1" d="M465.5,271.9c-0.8-0.3-1.2-0.6-1.2-1c0-0.3,0.2-0.7,0.9-0.7c0.7,0,1.1,0.2,1.3,0.3l0.3-0.9
		c-0.3-0.2-0.7-0.3-1.3-0.3v-0.9h-0.8v0.9c-1,0.2-1.6,0.8-1.6,1.7c0,0.9,0.7,1.4,1.7,1.7c0.7,0.3,1.1,0.5,1.1,1c0,0.5-0.4,0.8-1,0.8
		c-0.6,0-1.1-0.2-1.5-0.4l-0.3,0.9c0.4,0.2,1,0.4,1.6,0.4v0.9h0.8v-1c1.1-0.2,1.6-0.9,1.6-1.7C467.1,272.9,466.6,272.3,465.5,271.9z
		"/>
</g>
<g>
	<path class="st1" d="M443.9,346.5c-3.8,0-6.8,3-6.8,6.8c0,3.8,3,6.8,6.8,6.8c3.8,0,6.8-3,6.8-6.8
		C450.7,349.5,447.6,346.5,443.9,346.5z M443.9,359c-3.2,0-5.8-2.6-5.8-5.8c0-3.2,2.6-5.8,5.8-5.8c3.2,0,5.8,2.6,5.8,5.8
		C449.7,356.5,447.1,359,443.9,359z"/>
	<path class="st1" d="M444.4,352.7c-0.8-0.3-1.2-0.6-1.2-1c0-0.3,0.2-0.7,0.9-0.7c0.7,0,1.1,0.2,1.3,0.3l0.3-0.9
		c-0.3-0.2-0.7-0.3-1.3-0.3v-0.9h-0.8v0.9c-1,0.2-1.6,0.8-1.6,1.7c0,0.9,0.7,1.4,1.7,1.7c0.7,0.3,1.1,0.5,1.1,1c0,0.5-0.4,0.8-1,0.8
		c-0.6,0-1.1-0.2-1.5-0.4l-0.3,0.9c0.4,0.2,1,0.4,1.6,0.4v0.9h0.8v-1c1.1-0.2,1.6-0.9,1.6-1.7C446,353.6,445.5,353.1,444.4,352.7z"
		/>
</g>
<g>
	<path class="st1" d="M447.5,83.1c0,0-0.1,0-0.2,0l-0.3,0l-1,0l0-0.2l1.1,0l0.3,0c0.4-0.1,0.6-0.3,0.6-0.7c0-0.4-0.2-0.7-0.5-0.7
		c0,0-0.1,0-0.2,0l-0.3,0l-3.4,0c0,0-0.1,0-0.1,0l-0.2,0l0-2.2c0-0.1,0-0.1,0-0.2c0-0.9-0.2-1.3-0.4-1.4c-0.2-0.1-0.6,0-0.7,0.2
		c0,0,0,0,0,0.1l-0.8,3.2c0,0.1-0.2,0.3-0.3,0.6l-1.2,0.5l-1.7,0v4.9l1.6,0l2.2,0.4l2.3-0.1c0,0,0,0,0,0l1.7,0l0.3,0
		c0.4,0,0.6-0.3,0.7-0.7c0-0.4-0.2-0.7-0.5-0.7c0,0-0.1,0-0.2,0l-0.3,0l-0.1,0l0-0.1l0.8,0l0.3,0c0.4,0,0.6-0.3,0.7-0.7
		c0-0.4-0.2-0.7-0.5-0.7c0,0-0.1,0-0.2,0l-0.3,0l-0.8,0l0-0.1l1,0l0.3,0c0.4,0,0.6-0.3,0.7-0.7C448,83.5,447.8,83.2,447.5,83.1z"/>
	<polygon class="st1" points="430.8,88 430.8,81.4 437.8,81.4 437.8,88 	"/>
</g>
<g>
	<path class="st1" d="M508.1,235.8c0,0-0.1,0-0.2,0l-0.3,0l-1,0l0-0.2l1.1,0l0.3,0c0.4-0.1,0.6-0.3,0.6-0.7c0-0.4-0.2-0.7-0.5-0.7
		c0,0-0.1,0-0.2,0l-0.3,0l-3.4,0c0,0-0.1,0-0.1,0l-0.2,0l0-2.2c0-0.1,0-0.1,0-0.2c0-0.9-0.2-1.3-0.4-1.4c-0.2-0.1-0.6,0-0.7,0.2
		c0,0,0,0,0,0.1l-0.8,3.2c0,0.1-0.2,0.3-0.3,0.6l-1.2,0.5l-1.7,0v4.9l1.6,0l2.2,0.4l2.3-0.1c0,0,0,0,0,0l1.7,0l0.3,0
		c0.4,0,0.6-0.3,0.7-0.7c0-0.4-0.2-0.7-0.5-0.7c0,0-0.1,0-0.2,0l-0.3,0l-0.1,0l0-0.1l0.8,0l0.3,0c0.4,0,0.6-0.3,0.7-0.7
		c0-0.4-0.2-0.7-0.5-0.7c0,0-0.1,0-0.2,0l-0.3,0l-0.8,0l0-0.1l1,0l0.3,0c0.4,0,0.6-0.3,0.7-0.7C508.6,236.2,508.5,235.9,508.1,235.8
		z"/>
	<polygon class="st1" points="491.4,240.7 491.4,234.1 498.5,234.1 498.5,240.7 	"/>
</g>
<g>
	<path class="st1" d="M432.6,360.4c0,0-0.1,0-0.2,0l-0.3,0l-1,0l0-0.2l1.1,0l0.3,0c0.4-0.1,0.6-0.3,0.6-0.7c0-0.4-0.2-0.7-0.5-0.7
		c0,0-0.1,0-0.2,0l-0.3,0l-3.4,0c0,0-0.1,0-0.1,0l-0.2,0l0-2.2c0-0.1,0-0.1,0-0.2c0-0.9-0.2-1.3-0.4-1.4c-0.2-0.1-0.6,0-0.7,0.2
		c0,0,0,0,0,0.1l-0.8,3.2c0,0.1-0.2,0.3-0.3,0.6l-1.2,0.5l-1.7,0v4.9l1.6,0l2.2,0.4l2.3-0.1c0,0,0,0,0,0l1.7,0l0.3,0
		c0.4,0,0.6-0.3,0.7-0.7c0-0.4-0.2-0.7-0.5-0.7c0,0-0.1,0-0.2,0l-0.3,0l-0.1,0l0-0.1l0.8,0l0.3,0c0.4,0,0.6-0.3,0.7-0.7
		c0-0.4-0.2-0.7-0.5-0.7c0,0-0.1,0-0.2,0l-0.3,0l-0.8,0l0-0.1l1,0l0.3,0c0.4,0,0.6-0.3,0.7-0.7C433.1,360.7,432.9,360.4,432.6,360.4
		z"/>
	<polygon class="st1" points="415.9,365.2 415.9,358.6 422.9,358.6 422.9,365.2 	"/>
</g>
<g>
	<g>
		<g>
			<g>
				<path class="st1" d="M150.3,217.6l-6-6c-0.2-0.2-0.5-0.2-0.6,0l-0.1,0.1l-0.7-0.7c2.3-2.8,2.2-6.9-0.4-9.5
					c-2.8-2.8-7.2-2.8-10,0c-2.8,2.8-2.8,7.2,0,10c2.6,2.6,6.7,2.7,9.5,0.4l0.7,0.7l-0.1,0.1c-0.2,0.2-0.2,0.5,0,0.6l6,6
					c0.2,0.2,0.5,0.2,0.6,0l1.1-1.1C150.5,218,150.5,217.8,150.3,217.6z M133,210.9c-2.5-2.5-2.5-6.5,0-8.9c2.5-2.5,6.5-2.5,8.9,0
					c2.5,2.5,2.5,6.5,0,8.9C139.4,213.3,135.5,213.3,133,210.9z"/>
			</g>
		</g>
		<g>
			<path class="st1" d="M133.8,202.9c2.1-2.1,5.4-2.3,7.7-0.5l0,0c0,0,0,0,0,0c-2.3-2.3-6-2.3-8.3,0c-2.3,2.3-2.3,6,0,8.3
				c0,0,0,0,0,0l0,0C131.5,208.4,131.7,205.1,133.8,202.9z"/>
		</g>
	</g>
</g>
<g>
	<g>
		<path class="st4" d="M298.7,193.3c-5.4,0-9.8-4.4-9.8-9.8c0-5.4,4.4-9.8,9.8-9.8c5.4,0,9.8,4.4,9.8,9.8
			C308.6,188.9,304.1,193.3,298.7,193.3L298.7,193.3z M298.7,175.4c-4.5,0-8.1,3.6-8.1,8.1c0,4.5,3.6,8.1,8.1,8.1
			c4.5,0,8.1-3.6,8.1-8.1C306.8,179,303.2,175.4,298.7,175.4L298.7,175.4z"/>
		<path class="st4" d="M305.1,182.7h-5.4v-5.4c0-0.3-0.3-0.6-0.6-0.6h-0.6c-0.3,0-0.6,0.3-0.6,0.6v6v0.6c0,0.3,0.3,0.6,0.6,0.6h0.6
			h6c0.3,0,0.6-0.3,0.6-0.6v-0.6C305.7,182.9,305.4,182.7,305.1,182.7z"/>
	</g>
</g>
<g>
	<g>
		<path class="st8" d="M400.8,205.3h-0.3V205h0v-0.8h0.3V205.3z M399.4,205.3h-1.1V205h1.1V205.3z M397.2,205.3h-1.1V205h1.1V205.3z
			 M395,205.3H394V205h1.1V205.3z M392.9,205.3h-1.1V205h1.1V205.3z M390.7,205.3h-1.1V205h1.1V205.3z M388.5,205.3h-1.1V205h1.1
			V205.3z M386.4,205.3h-1.1V205h1.1V205.3z M384.2,205.3h-1.1V205h1.1V205.3z M400.8,203.1h-0.3V202h0.3V203.1z M400.8,200.9h-0.3
			v-1.1h0.3V200.9z M400.8,198.8h-0.3v-1.1h0.3V198.8z M400.8,196.6h-0.3v-1.1h0.3V196.6z M400.8,194.4h-0.3v-1.1h0.3V194.4z"/>
		<g>
			<rect x="383.7" y="201.1" class="st8" width="2.4" height="2.8"/>
		</g>
		<g>
			<rect x="387.9" y="199.3" class="st8" width="2.4" height="4.5"/>
		</g>
		<g>
			<rect x="392.1" y="196.5" class="st8" width="2.4" height="7.4"/>
		</g>
		<g>
			<rect x="396.4" y="194.3" class="st8" width="2.4" height="9.6"/>
		</g>
		<path class="st8" d="M383.1,205.1c0,0.3-0.2,0.5-0.5,0.5c-0.3,0-0.5-0.2-0.5-0.5c0-0.3,0.2-0.5,0.5-0.5
			C382.9,204.7,383.1,204.9,383.1,205.1z"/>
		<path class="st8" d="M401.1,193.5c0,0.3-0.2,0.5-0.5,0.5c-0.3,0-0.5-0.2-0.5-0.5c0-0.3,0.2-0.5,0.5-0.5
			C400.9,193.1,401.1,193.3,401.1,193.5z"/>
	</g>
</g>
<g>
	<g>
		<g>
			<path class="st3" d="M468,224.8l-0.4-0.2l-0.3,0.4l-0.2-0.4l-0.1,0.4l-0.3-0.5l-0.3,0.5l-0.3-0.5l-0.3,0.4l-0.2-0.1
				c0.9,1.1,0.8,4.1,0.8,4.2h0.5C466.9,229.1,466.8,225.7,468,224.8z"/>
		</g>
		<g>
			<g>
				<path class="st3" d="M466.7,218.5L466.7,218.5C466.7,218.5,466.7,218.5,466.7,218.5C466.7,218.5,466.7,218.5,466.7,218.5
					L466.7,218.5c-3.8,0-4.9,3.3-4.9,4.5c0,1.2,0.5,2.4,1.2,3.1c0.6,0.7,1.4,1.9,1.4,2.9c0,0.1,0,0.2,0.1,0.3h1.9c0,0,0,0,0,0
					c0,0,0.1-3.6-1-4.4c0,0,0-0.1,0-0.1c0,0,0,0,0.1,0c0,0,0,0,0.1,0l0.4,0.2l0.4-0.5l0.2,0.4l0.3-0.5l0.3,0.4l0.2-0.5l0.2,0.4
					l0.2-0.3l0.7,0.3c0,0,0,0,0,0c0,0,0,0,0,0c0,0,0,0,0,0c0,0,0,0,0,0c0,0,0,0,0,0c0,0,0,0,0,0c0,0,0,0,0,0c0,0,0,0,0,0
					c-1.3,0.6-1.2,4.4-1.1,4.4c0,0,0,0,0,0h1.9c0-0.1,0.1-0.2,0.1-0.3c0-1,0.7-2.2,1.4-2.9c0.6-0.7,1.2-1.9,1.2-3.1
					C471.5,221.8,470.4,218.5,466.7,218.5z M467.4,219.5c-0.2-0.1-0.4-0.1-0.7-0.1c0-0.1,0.1-0.1,0.1-0.2c0.3,0,0.5,0.1,0.7,0.1
					L467.4,219.5z M470.2,225.3c0.3-0.6,0.5-1.3,0.5-2c0-0.9-0.7-3.2-3.1-3.7c0-0.1,0.1-0.1,0.2-0.2c2.4,0.4,3.2,2.7,3.2,3.5
					C471,223.9,470.7,224.7,470.2,225.3z"/>
			</g>
		</g>
		<g>
			<path class="st3" d="M460.1,222.5C460.1,222.5,460.1,222.5,460.1,222.5l-2.2-0.7c-0.1,0-0.2-0.2-0.1-0.3c0-0.1,0.2-0.2,0.3-0.1
				l2.1,0.7c0.1,0,0.2,0.2,0.1,0.3C460.3,222.4,460.2,222.5,460.1,222.5z"/>
			<path class="st3" d="M474.4,227.3C474.4,227.3,474.4,227.3,474.4,227.3l-2.2-0.7c-0.1,0-0.2-0.2-0.1-0.3c0-0.1,0.2-0.2,0.3-0.1
				l2.1,0.7c0.1,0,0.2,0.2,0.1,0.3C474.6,227.2,474.5,227.3,474.4,227.3z"/>
			<path class="st3" d="M472.6,222.6c-0.1,0-0.2-0.1-0.2-0.1c0-0.1,0-0.2,0.1-0.3l2.1-0.8c0.1,0,0.2,0,0.3,0.1c0,0.1,0,0.2-0.1,0.3
				L472.6,222.6C472.7,222.6,472.6,222.6,472.6,222.6z"/>
			<path class="st3" d="M466.5,217c-0.1,0-0.2-0.1-0.2-0.2v-2.2c0-0.1,0.1-0.2,0.2-0.2c0.1,0,0.2,0.1,0.2,0.2v2.2
				C466.7,216.9,466.6,217,466.5,217z"/>
			<path class="st3" d="M471.3,219.2c-0.1,0-0.1,0-0.1-0.1c-0.1-0.1-0.1-0.2,0-0.3l1.6-1.6c0.1-0.1,0.2-0.1,0.3,0
				c0.1,0.1,0.1,0.2,0,0.3l-1.6,1.6C471.4,219.1,471.3,219.2,471.3,219.2z"/>
			<path class="st3" d="M462.4,218.4c-0.1,0-0.1,0-0.2-0.1l-1.5-1.7c-0.1-0.1-0.1-0.2,0-0.3c0.1-0.1,0.2-0.1,0.3,0l1.5,1.7
				c0.1,0.1,0.1,0.2,0,0.3C462.5,218.4,462.4,218.4,462.4,218.4z"/>
			<path class="st3" d="M458.9,228c-0.1,0-0.2-0.1-0.2-0.1c0-0.1,0-0.2,0.1-0.3l2.1-0.8c0.1,0,0.2,0,0.3,0.1c0,0.1,0,0.2-0.1,0.3
				L458.9,228C458.9,228,458.9,228,458.9,228z"/>
		</g>
		<g>
			<path class="st3" d="M466.7,232.6L466.7,232.6C466.7,232.6,466.7,232.6,466.7,232.6C466.7,232.6,466.7,232.6,466.7,232.6
				L466.7,232.6c0.6,0,1.3-0.5,1.8-0.8h-3.6C465.4,232.1,466.1,232.5,466.7,232.6z"/>
		</g>
		<path class="st3" d="M464.3,229.8c0,0.1,0.1,0.1,0.1,0.1v-0.2C464.4,229.7,464.3,229.7,464.3,229.8z"/>
		<path class="st3" d="M468.9,229.9c0.1,0,0.1-0.1,0.1-0.1c0-0.1-0.1-0.1-0.1-0.1h0L468.9,229.9L468.9,229.9z"/>
		<polygon class="st3" points="468.9,229.9 468.9,229.7 464.5,229.7 464.4,229.7 464.4,229.9 464.5,229.9 		"/>
		<path class="st3" d="M468.9,230.4c0.1,0,0.1-0.1,0.1-0.1c0-0.1-0.1-0.1-0.1-0.1h0L468.9,230.4L468.9,230.4z"/>
		<path class="st3" d="M464.3,230.3c0,0.1,0.1,0.1,0.1,0.1v-0.2C464.4,230.2,464.3,230.2,464.3,230.3z"/>
		<polygon class="st3" points="468.9,230.4 468.9,230.2 464.5,230.2 464.4,230.2 464.4,230.4 464.5,230.4 		"/>
		<path class="st3" d="M468.9,230.9c0.1,0,0.1-0.1,0.1-0.1c0-0.1-0.1-0.1-0.1-0.1h0L468.9,230.9L468.9,230.9z"/>
		<path class="st3" d="M464.3,230.8c0,0.1,0.1,0.1,0.1,0.1v-0.2C464.4,230.7,464.3,230.7,464.3,230.8z"/>
		<polygon class="st3" points="464.4,230.7 464.4,230.9 464.5,230.9 468.9,230.9 468.9,230.7 464.5,230.7 		"/>
		<path class="st3" d="M464.3,231.3c0,0.1,0.1,0.1,0.1,0.1v-0.2C464.4,231.2,464.3,231.2,464.3,231.3z"/>
		<path class="st3" d="M468.9,231.4c0.1,0,0.1-0.1,0.1-0.1c0-0.1-0.1-0.1-0.1-0.1h0L468.9,231.4L468.9,231.4z"/>
		<polygon class="st3" points="464.4,231.2 464.4,231.4 464.5,231.4 468.9,231.4 468.9,231.2 464.5,231.2 		"/>
	</g>
</g>
<path class="st9" d="M164.9,180.9h-6.3l3-3c0.2-0.2,0.2-0.6,0-0.9l-0.2-0.2c-0.2-0.2-0.6-0.2-0.9,0l-4.1,4.1h-7.8
	c-0.3,0-0.5,0.2-0.5,0.5v0.5c0,0.3,0.2,0.5,0.5,0.5h0.9v7.4c0,0.3,0.2,0.5,0.5,0.5h13.4c0.3,0,0.5-0.2,0.5-0.5v-7.4h0.9
	c0.3,0,0.5-0.2,0.5-0.5v-0.5C165.4,181.1,165.2,180.9,164.9,180.9z M152.3,188.8h-0.7c-0.3,0-0.5-0.2-0.5-0.5v-6h1.2V188.8z
	 M154.4,188.8h-1v-6.5h1V188.8z M156.4,188.8h-1v-6.5h1V188.8z M158.4,188.8h-1v-6.5h1V188.8z M160.5,188.8h-1v-6.5h1V188.8z
	 M162.5,188.4c0,0.3-0.2,0.5-0.5,0.5h-0.5v-6.5h1V188.4z"/>
<g>
	<g>
		<g>
			<path class="st10" d="M418.9,142.8v-2.5c0-0.6-0.5-1.1-1.1-1.1h-8.4c-0.6,0-1.1,0.5-1.1,1.1v5.1c0,0.6,0.5,1.1,1.1,1.1h1.2
				l-0.5,3.2l3.3-3.2h0.9v-2.7c0-0.6,0.5-1.1,1.1-1.1H418.9z"/>
		</g>
		<g>
			<path class="st10" d="M424.3,143.3h-4.9h-3.5c-0.6,0-1.1,0.5-1.1,1.1v2.7v2.5c0,0.6,0.5,1.1,1.1,1.1h4.9l3.2,3.1l-0.5-3.1h0.8
				c0.6,0,1.1-0.5,1.1-1.1v-5.1C425.4,143.7,424.9,143.3,424.3,143.3z"/>
		</g>
	</g>
</g>
<g>
	<path class="st1" d="M362.2,190.6c-2.7,0.9-4.6,3.4-4.6,6.4c0,3.7,3,6.7,6.7,6.7c2.2,0,4.2-1.1,5.4-2.8l-6-3.4L362.2,190.6z"/>
	<path class="st1" d="M368.2,187.8c-0.8-0.3-1.7-0.5-2.6-0.5c-0.8,0-1.6,0.1-2.3,0.4l1.7,7.6L368.2,187.8z"/>
	<path class="st1" d="M369.4,189.6l-3.4,7.6l6.7,3.8c0.9-1.2,1.5-2.8,1.5-4.4C374.1,193.4,372.1,190.7,369.4,189.6z"/>
</g>
<g>
	<path class="st1" d="M209.6,375.4c-2.7,0.9-4.6,3.4-4.6,6.4c0,3.7,3,6.7,6.7,6.7c2.2,0,4.2-1.1,5.4-2.8l-6-3.4L209.6,375.4z"/>
	<path class="st1" d="M215.7,372.6c-0.8-0.3-1.7-0.5-2.6-0.5c-0.8,0-1.6,0.1-2.3,0.4l1.7,7.6L215.7,372.6z"/>
	<path class="st1" d="M216.8,374.4l-3.4,7.6l6.7,3.8c0.9-1.2,1.5-2.8,1.5-4.4C221.5,378.2,219.6,375.5,216.8,374.4z"/>
</g>
<g>
	<g>
		<g>
			<path class="st5" d="M364.6,103.6c0.1,0,0.1,0,0.2-0.1c0.1-0.1,0-0.2-0.1-0.3l-1.7-1c-0.1-0.1-0.2,0-0.3,0.1
				c-0.1,0.1,0,0.2,0.1,0.3L364.6,103.6C364.5,103.6,364.6,103.6,364.6,103.6z"/>
			<path class="st5" d="M362.4,114.6C362.4,114.6,362.5,114.6,362.4,114.6l1.9-0.8c0.1,0,0.1-0.1,0.1-0.2c0-0.1-0.2-0.1-0.2-0.1
				l-1.8,0.7c-0.1,0-0.1,0.1-0.1,0.2C362.3,114.6,362.3,114.6,362.4,114.6z"/>
			<path class="st5" d="M361.5,106.4C361.5,106.4,361.5,106.4,361.5,106.4l2.2,0.5c0.1,0,0.2,0,0.2-0.1c0-0.1,0-0.2-0.1-0.2
				c0,0,0,0,0,0l-2.2-0.5c-0.1,0-0.2,0-0.2,0.1C361.3,106.3,361.4,106.4,361.5,106.4z"/>
			<path class="st5" d="M361.5,110.9C361.5,110.9,361.5,110.9,361.5,110.9l2.2-0.3c0.1,0,0.2-0.1,0.2-0.2c0-0.1-0.1-0.2-0.2-0.2
				c0,0,0,0,0,0l-2.2,0.3c-0.1,0-0.2,0.1-0.2,0.2C361.3,110.9,361.4,110.9,361.5,110.9z"/>
		</g>
		<g>
			<path class="st5" d="M365.3,107.5h0.5c0,0.4,0,0.7,0,1.1c0,0.4,0,0.8,0,1.1h-0.5V107.5z"/>
		</g>
		<g>
			<path class="st5" d="M365.5,108.6c0,0.6-0.1,1.1-0.2,1.1s-0.2-0.5-0.2-1.1c0-0.6,0.1-1.1,0.2-1.1S365.5,108,365.5,108.6z"/>
		</g>
		<g>
			<path class="st5" d="M365.4,108.6c0,0.6-0.1,1.1-0.1,1.1c-0.1,0-0.1-0.5-0.1-1.1c0-0.6,0.1-1.1,0.1-1.1
				C365.4,107.5,365.4,108,365.4,108.6z"/>
		</g>
		<path class="st5" d="M377.6,106h-4.3c-0.1,0-0.2,0.1-0.2,0.2v0.2c-4.9-0.5-7.9-3.6-7.9-3.6v5.5v0.3v5.9c0,0,3.1-3.5,7.9-4v0.2
			c0,0.1,0.1,0.2,0.2,0.2h0.8v0.2v0l0.2,0.1l-0.3,0.7l0.1,0.6l-0.5,1.4l-0.5,0.7c0,0.2,0.1,0.3,0.2,0.3l1.7,0.7c0,0,0.1,0,0.1,0l0,0
			c0,0,0.1,0,0.1,0h0h0c0.1,0,0.1-0.1,0.1-0.2l0.5-1l0.6-2.3l0.1,0c0.1,0,0.1,0,0.2,0c0.2,0,0.3-0.2,0.3-0.3l0.2-0.9h0.3
			c1.1,0,2.1-0.9,2.1-2.1v-0.7C379.7,106.9,378.7,106,377.6,106z"/>
	</g>
</g>
<g>
	<g>
		<g>
			<g>
				<path class="st11" d="M338.5,154.8h-0.7c0-0.2-0.1-0.5-0.3-0.7l0.5-0.5c0.1-0.1,0.1-0.4,0-0.5l-0.3-0.3c-0.1-0.1-0.4-0.1-0.5,0
					l-0.5,0.5c-0.2-0.1-0.4-0.2-0.6-0.3v-0.8c0-0.2-0.2-0.4-0.4-0.4h-0.4c-0.2,0-0.4,0.2-0.4,0.4v0.8c-0.2,0.1-0.4,0.1-0.6,0.2
					l-0.6-0.6c-0.1-0.1-0.4-0.1-0.5,0l-0.3,0.3c-0.1,0.1-0.1,0.4,0,0.5l0.6,0.6c-0.1,0.2-0.2,0.3-0.2,0.5h-1c-0.2,0-0.4,0.2-0.4,0.4
					v0.4c0,0.2,0.2,0.4,0.4,0.4h0.9c0,0.2,0.1,0.4,0.2,0.5l-0.7,0.7c-0.2,0.2-0.2,0.4,0,0.5l0.3,0.3c0.1,0.1,0.4,0.1,0.5,0l0.6-0.6
					c0.2,0.1,0.3,0.2,0.5,0.3v0.9c0,0.2,0.2,0.4,0.4,0.4h0.4c0.2,0,0.4-0.2,0.4-0.4v-0.8c0.2,0,0.4-0.1,0.6-0.2l0.6,0.6
					c0.1,0.1,0.4,0.1,0.5,0l0.3-0.3c0.1-0.1,0.1-0.4,0-0.5l-0.5-0.5c0.1-0.2,0.2-0.4,0.3-0.6h0.8c0.2,0,0.4-0.2,0.4-0.4v-0.4
					C338.9,155,338.7,154.8,338.5,154.8z M335.6,156.8c-0.8,0-1.5-0.7-1.5-1.5c0-0.8,0.7-1.5,1.5-1.5c0.8,0,1.5,0.7,1.5,1.5
					C337.1,156.1,336.5,156.8,335.6,156.8z"/>
			</g>
		</g>
		<g>
			<g>
				<path class="st11" d="M330.1,152.9c0.2-0.4,0.4-0.7,0.6-1.2h1.4c0.4,0,0.7-0.3,0.7-0.7v-0.7c0-0.4-0.3-0.7-0.7-0.7h-1.3
					c-0.1-0.4-0.3-0.8-0.5-1.2l1-1c0.3-0.3,0.3-0.7,0-1l-0.5-0.5c-0.3-0.3-0.7-0.3-1,0l-1,1c-0.3-0.2-0.7-0.4-1.1-0.5v-1.6
					c0-0.4-0.3-0.7-0.7-0.7h-0.7c-0.4,0-0.7,0.3-0.7,0.7v1.6c-0.4,0.1-0.7,0.2-1,0.4l-1.2-1.2c-0.3-0.3-0.7-0.3-1,0l-0.5,0.5
					c-0.3,0.3-0.3,0.7,0,1l1.2,1.2c-0.2,0.3-0.3,0.6-0.4,1h-1.8c-0.4,0-0.7,0.3-0.7,0.7v0.7c0,0.4,0.3,0.7,0.7,0.7h1.7
					c0.1,0.3,0.2,0.7,0.3,1l-1.2,1.2c-0.3,0.3-0.3,0.7,0,1l0.5,0.5c0.3,0.3,0.7,0.3,1,0l1.1-1.1c0.3,0.2,0.6,0.4,1,0.5v1.7
					c0,0.4,0.3,0.7,0.7,0.7h0.7c0.4,0,0.7-0.3,0.7-0.7v-1.5c0.4-0.1,0.8-0.2,1.2-0.4l1.1,1.1c0.3,0.3,0.7,0.3,1,0l0.5-0.5
					c0.3-0.3,0.3-0.7,0-1L330.1,152.9z M326.8,153.3c-1.6,0-2.8-1.3-2.8-2.8c0-1.6,1.3-2.8,2.8-2.8c1.6,0,2.8,1.3,2.8,2.8
					C329.6,152.1,328.3,153.3,326.8,153.3z"/>
			</g>
		</g>
	</g>
</g>
<g>
	<g>
		<g>
			<g>
				<path class="st1" d="M179.6,225.3c0.2-0.4,0.4-0.7,0.6-1.2h1.4c0.4,0,0.7-0.3,0.7-0.7v-0.7c0-0.4-0.3-0.7-0.7-0.7h-1.3
					c-0.1-0.4-0.3-0.8-0.5-1.2l1-1c0.3-0.3,0.3-0.7,0-1l-0.5-0.5c-0.3-0.3-0.7-0.3-1,0l-1,1c-0.3-0.2-0.7-0.4-1.1-0.5v-1.6
					c0-0.4-0.3-0.7-0.7-0.7h-0.7c-0.4,0-0.7,0.3-0.7,0.7v1.6c-0.4,0.1-0.7,0.2-1,0.4l-1.2-1.2c-0.3-0.3-0.7-0.3-1,0l-0.5,0.5
					c-0.3,0.3-0.3,0.7,0,1l1.2,1.2c-0.2,0.3-0.3,0.6-0.4,1h-1.8c-0.4,0-0.7,0.3-0.7,0.7v0.7c0,0.4,0.3,0.7,0.7,0.7h1.7
					c0.1,0.3,0.2,0.7,0.3,1l-1.2,1.2c-0.3,0.3-0.3,0.7,0,1l0.5,0.5c0.3,0.3,0.7,0.3,1,0l1.1-1.1c0.3,0.2,0.6,0.4,1,0.5v1.7
					c0,0.4,0.3,0.7,0.7,0.7h0.7c0.4,0,0.7-0.3,0.7-0.7v-1.5c0.4-0.1,0.8-0.2,1.2-0.4l1.1,1.1c0.3,0.3,0.7,0.3,1,0l0.5-0.5
					c0.3-0.3,0.3-0.7,0-1L179.6,225.3z M176.2,225.7c-1.6,0-2.8-1.3-2.8-2.8s1.3-2.8,2.8-2.8c1.6,0,2.8,1.3,2.8,2.8
					S177.8,225.7,176.2,225.7z"/>
			</g>
		</g>
	</g>
</g>
<g>
	<path class="st1" d="M473.2,177.2c0.2-0.4,0.4-0.7,0.6-1.2h1.4c0.4,0,0.7-0.3,0.7-0.7v-0.7c0-0.4-0.3-0.7-0.7-0.7h-1.3
		c-0.1-0.4-0.3-0.8-0.5-1.2l1-1c0.3-0.3,0.3-0.7,0-1l-0.5-0.5c-0.3-0.3-0.7-0.3-1,0l-1,1c-0.3-0.2-0.7-0.4-1.1-0.5v-1.6
		c0-0.4-0.3-0.7-0.7-0.7h-0.7c-0.4,0-0.7,0.3-0.7,0.7v1.6c-0.4,0.1-0.7,0.2-1,0.4l-1.2-1.2c-0.3-0.3-0.7-0.3-1,0l-0.5,0.5
		c-0.3,0.3-0.3,0.7,0,1l1.2,1.2c-0.2,0.3-0.3,0.6-0.4,1h-1.8c-0.4,0-0.7,0.3-0.7,0.7v0.7c0,0.4,0.3,0.7,0.7,0.7h1.7
		c0.1,0.3,0.2,0.7,0.3,1l-1.2,1.2c-0.3,0.3-0.3,0.7,0,1l0.5,0.5c0.3,0.3,0.7,0.3,1,0l1.1-1.1c0.3,0.2,0.6,0.4,1,0.5v1.7
		c0,0.4,0.3,0.7,0.7,0.7h0.7c0.4,0,0.7-0.3,0.7-0.7V179c0.4-0.1,0.8-0.2,1.2-0.4l1.1,1.1c0.3,0.3,0.7,0.3,1,0l0.5-0.5
		c0.3-0.3,0.3-0.7,0-1L473.2,177.2z M469.9,177.6c-1.6,0-2.8-1.3-2.8-2.8s1.3-2.8,2.8-2.8c1.6,0,2.8,1.3,2.8,2.8
		S471.4,177.6,469.9,177.6z"/>
</g>
<g>
	<path class="st1" d="M397,127.8c0.2-0.4,0.4-0.7,0.6-1.2h1.4c0.4,0,0.7-0.3,0.7-0.7v-0.7c0-0.4-0.3-0.7-0.7-0.7h-1.3
		c-0.1-0.4-0.3-0.8-0.5-1.2l1-1c0.3-0.3,0.3-0.7,0-1l-0.5-0.5c-0.3-0.3-0.7-0.3-1,0l-1,1c-0.3-0.2-0.7-0.4-1.1-0.5v-1.6
		c0-0.4-0.3-0.7-0.7-0.7h-0.7c-0.4,0-0.7,0.3-0.7,0.7v1.6c-0.4,0.1-0.7,0.2-1,0.4l-1.2-1.2c-0.3-0.3-0.7-0.3-1,0l-0.5,0.5
		c-0.3,0.3-0.3,0.7,0,1l1.2,1.2c-0.2,0.3-0.3,0.6-0.4,1h-1.8c-0.4,0-0.7,0.3-0.7,0.7v0.7c0,0.4,0.3,0.7,0.7,0.7h1.7
		c0.1,0.3,0.2,0.7,0.3,1l-1.2,1.2c-0.3,0.3-0.3,0.7,0,1l0.5,0.5c0.3,0.3,0.7,0.3,1,0l1.1-1.1c0.3,0.2,0.6,0.4,1,0.5v1.7
		c0,0.4,0.3,0.7,0.7,0.7h0.7c0.4,0,0.7-0.3,0.7-0.7v-1.5c0.4-0.1,0.8-0.2,1.2-0.4l1.1,1.1c0.3,0.3,0.7,0.3,1,0l0.5-0.5
		c0.3-0.3,0.3-0.7,0-1L397,127.8z M393.7,128.2c-1.6,0-2.8-1.3-2.8-2.8c0-1.6,1.3-2.8,2.8-2.8c1.6,0,2.8,1.3,2.8,2.8
		C396.5,127,395.2,128.2,393.7,128.2z"/>
</g>
<g>
	<path class="st1" d="M373.4,220.6c0.2-0.4,0.4-0.7,0.6-1.2h1.4c0.4,0,0.7-0.3,0.7-0.7V218c0-0.4-0.3-0.7-0.7-0.7H374
		c-0.1-0.4-0.3-0.8-0.5-1.2l1-1c0.3-0.3,0.3-0.7,0-1l-0.5-0.5c-0.3-0.3-0.7-0.3-1,0l-1,1c-0.3-0.2-0.7-0.4-1.1-0.5v-1.6
		c0-0.4-0.3-0.7-0.7-0.7h-0.7c-0.4,0-0.7,0.3-0.7,0.7v1.6c-0.4,0.1-0.7,0.2-1,0.4l-1.2-1.2c-0.3-0.3-0.7-0.3-1,0l-0.5,0.5
		c-0.3,0.3-0.3,0.7,0,1l1.2,1.2c-0.2,0.3-0.3,0.6-0.4,1h-1.8c-0.4,0-0.7,0.3-0.7,0.7v0.7c0,0.4,0.3,0.7,0.7,0.7h1.7
		c0.1,0.3,0.2,0.7,0.3,1l-1.2,1.2c-0.3,0.3-0.3,0.7,0,1l0.5,0.5c0.3,0.3,0.7,0.3,1,0l1.1-1.1c0.3,0.2,0.6,0.4,1,0.5v1.7
		c0,0.4,0.3,0.7,0.7,0.7h0.7c0.4,0,0.7-0.3,0.7-0.7v-1.5c0.4-0.1,0.8-0.2,1.2-0.4l1.1,1.1c0.3,0.3,0.7,0.3,1,0l0.5-0.5
		c0.3-0.3,0.3-0.7,0-1L373.4,220.6z M370,221c-1.6,0-2.8-1.3-2.8-2.8c0-1.6,1.3-2.8,2.8-2.8c1.6,0,2.8,1.3,2.8,2.8
		C372.8,219.7,371.6,221,370,221z"/>
</g>
<g>
	<path class="st1" d="M285.2,146.6c0.2-0.4,0.4-0.7,0.6-1.2h1.4c0.4,0,0.7-0.3,0.7-0.7V144c0-0.4-0.3-0.7-0.7-0.7h-1.3
		c-0.1-0.4-0.3-0.8-0.5-1.2l1-1c0.3-0.3,0.3-0.7,0-1l-0.5-0.5c-0.3-0.3-0.7-0.3-1,0l-1,1c-0.3-0.2-0.7-0.4-1.1-0.5v-1.6
		c0-0.4-0.3-0.7-0.7-0.7h-0.7c-0.4,0-0.7,0.3-0.7,0.7v1.6c-0.4,0.1-0.7,0.2-1,0.4l-1.2-1.2c-0.3-0.3-0.7-0.3-1,0l-0.5,0.5
		c-0.3,0.3-0.3,0.7,0,1l1.2,1.2c-0.2,0.3-0.3,0.6-0.4,1h-1.8c-0.4,0-0.7,0.3-0.7,0.7v0.7c0,0.4,0.3,0.7,0.7,0.7h1.7
		c0.1,0.3,0.2,0.7,0.3,1l-1.2,1.2c-0.3,0.3-0.3,0.7,0,1l0.5,0.5c0.3,0.3,0.7,0.3,1,0l1.1-1.1c0.3,0.2,0.6,0.4,1,0.5v1.7
		c0,0.4,0.3,0.7,0.7,0.7h0.7c0.4,0,0.7-0.3,0.7-0.7v-1.5c0.4-0.1,0.8-0.2,1.2-0.4l1.1,1.1c0.3,0.3,0.7,0.3,1,0l0.5-0.5
		c0.3-0.3,0.3-0.7,0-1L285.2,146.6z M281.9,147c-1.6,0-2.8-1.3-2.8-2.8s1.3-2.8,2.8-2.8c1.6,0,2.8,1.3,2.8,2.8S283.4,147,281.9,147z
		"/>
</g>
<g>
	<path class="st1" d="M320.3,251.6c0.2-0.4,0.4-0.7,0.6-1.2h1.4c0.4,0,0.7-0.3,0.7-0.7V249c0-0.4-0.3-0.7-0.7-0.7H321
		c-0.1-0.4-0.3-0.8-0.5-1.2l1-1c0.3-0.3,0.3-0.7,0-1l-0.5-0.5c-0.3-0.3-0.7-0.3-1,0l-1,1c-0.3-0.2-0.7-0.4-1.1-0.5v-1.6
		c0-0.4-0.3-0.7-0.7-0.7h-0.7c-0.4,0-0.7,0.3-0.7,0.7v1.6c-0.4,0.1-0.7,0.2-1,0.4l-1.2-1.2c-0.3-0.3-0.7-0.3-1,0l-0.5,0.5
		c-0.3,0.3-0.3,0.7,0,1l1.2,1.2c-0.2,0.3-0.3,0.6-0.4,1H311c-0.4,0-0.7,0.3-0.7,0.7v0.7c0,0.4,0.3,0.7,0.7,0.7h1.7
		c0.1,0.3,0.2,0.7,0.3,1l-1.2,1.2c-0.3,0.3-0.3,0.7,0,1l0.5,0.5c0.3,0.3,0.7,0.3,1,0l1.1-1.1c0.3,0.2,0.6,0.4,1,0.5v1.7
		c0,0.4,0.3,0.7,0.7,0.7h0.7c0.4,0,0.7-0.3,0.7-0.7v-1.5c0.4-0.1,0.8-0.2,1.2-0.4l1.1,1.1c0.3,0.3,0.7,0.3,1,0l0.5-0.5
		c0.3-0.3,0.3-0.7,0-1L320.3,251.6z M317,252c-1.6,0-2.8-1.3-2.8-2.8s1.3-2.8,2.8-2.8c1.6,0,2.8,1.3,2.8,2.8S318.5,252,317,252z"/>
</g>
<g>
	<path class="st1" d="M239.8,248.3c0.2-0.4,0.4-0.7,0.6-1.2h1.4c0.4,0,0.7-0.3,0.7-0.7v-0.7c0-0.4-0.3-0.7-0.7-0.7h-1.3
		c-0.1-0.4-0.3-0.8-0.5-1.2l1-1c0.3-0.3,0.3-0.7,0-1l-0.5-0.5c-0.3-0.3-0.7-0.3-1,0l-1,1c-0.3-0.2-0.7-0.4-1.1-0.5v-1.6
		c0-0.4-0.3-0.7-0.7-0.7h-0.7c-0.4,0-0.7,0.3-0.7,0.7v1.6c-0.4,0.1-0.7,0.2-1,0.4L233,241c-0.3-0.3-0.7-0.3-1,0l-0.5,0.5
		c-0.3,0.3-0.3,0.7,0,1l1.2,1.2c-0.2,0.3-0.3,0.6-0.4,1h-1.8c-0.4,0-0.7,0.3-0.7,0.7v0.7c0,0.4,0.3,0.7,0.7,0.7h1.7
		c0.1,0.3,0.2,0.7,0.3,1l-1.2,1.2c-0.3,0.3-0.3,0.7,0,1l0.5,0.5c0.3,0.3,0.7,0.3,1,0l1.1-1.1c0.3,0.2,0.6,0.4,1,0.5v1.7
		c0,0.4,0.3,0.7,0.7,0.7h0.7c0.4,0,0.7-0.3,0.7-0.7V250c0.4-0.1,0.8-0.2,1.2-0.4l1.1,1.1c0.3,0.3,0.7,0.3,1,0l0.5-0.5
		c0.3-0.3,0.3-0.7,0-1L239.8,248.3z M236.4,248.7c-1.6,0-2.8-1.3-2.8-2.8c0-1.6,1.3-2.8,2.8-2.8c1.6,0,2.8,1.3,2.8,2.8
		C239.2,247.4,237.9,248.7,236.4,248.7z"/>
</g>
<g>
	<g>
		<g>
			<g>
				<path class="st1" d="M142.2,168.3c0.2-0.4,0.4-0.7,0.6-1.2h1.4c0.4,0,0.7-0.3,0.7-0.7v-0.7c0-0.4-0.3-0.7-0.7-0.7h-1.3
					c-0.1-0.4-0.3-0.8-0.5-1.2l1-1c0.3-0.3,0.3-0.7,0-1l-0.5-0.5c-0.3-0.3-0.7-0.3-1,0l-1,1c-0.3-0.2-0.7-0.4-1.1-0.5v-1.6
					c0-0.4-0.3-0.7-0.7-0.7h-0.7c-0.4,0-0.7,0.3-0.7,0.7v1.6c-0.4,0.1-0.7,0.2-1,0.4l-1.2-1.2c-0.3-0.3-0.7-0.3-1,0l-0.5,0.5
					c-0.3,0.3-0.3,0.7,0,1l1.2,1.2c-0.2,0.3-0.3,0.6-0.4,1h-1.8c-0.4,0-0.7,0.3-0.7,0.7v0.7c0,0.4,0.3,0.7,0.7,0.7h1.7
					c0.1,0.3,0.2,0.7,0.3,1l-1.2,1.2c-0.3,0.3-0.3,0.7,0,1l0.5,0.5c0.3,0.3,0.7,0.3,1,0l1.1-1.1c0.3,0.2,0.6,0.4,1,0.5v1.7
					c0,0.4,0.3,0.7,0.7,0.7h0.7c0.4,0,0.7-0.3,0.7-0.7v-1.5c0.4-0.1,0.8-0.2,1.2-0.4l1.1,1.1c0.3,0.3,0.7,0.3,1,0l0.5-0.5
					c0.3-0.3,0.3-0.7,0-1L142.2,168.3z M138.8,168.7c-1.6,0-2.8-1.3-2.8-2.8c0-1.6,1.3-2.8,2.8-2.8s2.8,1.3,2.8,2.8
					C141.7,167.5,140.4,168.7,138.8,168.7z"/>
			</g>
		</g>
	</g>
</g>
<g>
	<path class="st1" d="M282,240.9c-5,0-9,4-9,9c0,5,4,9,9,9c3.1,0,5.9-1.6,7.5-4c0.1-0.2,0.2-0.4,0.3-0.5c0.8-1.3,1.2-2.8,1.2-4.5
		C291,245,286.9,240.9,282,240.9z M288.1,254.1c-1.3,2-3.6,3.2-6.1,3.2c-4.1,0-7.4-3.3-7.4-7.4c0-4.1,3.3-7.4,7.4-7.4
		c4.1,0,7.4,3.3,7.4,7.4c0,1.3-0.3,2.5-0.9,3.6C288.3,253.7,288.2,253.9,288.1,254.1z"/>
	<path class="st1" d="M282,244.3c-3.1,0-5.6,2.5-5.6,5.6c0,3.1,2.5,5.6,5.6,5.6c1.9,0,3.6-1,4.6-2.4c0.1-0.2,0.2-0.4,0.3-0.5
		c0.4-0.8,0.7-1.7,0.7-2.6C287.6,246.8,285.1,244.3,282,244.3z M285.3,252.3c-0.7,1-1.9,1.7-3.3,1.7c-2.3,0-4.1-1.8-4.1-4.1
		c0-2.3,1.8-4.1,4.1-4.1c2.3,0,4.1,1.8,4.1,4.1c0,0.7-0.2,1.3-0.4,1.8C285.5,252,285.4,252.1,285.3,252.3z"/>
	<path class="st1" d="M282,247.6c-1.3,0-2.4,1.1-2.4,2.4c0,1.3,1.1,2.4,2.4,2.4c0.8,0,1.4-0.4,1.8-0.9c0.1-0.2,0.2-0.3,0.3-0.5
		c0.1-0.3,0.2-0.6,0.2-0.9C284.3,248.6,283.3,247.6,282,247.6z"/>
	<g>
		<path class="st1" d="M288.4,253.5c-0.1,0.2-0.2,0.4-0.3,0.5l1.4,0.9c0.1-0.2,0.2-0.4,0.3-0.5L288.4,253.5z"/>
		<path class="st1" d="M285.6,251.8c-0.1,0.2-0.2,0.4-0.3,0.5l1.3,0.8c0.1-0.2,0.2-0.4,0.3-0.5L285.6,251.8z"/>
		<path class="st1" d="M282.2,249.6c0,0-0.2-0.1-0.4,0.2c0,0-0.1,0.2,0,0.3l2,1.3c0.1-0.2,0.2-0.3,0.3-0.5L282.2,249.6z"/>
	</g>
	<path class="st12" d="M289.5,254.9L289.5,254.9c0.1-0.2,0.2-0.4,0.3-0.5l0,0C289.7,254.6,289.6,254.8,289.5,254.9z"/>
	<path class="st1" d="M281.7,250.1c0,0,0.2,0.2,0.4,0.1l12.1-11.9l-0.5-0.5l-12,11.9C281.6,249.7,281.4,249.9,281.7,250.1z"/>
	<g>
		<g>
			<polygon class="st1" points="290.4,238.7 290.6,240.9 290.6,240.9 292.4,239.1 292.2,237 			"/>
			<polygon class="st1" points="293.1,238.4 292.9,236.3 292.3,236.9 292.5,239 			"/>
			<polygon class="st1" points="289.3,239.6 289.5,242 290.5,241 290.2,238.8 			"/>
			<polygon class="st1" points="289.9,242.4 292.2,242.5 294.3,240.4 292.1,240.2 			"/>
			<polygon class="st1" points="295.6,239.1 293.4,238.9 292.2,240.1 294.5,240.2 			"/>
		</g>
	</g>
</g>
<g>
	<path class="st1" d="M339.7,52.6c0-0.3-0.1-0.7-0.1-0.8c-0.2-0.3-0.9-0.5-1.6-0.8c0,0,0,0,0,0c-0.7-0.3-0.9-0.4-0.9-0.4l0-0.7
		c0,0,0.2-0.2,0.3-0.7l0.2-1.3c0-0.2,0-0.4,0-0.5c-0.1-0.5-0.6-1.1-1.4-1.1v0h0c0,0,0,0,0,0c0,0,0,0,0,0h0v0c-0.8,0-1.3,0.6-1.4,1.1
		c0,0.1,0,0.3,0,0.5l0.2,1.3c0.1,0.5,0.3,0.7,0.3,0.7l0,0.7c0,0-0.2,0.1-0.9,0.4c0,0,0,0,0,0c-0.7,0.3-1.4,0.5-1.6,0.8
		c-0.1,0.1-0.1,0.5-0.1,0.8c0,0.5,0,0.9,0,0.9h3.5h0h0h0h3.5C339.7,53.6,339.8,53.1,339.7,52.6z"/>
	<path class="st1" d="M336.2,56.7c-3.7,0-6.8-3-6.8-6.8s3-6.8,6.8-6.8c3.7,0,6.8,3,6.8,6.8S339.9,56.7,336.2,56.7z M336.2,43.5
		c-3.5,0-6.4,2.9-6.4,6.4s2.9,6.4,6.4,6.4c3.5,0,6.4-2.9,6.4-6.4S339.7,43.5,336.2,43.5z"/>
</g>
<g>
	<path class="st1" d="M375,83.4c0-0.3,0-0.5-0.1-0.6c-0.2-0.2-0.7-0.4-1.2-0.6c0,0,0,0,0,0c-0.5-0.2-0.6-0.3-0.6-0.3l0-0.5
		c0,0,0.2-0.1,0.2-0.5l0.1-1c0-0.2,0-0.3,0-0.4c0-0.4-0.4-0.8-1-0.8v0h0c0,0,0,0,0,0c0,0,0,0,0,0h0v0c-0.6,0-1,0.4-1,0.8
		c0,0.1,0,0.2,0,0.4l0.1,1c0.1,0.4,0.2,0.5,0.2,0.5l0,0.5c0,0-0.1,0.1-0.6,0.3c0,0,0,0,0,0c-0.5,0.2-1.1,0.4-1.2,0.6
		c-0.1,0.1-0.1,0.3-0.1,0.6c0,0.3,0,0.7,0,0.7h2.6h0h0h0h2.6C375,84.1,375.1,83.7,375,83.4z"/>
	<path class="st1" d="M372.4,86.4c-2.8,0-5.1-2.3-5.1-5.1s2.3-5.1,5.1-5.1s5.1,2.3,5.1,5.1S375.2,86.4,372.4,86.4z M372.4,76.6
		c-2.6,0-4.8,2.1-4.8,4.8c0,2.6,2.1,4.8,4.8,4.8c2.6,0,4.8-2.1,4.8-4.8C377.2,78.7,375,76.6,372.4,76.6z"/>
</g>
<g>
	<path class="st1" d="M404.8,178c0-0.3,0-0.6-0.1-0.8c-0.2-0.3-0.9-0.5-1.6-0.8c0,0,0,0,0,0c-0.7-0.3-0.8-0.4-0.8-0.4l0-0.6
		c0,0,0.2-0.2,0.3-0.7l0.2-1.2c0-0.2,0-0.4,0-0.5c0-0.5-0.6-1.1-1.3-1.1v0h0c0,0,0,0,0,0c0,0,0,0,0,0h0v0c-0.8,0-1.3,0.6-1.3,1.1
		c0,0.1,0,0.3,0,0.5l0.2,1.2c0.1,0.5,0.3,0.7,0.3,0.7l0,0.6c0,0-0.2,0.1-0.8,0.4c0,0,0,0,0,0c-0.7,0.3-1.4,0.5-1.6,0.8
		c-0.1,0.1-0.1,0.4-0.1,0.8c0,0.4,0,0.9,0,0.9h3.3h0h0h0h3.3C404.8,178.8,404.8,178.4,404.8,178z"/>
	<path class="st1" d="M401.5,181.8c-3.6,0-6.4-2.9-6.4-6.4c0-3.6,2.9-6.4,6.4-6.4c3.6,0,6.4,2.9,6.4,6.4
		C407.9,178.9,405,181.8,401.5,181.8z M401.5,169.3c-3.3,0-6,2.7-6,6c0,3.3,2.7,6,6,6c3.3,0,6-2.7,6-6
		C407.5,172,404.8,169.3,401.5,169.3z"/>
</g>
<g>
	<path class="st1" d="M411.4,284.2c0-0.3-0.1-0.7-0.1-0.8c-0.2-0.3-0.9-0.5-1.6-0.8c0,0,0,0,0,0c-0.7-0.3-0.9-0.4-0.9-0.4l0-0.7
		c0,0,0.2-0.2,0.3-0.7l0.2-1.3c0-0.2,0-0.4,0-0.5c-0.1-0.5-0.6-1.1-1.4-1.1v0h0c0,0,0,0,0,0c0,0,0,0,0,0h0v0c-0.8,0-1.3,0.6-1.4,1.1
		c0,0.1,0,0.3,0,0.5l0.2,1.3c0.1,0.5,0.3,0.7,0.3,0.7l0,0.7c0,0-0.2,0.1-0.9,0.4c0,0,0,0,0,0c-0.7,0.3-1.4,0.5-1.6,0.8
		c-0.1,0.1-0.1,0.5-0.1,0.8c0,0.5,0,0.9,0,0.9h3.5h0h0h0h3.5C411.4,285.1,411.5,284.7,411.4,284.2z"/>
	<path class="st1" d="M407.9,288.3c-3.7,0-6.8-3-6.8-6.8c0-3.7,3-6.8,6.8-6.8s6.8,3,6.8,6.8C414.7,285.2,411.6,288.3,407.9,288.3z
		 M407.9,275.1c-3.5,0-6.4,2.9-6.4,6.4c0,3.5,2.9,6.4,6.4,6.4c3.5,0,6.4-2.9,6.4-6.4C414.3,278,411.4,275.1,407.9,275.1z"/>
</g>
<g>
	<path class="st1" d="M334.1,287.9c0-0.3-0.1-0.7-0.1-0.8c-0.2-0.3-0.9-0.5-1.6-0.8c0,0,0,0,0,0c-0.7-0.3-0.9-0.4-0.9-0.4l0-0.7
		c0,0,0.2-0.2,0.3-0.7l0.2-1.3c0-0.2,0-0.4,0-0.5c-0.1-0.5-0.6-1.1-1.4-1.1v0h0c0,0,0,0,0,0c0,0,0,0,0,0h0v0c-0.8,0-1.3,0.6-1.4,1.1
		c0,0.1,0,0.3,0,0.5l0.2,1.3c0.1,0.5,0.3,0.7,0.3,0.7l0,0.7c0,0-0.2,0.1-0.9,0.4c0,0,0,0,0,0c-0.7,0.3-1.4,0.5-1.6,0.8
		c-0.1,0.1-0.1,0.5-0.1,0.8c0,0.5,0,0.9,0,0.9h3.5h0h0h0h3.5C334.1,288.8,334.2,288.3,334.1,287.9z"/>
	<path class="st1" d="M330.6,291.9c-3.7,0-6.8-3-6.8-6.8c0-3.7,3-6.8,6.8-6.8c3.7,0,6.8,3,6.8,6.8
		C337.4,288.9,334.3,291.9,330.6,291.9z M330.6,278.8c-3.5,0-6.4,2.9-6.4,6.4c0,3.5,2.9,6.4,6.4,6.4c3.5,0,6.4-2.9,6.4-6.4
		C337,281.6,334.1,278.8,330.6,278.8z"/>
</g>
<g>
	<g>
		<path class="st3" d="M313.6,88.2v-4.3c-1.3-0.4-2.3-1-2.9-1.7c-0.6-0.8-0.9-1.7-0.9-2.8c0-1.1,0.4-2.1,1.1-2.8
			c0.7-0.8,1.6-1.2,2.8-1.3V74h1.5v1.2c1.1,0.1,2,0.5,2.6,1.1c0.6,0.6,1.1,1.4,1.2,2.5l-2.6,0.3c-0.2-0.8-0.6-1.4-1.2-1.6v4
			c1.6,0.4,2.8,1,3.4,1.7c0.6,0.7,0.9,1.6,0.9,2.7c0,1.2-0.4,2.3-1.1,3.1c-0.7,0.8-1.8,1.4-3.1,1.6V92h-1.5v-1.4
			c-1.2-0.1-2.1-0.6-2.9-1.3c-0.7-0.7-1.2-1.8-1.4-3.1l2.7-0.3c0.1,0.5,0.3,1,0.6,1.4C312.9,87.7,313.3,88,313.6,88.2z M313.6,77.4
			c-0.4,0.1-0.7,0.4-1,0.7c-0.2,0.3-0.4,0.7-0.4,1.1c0,0.4,0.1,0.7,0.3,1s0.6,0.6,1,0.8V77.4z M315.1,88.3c0.5-0.1,0.9-0.3,1.3-0.7
			c0.3-0.4,0.5-0.8,0.5-1.3c0-0.5-0.1-0.9-0.4-1.2c-0.3-0.3-0.7-0.6-1.3-0.8V88.3z"/>
	</g>
</g>
<rect x="206.1" y="502.6" class="st13" width="241" height="3"/>
<polygon class="st14" points="384.7,505.9 385,506.4 382.7,507.3 383.4,506.4 "/>
<path class="st15" d="M215.8,429.6c0,0.2,0.1,0.3,0.3,0.3H228c0.2,0,0.3-0.1,0.3-0.3v-0.8c0-0.2-0.1-0.3-0.3-0.3l-11.9,0.6
	c-0.2,0-0.3,0.1-0.3,0.3V429.6z"/>
<path class="st15" d="M441.1,429.6c0,0.2-0.1,0.3-0.3,0.3h-11.9c-0.2,0-0.3-0.1-0.3-0.3v-0.8c0-0.2,0.1-0.3,0.3-0.3l11.9,0.6
	c0.2,0,0.3,0.1,0.3,0.3V429.6z"/>
<path class="st13" d="M228,505.2c0,1.8-14.5,3.3-32.4,3.3c-17.9,0-32.4-1.5-32.4-3.3c0-1.8,14.5-3.3,32.4-3.3
	C213.5,501.9,228,503.4,228,505.2z"/>
<polygon class="st16" points="192.3,467.1 197.6,461.8 187,461.8 "/>
<rect x="190.9" y="466.7" class="st17" width="2.7" height="22.9"/>
<rect x="190.9" y="464.6" class="st16" width="2.7" height="2.7"/>
<rect x="190" y="482.9" class="st16" width="4.9" height="12.4"/>
<polygon class="st16" points="192.4,494.1 174.3,499.5 174.3,502 192.4,498.1 211.1,502.6 211.1,499.9 "/>
<path class="st16" d="M177.5,504.1c0,1.1-1,2.1-2.2,2.1c-1.2,0-2.2-0.9-2.2-2.1c0-1.1,1-2.1,2.2-2.1
	C176.6,502,177.5,502.9,177.5,504.1z"/>
<path class="st16" d="M194.9,505.6c0,1.1-1,2.1-2.2,2.1c-1.2,0-2.2-0.9-2.2-2.1c0-1.1,1-2.1,2.2-2.1
	C193.9,503.5,194.9,504.5,194.9,505.6z"/>
<path class="st16" d="M211.8,504.4c0,1.1-1,2.1-2.2,2.1c-1.2,0-2.2-0.9-2.2-2.1c0-1.1,1-2.1,2.2-2.1
	C210.9,502.4,211.8,503.3,211.8,504.4z"/>
<polygon class="st16" points="193.8,503 191.4,503 190.9,494.9 194.1,494.9 "/>
<rect x="174.3" y="501.2" class="st16" width="0.8" height="1.2"/>
<rect x="209.9" y="501" class="st16" width="0.8" height="2"/>
<rect x="192.2" y="501.2" class="st16" width="0.8" height="3.1"/>
<path class="st18" d="M183.7,406.6l-0.3-7.6c0.2-1.9,0.9-3.1-1-3.3c-1.9-0.2-1.2,1.5-1.4,3.4l-1.7,7.1c0,0,0,0.1,0,0.1L183.7,406.6
	C183.7,406.7,183.7,406.6,183.7,406.6z"/>
<polygon class="st19" points="175.8,445.6 175.8,446.7 188.8,446.8 188.8,445.6 "/>
<polygon class="st14" points="225.3,504.9 225.3,505.4 227.4,505.4 226.5,504.9 "/>
<rect x="225.5" y="494.5" transform="matrix(0.9989 -4.594924e-02 4.594924e-02 0.9989 -22.648 10.9584)" class="st20" width="3" height="7.2"/>
<path class="st21" d="M236.4,504.2c0-0.7-1-0.9-1-0.9h-1.5c-3.2,0-5-2.9-5-2.9v-0.2c-0.5,1.1-0.9,1.1-0.9,1.1
	c-2,0.9-2.3-0.8-2.5-1.2l-0.1,0.2c-1.1,1.6-0.7,2.9-0.7,2.9v1.3h2.1l0-0.5h1.2l0.8,0.5h7.6C236.4,504.4,236.4,504.2,236.4,504.2z"/>
<path class="st22" d="M224.5,498.7c-0.5-6.3-0.8-15.4-1.5-21.5c-0.3-3-0.8-6.1-1.6-8.7c-0.9-2.7-2.2-4.7-3.9-5.1
	c-11.5-2.3-21.6-3.3-33.6-3.1l-3-7.3c6.6,0.1,12.9,0.6,19.2,1.4c3.2,0.4,6.3,0.9,9.5,1.5c1.6,0.3,3.1,0.6,4.7,0.9l2.3,0.5
	c0.8,0.2,1.4,0.3,2.6,0.6c2.1,0.7,3.9,2.3,5,3.9c1.1,1.7,1.8,3.4,2.3,5.1c0.9,3.4,1.3,6.6,1.5,9.8c0.5,6.4,0.6,15.4,0.8,21.7
	L224.5,498.7z"/>
<path class="st23" d="M175.5,451.9c0,2.3,0.6,4.3,1.4,6c1.4,2.1,3.7,3.8,7.9,3.2c0,0,3-0.1,4-10.5c0-0.2,0-0.4,0.1-0.6
	c0,0,0-0.1,0-0.1c0-0.4,0-0.8,0-1.2l0-2.1l-13.1,0L175.5,451.9z"/>
<path class="st1" d="M188.4,424.1c-0.5-7.7,0-17.8-5.3-20.2c-4.7-2.2-5.7,2.2-6.4,9.8l-0.6,32h12.6L188.4,424.1z"/>
<polygon class="st24" points="186.8,407.1 185.3,405.4 186.5,408.4 "/>
<path class="st25" d="M179.4,403.6l0.8-1.5l5,1.2l1.3,2.9C186.5,406.2,182,403.6,179.4,403.6z"/>
<path class="st24" d="M186.2,407.4c0,0,2,6.1,2.1,15.7c0.1,9.6,0.4,19.3,0.4,19.3l0.6,1.8C189.3,444.2,190.6,413.2,186.2,407.4z"/>
<rect x="224.2" y="495.3" transform="matrix(0.9989 -4.624464e-02 4.624464e-02 0.9989 -22.8321 10.9728)" class="st18" width="3" height="7.2"/>
<path class="st23" d="M235.1,505c0-0.7-1-0.9-1-0.9h-1.5c-3.2,0-5-2.9-5-2.9V501c-0.5,1.1-0.9,1.1-0.9,1.1c-2,0.9-2.3-0.8-2.5-1.2
	l-0.1,0.2c-1.1,1.6-0.7,2.9-0.7,2.9v1.3h2.1l0-0.5h1.2l0.8,0.5h7.6C235.1,505.2,235.1,505,235.1,505z"/>
<path class="st23" d="M223.8,499.6c-0.5-6.3-0.8-15.4-1.5-21.5c-0.3-3-0.8-6.1-1.6-8.7c-0.9-2.7-2.2-4.7-3.9-5.1
	c-11.5-2.3-21.6-3.3-33.6-3.1l-3-7.2c6.6,0.1,12.9,0.6,19.2,1.4c3.2,0.4,6.3,0.9,9.5,1.5c1.6,0.3,3.1,0.6,4.7,0.9l2.3,0.5
	c0.8,0.2,1.4,0.3,2.6,0.6c2.1,0.7,3.9,2.3,5,3.9c1.1,1.7,1.8,3.4,2.3,5.1c0.9,3.4,1.3,6.6,1.5,9.8c0.5,6.4,0.6,15.4,0.8,21.7
	L223.8,499.6z"/>
<path class="st16" d="M195.6,446.8c0.1-2.9-2.1-5.4-5-5.5l-22.7,1.3l-0.2-1.6l0.1-1.6l22.9-1.2c4.6,0.2,8.2,4.2,8,8.8l-3.1,14.2
	l-3.2,0.2L195.6,446.8z"/>
<path class="st26" d="M178.2,464.3c1.6,0.1,2.7,0,2.8,0l0.1,0c23-4.2,35.1,2.8,35.2,2.9c0.8,0.4,1.7,0,2.1-0.8
	c0.4-0.8,0-1.7-0.8-2.1c-0.6-0.2-13-7.5-37-3.1c-0.6,0-6.1,0.4-9.2-2.2c-1.2-1.1-1.9-2.5-1.9-4.3c-0.1-2.1,0-4.5,0.2-6.9
	c0.5-8.2,1.1-18.4-5.8-31.4c-0.4-0.8-1.4-1.1-2.1-0.7c-0.8,0.4-1.1,1.4-0.7,2.1c6.4,12.2,5.8,21.9,5.4,29.7c-0.1,2.5-0.3,5-0.2,7.2
	c0.1,2.7,1.1,4.9,3,6.6C172,463.6,175.7,464.2,178.2,464.3L178.2,464.3z"/>
<rect x="206.1" y="430.8" class="st27" width="2.9" height="76.3"/>
<path class="st18" d="M217.2,427.6l-0.1-0.1l0,0l0,0c0.1-0.2,0-0.4-0.3-0.6l-2.5-1.4c-0.2-0.1-0.4-0.1-0.5,0
	c-0.6,0.2-1.8,1.4-2.2,1.9c-0.4,0.5-2.6,0.4-2.6,0.4l-0.1,1.5c0,0,1.6,0.1,1.6,0.1c1,0.3,1.9-0.1,2.2-0.2c0.1,0,0.1,0,0.1-0.1
	l1.6-1.5l1,1c0.1,0.1,0.4,0.1,0.5-0.1l0,0c0.1-0.2,0.1-0.4,0-0.5l-0.8-0.8l1.4,1c0.2,0.2,0.5,0.2,0.6,0l0,0
	C217.5,428,217.4,427.7,217.2,427.6z"/>
<path class="st13" d="M407.5,505.2c0,1.8,19.6,3.3,43.8,3.3c24.2,0,43.8-1.5,43.8-3.3c0-1.8-19.6-3.3-43.8-3.3
	C427.1,501.9,407.5,503.4,407.5,505.2z"/>
<polygon class="st16" points="461.1,467.1 455.8,461.8 466.4,461.8 "/>
<rect x="459.8" y="466.7" class="st17" width="2.7" height="22.9"/>
<rect x="459.8" y="464.6" class="st16" width="2.7" height="2.7"/>
<rect x="458.5" y="482.9" class="st16" width="4.9" height="12.4"/>
<polygon class="st16" points="461,494.1 479.1,499.5 479.1,502 461,498.1 442.3,502.6 442.3,499.9 "/>
<path class="st16" d="M475.9,504.1c0,1.1,1,2.1,2.2,2.1c1.2,0,2.2-0.9,2.2-2.1c0-1.1-1-2.1-2.2-2.1
	C476.8,502,475.9,502.9,475.9,504.1z"/>
<path class="st16" d="M458.5,505.6c0,1.1,1,2.1,2.2,2.1c1.2,0,2.2-0.9,2.2-2.1c0-1.1-1-2.1-2.2-2.1
	C459.5,503.5,458.5,504.5,458.5,505.6z"/>
<path class="st16" d="M441.6,504.4c0,1.1,1,2.1,2.2,2.1c1.2,0,2.2-0.9,2.2-2.1c0-1.1-1-2.1-2.2-2.1
	C442.5,502.4,441.6,503.3,441.6,504.4z"/>
<polygon class="st16" points="459.6,503 462,503 462.5,494.9 459.3,494.9 "/>
<rect x="478.3" y="501.2" class="st16" width="0.8" height="1.2"/>
<rect x="442.7" y="501" class="st16" width="0.8" height="2"/>
<rect x="460.4" y="501.2" class="st16" width="0.8" height="3.1"/>
<path class="st18" d="M469.7,406.6l0.3-7.6c-0.2-1.9-0.9-3.1,1-3.3c1.9-0.2,1.2,1.5,1.4,3.4l1.7,7.1c0,0,0,0.1,0,0.1L469.7,406.6
	C469.7,406.7,469.7,406.6,469.7,406.6z"/>
<polygon class="st19" points="477.6,445.6 477.6,446.7 464.6,446.8 464.6,445.6 "/>
<polygon class="st14" points="428.1,504.9 428.1,505.4 426,505.4 426.9,504.9 "/>
<rect x="422.7" y="496.6" transform="matrix(4.594924e-02 -0.9989 0.9989 4.594924e-02 -90.8154 901.1339)" class="st20" width="7.2" height="3"/>
<path class="st21" d="M417,504.2c0-0.7,1-0.9,1-0.9h1.5c3.2,0,5-2.9,5-2.9v-0.2c0.5,1.1,0.9,1.1,0.9,1.1c2,0.9,2.3-0.8,2.5-1.2
	l0.1,0.2c1.1,1.6,0.7,2.9,0.7,2.9v1.3h-2.1l0-0.5h-1.2l-0.8,0.5H417C417,504.4,417,504.2,417,504.2z"/>
<path class="st22" d="M428.9,498.7c0.5-6.3,0.8-15.4,1.5-21.5c0.3-3,0.8-6.1,1.6-8.7c0.9-2.7,2.2-4.7,3.9-5.1
	c11.5-2.3,21.6-3.3,33.6-3.1l3-7.3c-6.6,0.1-12.9,0.6-19.2,1.4c-3.2,0.4-6.3,0.9-9.5,1.5c-1.6,0.3-3.1,0.6-4.7,0.9l-2.3,0.5
	c-0.8,0.2-1.4,0.3-2.6,0.6c-2.1,0.7-3.9,2.3-5,3.9c-1.1,1.7-1.8,3.4-2.3,5.1c-0.9,3.4-1.3,6.6-1.5,9.8c-0.5,6.4-0.6,15.4-0.8,21.7
	L428.9,498.7z"/>
<path class="st23" d="M477.9,451.9c0,2.3-0.6,4.3-1.4,6c-1.4,2.1-3.7,3.8-7.9,3.2c0,0-3-0.1-4-10.5c0-0.2,0-0.4-0.1-0.6
	c0,0,0-0.1,0-0.1c0-0.4,0-0.8,0-1.2l0-2.1l13.1,0L477.9,451.9z"/>
<path class="st1" d="M465,424.1c0.5-7.7,0-17.8,5.3-20.2c4.7-2.2,5.7,2.2,6.4,9.8l0.6,32h-12.6L465,424.1z"/>
<polygon class="st28" points="466.6,407.1 468.1,405.4 466.9,408.4 "/>
<path class="st25" d="M474,403.6l-0.8-1.5l-5,1.2l-1.3,2.9C466.9,406.2,471.4,403.6,474,403.6z"/>
<path class="st28" d="M467.2,407.4c0,0-2,6.1-2.1,15.7c-0.1,9.6-0.4,19.3-0.4,19.3l-0.6,1.8C464.1,444.2,462.8,413.2,467.2,407.4z"
	/>
<rect x="424.1" y="497.4" transform="matrix(4.625984e-02 -0.9989 0.9989 4.625984e-02 -90.5304 903.0718)" class="st18" width="7.2" height="3"/>
<path class="st23" d="M418.3,505c0-0.7,1-0.9,1-0.9h1.5c3.2,0,5-2.9,5-2.9V501c0.5,1.1,0.9,1.1,0.9,1.1c2,0.9,2.3-0.8,2.5-1.2
	l0.1,0.2c1.1,1.6,0.7,2.9,0.7,2.9v1.3h-2.1l0-0.5h-1.2l-0.8,0.5h-7.6C418.3,505.2,418.3,505,418.3,505z"/>
<path class="st23" d="M429.6,499.6c0.5-6.3,0.8-15.4,1.5-21.5c0.3-3,0.8-6.1,1.6-8.7c0.9-2.7,2.2-4.7,3.9-5.1
	c11.5-2.3,21.6-3.3,33.6-3.1l3-7.2c-6.6,0.1-12.9,0.6-19.2,1.4c-3.2,0.4-6.3,0.9-9.5,1.5c-1.6,0.3-3.1,0.6-4.7,0.9l-2.3,0.5
	c-0.8,0.2-1.4,0.3-2.6,0.6c-2.1,0.7-3.9,2.3-5,3.9c-1.1,1.7-1.8,3.4-2.3,5.1c-0.9,3.4-1.3,6.6-1.5,9.8c-0.5,6.4-0.6,15.4-0.8,21.7
	L429.6,499.6z"/>
<path class="st16" d="M457.8,446.8c-0.1-2.9,2.1-5.4,5-5.5l22.7,1.3l0.2-1.6l-0.1-1.6l-22.9-1.2c-4.6,0.2-8.2,4.2-8,8.8l3.1,14.2
	l3.2,0.2L457.8,446.8z"/>
<path class="st26" d="M475.2,464.3c-1.6,0.1-2.7,0-2.8,0l-0.1,0c-23-4.2-35.1,2.8-35.2,2.9c-0.8,0.4-1.7,0-2.1-0.8
	c-0.4-0.8,0-1.7,0.8-2.1c0.6-0.2,13-7.5,37-3.1c0.6,0,6.1,0.4,9.2-2.2c1.2-1.1,1.9-2.5,1.9-4.3c0.1-2.1,0-4.5-0.2-6.9
	c-0.5-8.2-1.1-18.4,5.8-31.4c0.4-0.8,1.4-1.1,2.1-0.7c0.8,0.4,1.1,1.4,0.7,2.1c-6.4,12.2-5.8,21.9-5.4,29.7c0.1,2.5,0.3,5,0.2,7.2
	c-0.1,2.7-1.1,4.9-3,6.6C481.4,463.6,477.7,464.2,475.2,464.3L475.2,464.3z"/>
<path class="st18" d="M436.2,427.6l0.1-0.1l0,0l0,0c-0.1-0.2,0-0.4,0.3-0.6l2.5-1.4c0.2-0.1,0.4-0.1,0.5,0c0.6,0.2,1.8,1.4,2.2,1.9
	c0.4,0.5,2.6,0.4,2.6,0.4l0.1,1.5c0,0-1.6,0.1-1.6,0.1c-1,0.3-1.9-0.1-2.2-0.2c-0.1,0-0.1,0-0.1-0.1l-1.6-1.5l-1,1
	c-0.1,0.1-0.4,0.1-0.5-0.1l0,0c-0.1-0.2-0.1-0.4,0-0.5l0.8-0.8l-1.4,1c-0.2,0.2-0.5,0.2-0.6,0l0,0C435.9,428,436,427.7,436.2,427.6z
	"/>
<rect x="444.2" y="430" class="st27" width="3" height="77.1"/>
<rect x="206.1" y="430" width="241" height="3"/>
<path class="st14" d="M414.9,410.8c0-0.2-0.1-0.6-0.2-1.1c-0.5,0.7-1.2,1.6-1.8,2.7l1.8,0C414.8,412.3,415,411.3,414.9,410.8z"/>
<path class="st15" d="M415,411.1c0.9,5.2,2.1,9.3,3.6,11.6l0,0.2l2.3,0c0.2,0,0.4-0.4,0.4-0.9l-1-49c0-0.5-0.2-0.9-0.5-0.9l-2.2,0h0
	l0,0.1c-2.4,4.2-3.9,14-3.7,25.4c0.1,3.4,0.3,6.6,0.6,9.6c0.1,0.7,0.5,3.4,0.5,3.8C415,410.9,415,411,415,411.1z"/>
<path class="st29" d="M426.6,428.4c-8.8,0.2-14.2-1.5-15.8-5.1c-1.6-3.3,0.3-7.7,2.2-10.9c0,0,0,0,0-0.1c0.6-1.1,1.3-2,1.8-2.7
	c-0.1-0.6-0.2-1.3-0.3-1.9c-0.6,0.8-1.9,2.5-3.1,4.6c0,0,0,0,0,0.1c-1.9,3.4-3.5,7.9-1.8,11.5c1.8,3.9,7.1,5.9,15.8,5.9
	c0.4,0,0.9,0,1.4,0c0.4,0,0.7-0.3,0.7-0.7C427.3,428.7,426.9,428.4,426.6,428.4z"/>
<path class="st15" d="M414.5,407.8c0.1,0.6,0.2,1.3,0.3,1.9c0,0,0,0,0,0c0.1,0.5,0.1,0.9,0.2,1.4c0-0.1,0-0.2,0-0.3
	c-0.1-0.4-0.5-3.1-0.5-3.8C414.4,407.3,414.5,407.5,414.5,407.8C414.5,407.8,414.5,407.8,414.5,407.8z"/>
<path class="st14" d="M244.1,410.8c0-0.2,0.1-0.6,0.2-1.1c0.5,0.7,1.2,1.6,1.8,2.7l-1.8,0C244.2,412.3,244.1,411.3,244.1,410.8z"/>
<path class="st29" d="M232.5,428.4c8.8,0.2,14.2-1.5,15.8-5.1c1.6-3.3-0.3-7.7-2.2-10.9c0,0,0,0,0-0.1c-0.6-1.1-1.3-2-1.8-2.7
	c0.1-0.6,0.2-1.3,0.3-1.9c0.6,0.8,1.9,2.5,3.1,4.6c0,0,0,0,0,0.1c1.9,3.4,3.5,7.9,1.8,11.5c-1.8,3.9-7.1,5.9-15.8,5.9
	c-0.4,0-0.9,0-1.4,0c-0.4,0-0.7-0.3-0.7-0.7C231.8,428.7,232.1,428.4,232.5,428.4z"/>
<path class="st15" d="M244.6,407.8c-0.1,0.6-0.2,1.3-0.3,1.9c0,0,0,0,0,0c-0.1,0.5-0.1,0.9-0.2,1.4c0-0.1,0-0.2,0-0.3
	c0.1-0.4,0.5-3.1,0.6-3.8C244.6,407.3,244.6,407.5,244.6,407.8C244.5,407.8,244.6,407.8,244.6,407.8z"/>
<path class="st15" d="M244.1,411.1c-0.9,5.2-2.1,9.3-3.6,11.6l0,0.2l-2.3,0c-0.2,0-0.4-0.4-0.4-0.9l1-49c0-0.5,0.2-0.9,0.5-0.9
	l2.2,0h0l0,0.1c2.4,4.2,3.9,14,3.7,25.4c-0.1,3.4-0.3,6.6-0.6,9.6c-0.1,0.7-0.5,3.4-0.6,3.8C244.1,410.9,244.1,411,244.1,411.1z"/>
<path class="st18" d="M328.9,403.5C328.9,403.5,329,403.5,328.9,403.5C329,403.5,329,403.5,328.9,403.5"/>
<path class="st18" d="M329,400.8c0-0.2,0-0.4,0-0.6C329,400.4,329,400.6,329,400.8z"/>
<rect x="321.2" y="420.8" class="st29" width="17.4" height="8.8"/>
<rect x="321.2" y="420.8" class="st30" width="17.4" height="3.6"/>
<path class="st31" d="M329,430.5"/>
<rect x="316.2" y="429.2" class="st32" width="27.4" height="1.1"/>
<path class="st18" d="M331.9,394.8C331.9,394.8,331.9,394.8,331.9,394.8C332,394.8,332,394.8,331.9,394.8"/>
<path class="st18" d="M331.9,391.1c0-0.3,0-0.5,0-0.8C331.9,390.5,331.9,390.8,331.9,391.1z"/>
<rect x="318.3" y="417.8" class="st29" width="23.2" height="11.8"/>
<rect x="318.3" y="417.8" class="st30" width="23.2" height="4.9"/>
<path class="st31" d="M331.9,430.9"/>
<rect x="311.6" y="429.1" class="st32" width="36.7" height="1.4"/>
<path class="st15" d="M366,420.2c0,1.1-0.8,2-1.9,2h-68.3c-1,0-1.9-0.9-1.9-2v-46.9c0-1.1,0.8-2,1.9-2h68.3c1,0,1.9,0.9,1.9,2V420.2
	z"/>
<rect x="295.9" y="373.8" class="st33" width="68" height="41.9"/>
<g>
	<rect x="318.4" y="496.7" class="st18" width="3.4" height="5.4"/>
	<g>
		<path class="st34" d="M317.5,501.2c0,0,0-0.3,0.1-0.4c0,0,0-0.9,0.7-1.6c0,0,0.1,0.1,0.3,0.1c0.3-0.1,0.6-0.2,0.9-0.3
			c0.3-0.1,0.7-0.4,1.3,0c0,0,0.3,0.2,0.6,0.3c0,0,0.4-0.1,0.4-0.1c0,0,0.2,0.3,0.2,0.6c0.1,0.3,0.1,0.6,0.1,0.7
			c0,0.1,0.2,0.6,0.2,0.9c0,0.3,0,0.5,0,0.5c0,0,0,0,0,0.2c0,0.1,0,0.2,0,0.3c0,0.1,0,0.3-0.2,0.3c-0.2,0.1-1.4,0.3-2,0.3
			c-0.6,0-1.6-0.1-2-0.5c0,0-0.1-0.1-0.2-0.4c-0.1-0.3-0.2-0.4-0.3-0.4C317.7,501.5,317.5,501.4,317.5,501.2z"/>
		<path class="st35" d="M317.6,501.2c0,0-0.1,0.2-0.1,0.4c0,0.1-0.1,0.6,0.1,0.7c0.2,0.1,0.3,0.2,0.3,0.5c0,0.2-0.1,1.3,0.4,1.4
			c0.5,0.2,1.9,0.7,4,0.1c0,0,0.2,0,0.2-0.3c0-0.2,0-1.3,0-1.3s0-0.1-0.1-0.1c-0.1,0-1.8,0.1-1.8,0.1s-1.7-0.1-1.9-0.2
			c-0.2-0.1-0.4-0.3-0.5-0.6c-0.1-0.3-0.2-0.3-0.3-0.4C317.6,501.4,317.6,501.3,317.6,501.2z"/>
	</g>
	<rect x="334.6" y="496.7" class="st18" width="3.4" height="5.4"/>
	<g>
		<path class="st34" d="M333.7,501.2c0,0,0-0.3,0.1-0.4c0,0,0-0.9,0.7-1.6c0,0,0.1,0.1,0.3,0.1c0.3-0.1,0.6-0.2,0.9-0.3
			c0.3-0.1,0.7-0.4,1.3,0c0,0,0.3,0.2,0.6,0.3c0,0,0.4-0.1,0.4-0.1c0,0,0.2,0.3,0.2,0.6c0.1,0.3,0.1,0.6,0.1,0.7
			c0,0.1,0.2,0.6,0.2,0.9c0,0.3,0,0.5,0,0.5c0,0,0,0,0,0.2c0,0.1,0,0.2,0,0.3c0,0.1,0,0.3-0.2,0.3c-0.2,0.1-1.4,0.3-2,0.3
			c-0.6,0-1.6-0.1-2-0.5c0,0-0.1-0.1-0.2-0.4c-0.1-0.3-0.2-0.4-0.3-0.4C333.9,501.5,333.7,501.4,333.7,501.2z"/>
		<path class="st35" d="M333.8,501.2c0,0-0.1,0.2-0.1,0.4c0,0.1-0.1,0.6,0.1,0.7c0.2,0.1,0.3,0.2,0.3,0.5c0,0.2-0.1,1.3,0.4,1.4
			c0.5,0.2,1.9,0.7,4,0.1c0,0,0.2,0,0.2-0.3c0-0.2,0-1.3,0-1.3s0-0.1-0.1-0.1c-0.1,0-1.8,0.1-1.8,0.1s-1.7-0.1-1.9-0.2
			c-0.2-0.1-0.4-0.3-0.5-0.6c-0.1-0.3-0.2-0.3-0.3-0.4C333.8,501.4,333.8,501.3,333.8,501.2z"/>
	</g>
	<path class="st23" d="M324.6,461.8l5.4-0.1h0.6h0.6c7.2,0,6.4-7.8,6.9-14.7l-20.1,0C318.6,453.9,317.5,461.8,324.6,461.8z"/>
	<g>
		<g>
			<path class="st36" d="M338.8,427.4c0.1-0.1,0.3,0,0.4,0.1l0,0c0.1,0.1,0,0.3-0.1,0.4l-0.7,0.5c-0.1,0.1-0.3,0-0.4-0.1l0,0
				c-0.1-0.1,0-0.3,0.1-0.4L338.8,427.4z"/>
			<path class="st36" d="M338,428c0.1-0.1,0.3-0.2,0.4-0.1l0,0c0.1,0.1,0.2,0.3,0.1,0.4l-0.5,0.8c-0.1,0.1-0.3,0.2-0.4,0.1l0,0
				c-0.1-0.1-0.2-0.3-0.1-0.4L338,428z"/>
		</g>
		<g>
			<path class="st36" d="M339.7,426.9c0.1-0.1,0.3-0.1,0.4,0.1l0,0c0.1,0.1,0.1,0.3-0.1,0.4l-0.7,0.6c-0.1,0.1-0.3,0.1-0.4-0.1l0,0
				c-0.1-0.1-0.1-0.3,0.1-0.4L339.7,426.9z"/>
			<path class="st36" d="M339,427.6c0.1-0.1,0.3-0.2,0.4-0.1l0,0c0.1,0.1,0.2,0.3,0.1,0.4l-0.5,0.8c-0.1,0.1-0.3,0.2-0.4,0.1l0,0
				c-0.1-0.1-0.2-0.3-0.1-0.4L339,427.6z"/>
		</g>
		
			<rect x="341.4" y="428.4" transform="matrix(0.8142 -0.5806 0.5806 0.8142 -186.5377 278.793)" class="st18" width="1.9" height="4.9"/>
		<path class="st18" d="M340.2,429.1c0.2,0,0.3,0.2,0.2,0.3l0,0c0,0.2-0.2,0.3-0.3,0.2l-1.3-0.2c-0.2,0-0.3-0.2-0.2-0.3l0,0
			c0-0.2,0.2-0.3,0.3-0.2L340.2,429.1z"/>
		<path class="st18" d="M339,428.9c0.1,0.1,0.2,0.3,0.1,0.4l0,0c-0.1,0.1-0.3,0.2-0.4,0.1l-0.8-0.5c-0.1-0.1-0.2-0.3-0.1-0.4l0,0
			c0.1-0.1,0.3-0.2,0.4-0.1L339,428.9z"/>
		<g>
			<path class="st18" d="M338.3,427.7c0.2,0,0.3,0.1,0.3,0.2l0,0c0,0.2-0.1,0.3-0.2,0.3l-0.9,0.3c-0.2,0-0.3-0.1-0.3-0.2l0,0
				c0-0.2,0.1-0.3,0.2-0.3L338.3,427.7z"/>
			<path class="st18" d="M337.3,428c0.1-0.1,0.3-0.1,0.4,0.1l0,0c0.1,0.1,0.1,0.3-0.1,0.4L337,429c-0.1,0.1-0.3,0.1-0.4-0.1l0,0
				c-0.1-0.1-0.1-0.3,0.1-0.4L337.3,428z"/>
		</g>
		<path class="st18" d="M341.9,428.4c0.1,0.1,0,0.2,0,0.2l-1.5,1c-0.1,0-0.2,0-0.2-0.1l-2-1.7c-0.1-0.1,0-0.2,0-0.2l1.9-0.9
			c0.1,0,0.2,0,0.2,0.1L341.9,428.4z"/>
	</g>
	<g>
		<g>
			<path class="st36" d="M316.2,427.3c-0.1-0.1-0.3,0-0.4,0.1l0,0c-0.1,0.1,0,0.3,0.1,0.4l0.7,0.5c0.1,0.1,0.3,0,0.4-0.1l0,0
				c0.1-0.1,0-0.3-0.1-0.4L316.2,427.3z"/>
			<path class="st36" d="M317,427.9c-0.1-0.1-0.3-0.2-0.4-0.1l0,0c-0.1,0.1-0.2,0.3-0.1,0.4l0.5,0.8c0.1,0.1,0.3,0.2,0.4,0.1l0,0
				c0.1-0.1,0.2-0.3,0.1-0.4L317,427.9z"/>
		</g>
		<g>
			<path class="st36" d="M315.3,426.9c-0.1-0.1-0.3-0.1-0.4,0.1l0,0c-0.1,0.1-0.1,0.3,0.1,0.4l0.7,0.6c0.1,0.1,0.3,0.1,0.4-0.1l0,0
				c0.1-0.1,0.1-0.3-0.1-0.4L315.3,426.9z"/>
			<path class="st36" d="M316,427.6c-0.1-0.1-0.3-0.2-0.4-0.1l0,0c-0.1,0.1-0.2,0.3-0.1,0.4l0.4,0.8c0.1,0.1,0.3,0.2,0.4,0.1l0,0
				c0.1-0.1,0.2-0.3,0.1-0.4L316,427.6z"/>
		</g>
		<polygon class="st18" points="310.5,432.3 312.1,433.4 314.9,429.4 313.2,428.5 		"/>
		<path class="st18" d="M314.8,429.1c-0.2,0-0.3,0.2-0.2,0.3l0,0c0,0.2,0.2,0.3,0.3,0.2l1.3-0.2c0.2,0,0.3-0.2,0.2-0.3l0,0
			c0-0.2-0.2-0.3-0.3-0.2L314.8,429.1z"/>
		<path class="st18" d="M316,428.9c-0.1,0.1-0.2,0.3-0.1,0.4l0,0c0.1,0.1,0.3,0.2,0.4,0.1l0.8-0.5c0.1-0.1,0.2-0.3,0.1-0.4l0,0
			c-0.1-0.1-0.3-0.2-0.4-0.1L316,428.9z"/>
		<g>
			<path class="st18" d="M316.7,427.6c-0.2,0-0.3,0.1-0.3,0.2l0,0c0,0.2,0.1,0.3,0.2,0.3l0.9,0.3c0.2,0,0.3-0.1,0.3-0.2l0,0
				c0-0.2-0.1-0.3-0.2-0.3L316.7,427.6z"/>
			<path class="st18" d="M317.7,428c-0.1-0.1-0.3-0.1-0.4,0.1l0,0c-0.1,0.1-0.1,0.3,0.1,0.4l0.7,0.6c0.1,0.1,0.3,0.1,0.4-0.1l0,0
				c0.1-0.1,0.1-0.3-0.1-0.4L317.7,428z"/>
		</g>
		<path class="st18" d="M313.2,428.5c-0.1,0.1,0,0.2,0.1,0.3l1.5,0.9c0.1,0,0.2,0,0.2-0.1l2-1.7c0.1-0.1,0-0.2,0-0.2l-1.9-0.9
			c-0.1,0-0.2,0-0.2,0.1L313.2,428.5z"/>
	</g>
	<path class="st23" d="M327.9,457.7c0.4,1.8-0.8,3.6-2.6,3.9l-3.8,0.8c-1.8,0.4-4.4,0-4.8-1.8l0.1-0.7c-0.8-3.3,0.2-3.7,3.4-4.1
		l3.8-0.8C325.8,454.8,327.5,456,327.9,457.7L327.9,457.7z"/>
	<polygon class="st23" points="322.4,497.4 317.5,497.4 316.6,457.6 323,457.6 	"/>
	<path class="st23" d="M328.7,457.7c-0.4,1.8,0.8,3.6,2.6,3.9l3.8,0.8c1.8,0.4,4.1-0.4,4.4-2.1l0-0.8c0.4-1.8,0.3-3.2-3.1-3.6
		l-3.8-0.8C330.8,454.8,329.1,456,328.7,457.7L328.7,457.7z"/>
	<polygon class="st23" points="333.8,497.4 338.7,497.4 339.6,457.6 333.2,457.6 	"/>
	<rect x="318" y="445.8" class="st37" width="20.2" height="1.5"/>
	<path class="st18" d="M330,409.9l-1.3-8.8c0-2.3,0.8-3.7-1.8-3.7c-2.6,0-1.5,1.8-1.5,4.1l-1.5,8.4c0,0,0,0.1,0,0.1h6
		C330,410,330,410,330,409.9z"/>
	<path class="st26" d="M330.6,407.4l-0.2-0.4c-0.3-0.5-0.3-0.6-0.9-0.6h-2.5H327h-2.5c-0.6,0.1-0.6,0.1-0.9,0.6l-0.2,0.4
		c-0.2,0.5-0.3,0.7,0.3,0.7h3.3h0.1h3.3C330.9,408.1,330.9,407.9,330.6,407.4z"/>
	<path class="st38" d="M343.7,429c0.5,1.1,1,2.1,1.4,3c-0.8-1.1-1.1-1.4-1.8-2.4l-0.4-0.5l-0.2,0.1l-2,1.1l-0.1,0.1l0.1,0.1
		c0.8,1.2,1.8,2.7,2.9,4.1c0.6,0.8,1.1,1.4,1.6,2c0.3,0.3,0.5,0.7,0.9,1l0,0l0,0c0.1,0.1,0.2,0.2,0.2,0.2c0.3,0.3,0.5,0.5,1.3,0.9
		l0,0l0,0c0,0,0.1,0,0.1,0c0.1,0,0.3,0.1,0.5,0.1c0,0,0,0,0.1,0h0l0,0c0.5,0,0.9-0.2,1.2-0.6c0.4-0.5,0.5-0.9,0.5-1.1
		c0-0.1,0-0.1,0-0.1l0,0v0c0-0.4,0-0.6-0.1-0.9c0,0,0-0.1,0-0.1c-0.1-0.5-0.2-1-0.4-1.4c-0.3-0.8-0.5-1.6-0.9-2.5
		c-0.5-1.4-1.1-2.8-1.9-4.7c-2.9-6.6-6.4-11.4-9-16.7l-0.1-0.2l-0.2,0.1l-3.3,1.7l-0.2,0.1l0.1,0.2
		C336.7,417.6,340.6,422.5,343.7,429z M348.2,438.8C348.2,438.8,348.2,438.8,348.2,438.8C348.2,438.8,348.2,438.8,348.2,438.8
		C348.2,438.8,348.2,438.8,348.2,438.8z M347.6,438.8C347.6,438.8,347.7,438.8,347.6,438.8C347.7,438.8,347.6,438.8,347.6,438.8z
		 M348,438.8C348,438.8,348.1,438.8,348,438.8C348.1,438.8,348,438.8,348,438.8z M347.9,438.8C348,438.8,348,438.8,347.9,438.8
		C348,438.8,348,438.8,347.9,438.8z M347.9,438.8C347.9,438.8,347.9,438.8,347.9,438.8C347.9,438.8,347.9,438.8,347.9,438.8z
		 M347.8,438.8C347.8,438.8,347.8,438.8,347.8,438.8C347.8,438.8,347.8,438.8,347.8,438.8z M347.7,438.8
		C347.7,438.8,347.7,438.8,347.7,438.8C347.7,438.8,347.7,438.8,347.7,438.8z"/>
	<path class="st38" d="M321,413.2l0.1-0.2l-0.2-0.1l-3.3-1.7l-0.2-0.1l-0.1,0.2c-2.6,5.3-6,9.7-8.9,16.3c-0.8,1.9-1.4,3.3-1.9,4.7
		c-0.3,0.9-0.6,1.6-0.9,2.5c-0.1,0.4-0.3,0.9-0.4,1.4c0,0.1,0,0.1,0,0.1c0,0.2-0.1,0.5-0.1,0.9l0,0l0,0c0,0,0,0.1,0,0.1
		c0,0.2,0,0.6,0.5,1.1c0.3,0.3,0.7,0.5,1.2,0.6l0,0h0c0,0,0,0,0.1,0c0.3,0,0.4,0,0.5-0.1c0,0,0.1,0,0.1,0l0,0l0,0
		c0.8-0.4,1-0.6,1.3-0.9c0.1-0.1,0.2-0.2,0.2-0.2l0,0l0,0c0.3-0.4,0.6-0.7,0.9-1c0.5-0.6,1-1.2,1.6-2c1.1-1.4,1.9-2.8,2.8-4l0.1-0.1
		l-0.2-0.1l-2-1l-0.2-0.1l-0.3,0.5c-0.7,0.9-0.9,1.2-1.7,2.2c0.4-0.9,0.8-1.9,1.4-3C314.7,422.5,318.4,418,321,413.2z M307,438.8
		C307,438.8,307.1,438.8,307,438.8C307.1,438.8,307.1,438.8,307,438.8C307,438.8,307,438.8,307,438.8z M307.5,438.8
		C307.6,438.8,307.6,438.8,307.5,438.8C307.6,438.8,307.6,438.8,307.5,438.8z M307.1,438.8C307.2,438.8,307.2,438.8,307.1,438.8
		C307.2,438.8,307.2,438.8,307.1,438.8z M307.2,438.8C307.3,438.8,307.3,438.8,307.2,438.8C307.3,438.8,307.3,438.8,307.2,438.8z
		 M307.3,438.8C307.3,438.8,307.4,438.8,307.3,438.8C307.4,438.8,307.3,438.8,307.3,438.8z M307.4,438.8
		C307.4,438.8,307.4,438.8,307.4,438.8C307.4,438.8,307.4,438.8,307.4,438.8z M307.5,438.8C307.5,438.8,307.5,438.8,307.5,438.8
		C307.5,438.8,307.5,438.8,307.5,438.8z"/>
	<path class="st38" d="M338.5,443.4l0.1-22.8c-0.3-8.9,0.7-12.5-8.3-12.4h-2.6h-0.6h-2.6c-8.1,0.5-8.3,4.4-8.3,12.6l1.3,21.4l0.6,4
		l19.9,0L338.5,443.4z"/>
	<path class="st18" d="M334.5,390.9c-0.2,0-0.5,0.1-0.7,0.4v-3.2c0-3.6-2.1-6.4-6.3-6.5c0,0,0,0,0,0c0,0,0,0-0.1,0c0,0,0,0-0.1,0
		c0,0,0,0,0,0c0,0-0.1,0-0.1,0c0,0-0.1,0-0.1,0c0,0,0,0,0,0c0,0,0,0-0.1,0c0,0,0,0-0.1,0c0,0,0,0,0,0c-4.2,0.1-6.2,2.9-6.2,6.5v3.2
		c-0.2-0.3-0.4-0.4-0.7-0.4c-0.5,0.1-0.7,0.9-0.5,1.9c0.2,1,0.7,1.7,1.2,1.7c0,0,0.1,0,0.1,0c1.1,3.7-0.4,7.5,4,7.9
		c0,0,1,0.4,2.4,0.4v0c0,0,0,0,0,0c0,0,0,0,0,0v0c1.4,0,2.4-0.4,2.4-0.4c4.2,0,3-4.2,4.1-7.9c0,0,0.1,0,0.1,0c0.5,0.1,1-0.7,1.2-1.7
		C335.2,391.8,335,390.9,334.5,390.9z"/>
	<path class="st39" d="M333,383.3c0.5-2.5-2.3-2-4.5-2c0,0-0.1,0-0.1,0c-1.7,0.2-6.5,0.6-8.1-1c0.1,2,1,3.6,1,3.6
		c-0.6,0.8-0.5,7.4-0.5,7.4s0.3,9.7,4.4,9.6c0,0,2.2-1.2,3.8-0.1c0,0,4.7,0.6,4.9-9.5c0,0,0.1-4.8,0.1-6.2S333,383.3,333,383.3z"/>
</g>
<g>
	<path class="st18" d="M191.1,397.6c-0.1,1.5-1.5,2.6-2.9,2.5l-6.3-2.3c-1.6-0.6-2.5-2.1-2.3-3.6l0.1-9.1c0.1-1.5,2.8-2.3,4.3-2.2
		l7.7,0.7c1.5,0.1,1,6.1,0.9,7.6L191.1,397.6z"/>
	<path class="st39" d="M192.1,384.4c0,0,4.9-2,3.4-5.8c0,0-4.4,2.5-12.1,0.2c0,0-5.2-1.3-4.6,8.5c0,0-0.5,3.5,0.4,7l0.2,0.3l1.3-0.6
		c0,0,3.2-6.4,4.4-6.1c0,0,0.8-0.4,1,1.5l0,0.5l1.1,1.4l0.7-4.4C187.8,387,186.9,383.5,192.1,384.4z"/>
	<path d="M192.7,391.5c0,0.1,0.1,0.2,0.2,0.2l0,0c0.1,0,0.2-0.1,0.2-0.2l0.3-3.8c0-0.1-0.1-0.2-0.2-0.2l0,0c-0.1,0-0.2,0.1-0.2,0.2
		L192.7,391.5z"/>
	<path d="M186.5,389.1l6.2,0.5c0.2,0,0.3,0.1,0.3,0.2c0,0.1-0.2,0.2-0.4,0.1l-6.4-0.5l-1.2,0.5l-0.2-0.3L186.5,389.1z"/>
</g>
<g>
	<path class="st18" d="M462.7,397.6c0.1,1.5,1.5,2.6,2.9,2.5l6.3-2.3c1.6-0.6,2.5-2.1,2.3-3.6l-0.1-9.1c-0.1-1.5-2.8-2.3-4.3-2.2
		l-7.7,0.7c-1.5,0.1-1,6.1-0.9,7.6L462.7,397.6z"/>
	<path class="st39" d="M461.5,384.4c0,0-4.7-2-3.2-5.7c0,0,4.4,2.5,12.1,0.2c0,0,5.2-1.3,4.6,8.5c0,0,0.5,3.5-0.4,7l-0.2,0.3
		l-1.3-0.6c0,0-3.2-6.4-4.4-6.1c0,0-0.8-0.4-1,1.5l0,0.5l-1.1,1.4l-0.7-4.4C465.9,387,466.7,383.4,461.5,384.4z"/>
</g>
<path class="st40" d="M183.4,409.1l-3.4,0.2c0.9,6.6,4.1,12.7,9.3,16.6c-0.1-1.3-0.2-2.9-0.3-4.3
	C185.8,418.2,183.9,413.6,183.4,409.1z"/>
<path class="st1" d="M210.3,429.6c-6.6,0.6-13.8,0-19.8-3.8c-6-3.8-9.8-10.3-10.7-17.4l3.6-0.3c0.6,5.8,3.7,11.8,8.7,15.2
	c5.1,3.5,11.6,4.4,18,4L210.3,429.6z"/>
<path class="st41" d="M473.4,409.5l-3.6-0.3c-0.2,4.5-2.2,9.2-5.5,12.7c-0.1,1.4-0.2,3.1-0.2,4.2
	C469.4,422.3,472.8,416.2,473.4,409.5z"/>
<path class="st1" d="M443.1,429.6c6.6,0.6,13.8,0,19.8-3.8c6-3.8,9.8-10.3,10.7-17.4l-3.6-0.3c-0.6,5.8-3.7,11.8-8.7,15.2
	c-5.1,3.5-11.6,4.4-18,4L443.1,429.6z"/>
<g>
	<polygon class="st16" points="327.5,467.4 332.7,462.1 322.2,462.1 	"/>
	<rect x="326.1" y="467" class="st17" width="2.7" height="22.9"/>
	<rect x="326.1" y="464.9" class="st16" width="2.7" height="2.7"/>
	<rect x="325.2" y="483.2" class="st16" width="4.9" height="12.4"/>
	<polygon class="st16" points="327.6,494.4 309.4,499.8 309.4,502.3 327.6,498.4 346.3,502.9 346.3,500.2 	"/>
	<path class="st16" d="M312.7,504.4c0,1.1-1,2.1-2.2,2.1c-1.2,0-2.2-0.9-2.2-2.1s1-2.1,2.2-2.1C311.8,502.3,312.7,503.2,312.7,504.4
		z"/>
	<path class="st16" d="M330,505.9c0,1.1-1,2.1-2.2,2.1c-1.2,0-2.2-0.9-2.2-2.1c0-1.1,1-2.1,2.2-2.1C329.1,503.8,330,504.8,330,505.9
		z"/>
	<path class="st16" d="M347,504.7c0,1.1-1,2.1-2.2,2.1c-1.2,0-2.2-0.9-2.2-2.1c0-1.1,1-2.1,2.2-2.1C346.1,502.7,347,503.6,347,504.7
		z"/>
	<polygon class="st16" points="329,503.3 326.5,503.3 326.1,495.2 329.3,495.2 	"/>
	<rect x="309.4" y="501.5" class="st16" width="0.8" height="1.2"/>
	<rect x="327.4" y="501.5" class="st16" width="0.8" height="3.1"/>
</g>
<path class="st26" d="M343.7,419.5c0-2.5-1.1-4.6-2.5-4.6l-13.5,1.3l-13.5-1.3c-1.4,0-2.5,2.1-2.5,4.6l3,22l-1.7,11.5
	c0.2,3.2,1,9.2,4.3,9.8h10.4h0h0h0h0h0h11c3.3-0.6,4.1-6.6,4.3-9.8l-1.7-11.5L343.7,419.5z"/>
</svg>
