<svg id="Layer_1" data-name="Layer 1" xmlns="http://www.w3.org/2000/svg" viewBox="0 0 118.24 165.73"><defs><style>.cls-1{fill:#d8d8d8;}</style></defs><title>timer</title><path class="cls-1" d="M241.88,243.72H234.5c-.94-32.51-12-61.2-28.51-73.86C222.46,157.19,233.56,128.5,234.5,96h7.38a4.5,4.5,0,0,0,0-9H132.64a4.5,4.5,0,0,0,0,9H140c.94,32.51,12,61.2,28.51,73.86C152.07,182.51,141,211.21,140,243.72h-7.38a4.5,4.5,0,0,0,0,9H241.88a4.5,4.5,0,0,0,0-9ZM174.23,172a2.5,2.5,0,0,0,0-4.24C157.48,157.28,146,128.79,145,96H229.5c-1,32.8-12.45,61.29-29.2,71.74a2.5,2.5,0,0,0,0,4.24c16.75,10.45,28.24,38.94,29.2,71.74H145C146,210.92,157.48,182.43,174.23,172Z" transform="translate(-128.14 -86.99)"/><path class="cls-1" d="M197.38,176.64l-.65-.41c-2.56-2-6.09-5.73-3.11-9.82l3.77-2.35c10-6.23,18-20.37,22.6-38.14-19.82,6-39.71,11.71-59.77,16.42a58.54,58.54,0,0,0,11,16.92,5.75,5.75,0,0,0,1.8,1.73,30.39,30.39,0,0,0,4.07,3.07l3.33,2.08c4.88,6.1-5.08,11.56-5.08,11.56l.11.06c-13.55,9.85-23.25,34.48-24.82,62.46h73.17C222.21,211.12,211.79,185.63,197.38,176.64Z" transform="translate(-128.14 -86.99)"/></svg>